%TF.GenerationSoftware,KiCad,Pcbnew,8.0.0*%
%TF.CreationDate,2024-03-13T17:22:47+01:00*%
%TF.ProjectId,BalloonMotherboardV3,42616c6c-6f6f-46e4-9d6f-74686572626f,rev?*%
%TF.SameCoordinates,Original*%
%TF.FileFunction,Legend,Bot*%
%TF.FilePolarity,Positive*%
%FSLAX46Y46*%
G04 Gerber Fmt 4.6, Leading zero omitted, Abs format (unit mm)*
G04 Created by KiCad (PCBNEW 8.0.0) date 2024-03-13 17:22:47*
%MOMM*%
%LPD*%
G01*
G04 APERTURE LIST*
%ADD10C,0.254000*%
%ADD11C,0.150000*%
%ADD12C,0.200000*%
%ADD13C,0.120000*%
%ADD14C,0.100000*%
G04 APERTURE END LIST*
D10*
X74041000Y-167198318D02*
X74041000Y-165928318D01*
X72710523Y-167077365D02*
X72770999Y-167137842D01*
X72770999Y-167137842D02*
X72952428Y-167198318D01*
X72952428Y-167198318D02*
X73073380Y-167198318D01*
X73073380Y-167198318D02*
X73254809Y-167137842D01*
X73254809Y-167137842D02*
X73375761Y-167016889D01*
X73375761Y-167016889D02*
X73436238Y-166895937D01*
X73436238Y-166895937D02*
X73496714Y-166654032D01*
X73496714Y-166654032D02*
X73496714Y-166472603D01*
X73496714Y-166472603D02*
X73436238Y-166230699D01*
X73436238Y-166230699D02*
X73375761Y-166109746D01*
X73375761Y-166109746D02*
X73254809Y-165988794D01*
X73254809Y-165988794D02*
X73073380Y-165928318D01*
X73073380Y-165928318D02*
X72952428Y-165928318D01*
X72952428Y-165928318D02*
X72770999Y-165988794D01*
X72770999Y-165988794D02*
X72710523Y-166049270D01*
X72166238Y-167198318D02*
X72166238Y-165928318D01*
X72166238Y-166533080D02*
X71440523Y-166533080D01*
X71440523Y-167198318D02*
X71440523Y-165928318D01*
X70291476Y-166351651D02*
X70291476Y-167198318D01*
X70593857Y-165867842D02*
X70896238Y-166774984D01*
X70896238Y-166774984D02*
X70110047Y-166774984D01*
D11*
X88387580Y-165473142D02*
X88435200Y-165425523D01*
X88435200Y-165425523D02*
X88482819Y-165282666D01*
X88482819Y-165282666D02*
X88482819Y-165187428D01*
X88482819Y-165187428D02*
X88435200Y-165044571D01*
X88435200Y-165044571D02*
X88339961Y-164949333D01*
X88339961Y-164949333D02*
X88244723Y-164901714D01*
X88244723Y-164901714D02*
X88054247Y-164854095D01*
X88054247Y-164854095D02*
X87911390Y-164854095D01*
X87911390Y-164854095D02*
X87720914Y-164901714D01*
X87720914Y-164901714D02*
X87625676Y-164949333D01*
X87625676Y-164949333D02*
X87530438Y-165044571D01*
X87530438Y-165044571D02*
X87482819Y-165187428D01*
X87482819Y-165187428D02*
X87482819Y-165282666D01*
X87482819Y-165282666D02*
X87530438Y-165425523D01*
X87530438Y-165425523D02*
X87578057Y-165473142D01*
X87482819Y-166330285D02*
X87482819Y-166139809D01*
X87482819Y-166139809D02*
X87530438Y-166044571D01*
X87530438Y-166044571D02*
X87578057Y-165996952D01*
X87578057Y-165996952D02*
X87720914Y-165901714D01*
X87720914Y-165901714D02*
X87911390Y-165854095D01*
X87911390Y-165854095D02*
X88292342Y-165854095D01*
X88292342Y-165854095D02*
X88387580Y-165901714D01*
X88387580Y-165901714D02*
X88435200Y-165949333D01*
X88435200Y-165949333D02*
X88482819Y-166044571D01*
X88482819Y-166044571D02*
X88482819Y-166235047D01*
X88482819Y-166235047D02*
X88435200Y-166330285D01*
X88435200Y-166330285D02*
X88387580Y-166377904D01*
X88387580Y-166377904D02*
X88292342Y-166425523D01*
X88292342Y-166425523D02*
X88054247Y-166425523D01*
X88054247Y-166425523D02*
X87959009Y-166377904D01*
X87959009Y-166377904D02*
X87911390Y-166330285D01*
X87911390Y-166330285D02*
X87863771Y-166235047D01*
X87863771Y-166235047D02*
X87863771Y-166044571D01*
X87863771Y-166044571D02*
X87911390Y-165949333D01*
X87911390Y-165949333D02*
X87959009Y-165901714D01*
X87959009Y-165901714D02*
X88054247Y-165854095D01*
X87482819Y-167044571D02*
X87482819Y-167139809D01*
X87482819Y-167139809D02*
X87530438Y-167235047D01*
X87530438Y-167235047D02*
X87578057Y-167282666D01*
X87578057Y-167282666D02*
X87673295Y-167330285D01*
X87673295Y-167330285D02*
X87863771Y-167377904D01*
X87863771Y-167377904D02*
X88101866Y-167377904D01*
X88101866Y-167377904D02*
X88292342Y-167330285D01*
X88292342Y-167330285D02*
X88387580Y-167282666D01*
X88387580Y-167282666D02*
X88435200Y-167235047D01*
X88435200Y-167235047D02*
X88482819Y-167139809D01*
X88482819Y-167139809D02*
X88482819Y-167044571D01*
X88482819Y-167044571D02*
X88435200Y-166949333D01*
X88435200Y-166949333D02*
X88387580Y-166901714D01*
X88387580Y-166901714D02*
X88292342Y-166854095D01*
X88292342Y-166854095D02*
X88101866Y-166806476D01*
X88101866Y-166806476D02*
X87863771Y-166806476D01*
X87863771Y-166806476D02*
X87673295Y-166854095D01*
X87673295Y-166854095D02*
X87578057Y-166901714D01*
X87578057Y-166901714D02*
X87530438Y-166949333D01*
X87530438Y-166949333D02*
X87482819Y-167044571D01*
D10*
X123967518Y-152173818D02*
X122697518Y-152173818D01*
X122697518Y-152173818D02*
X122697518Y-152476199D01*
X122697518Y-152476199D02*
X122757994Y-152657628D01*
X122757994Y-152657628D02*
X122878946Y-152778580D01*
X122878946Y-152778580D02*
X122999899Y-152839057D01*
X122999899Y-152839057D02*
X123241803Y-152899533D01*
X123241803Y-152899533D02*
X123423232Y-152899533D01*
X123423232Y-152899533D02*
X123665137Y-152839057D01*
X123665137Y-152839057D02*
X123786089Y-152778580D01*
X123786089Y-152778580D02*
X123907042Y-152657628D01*
X123907042Y-152657628D02*
X123967518Y-152476199D01*
X123967518Y-152476199D02*
X123967518Y-152173818D01*
X122697518Y-154048580D02*
X122697518Y-153443818D01*
X122697518Y-153443818D02*
X123302280Y-153383342D01*
X123302280Y-153383342D02*
X123241803Y-153443818D01*
X123241803Y-153443818D02*
X123181327Y-153564771D01*
X123181327Y-153564771D02*
X123181327Y-153867152D01*
X123181327Y-153867152D02*
X123241803Y-153988104D01*
X123241803Y-153988104D02*
X123302280Y-154048580D01*
X123302280Y-154048580D02*
X123423232Y-154109057D01*
X123423232Y-154109057D02*
X123725613Y-154109057D01*
X123725613Y-154109057D02*
X123846565Y-154048580D01*
X123846565Y-154048580D02*
X123907042Y-153988104D01*
X123907042Y-153988104D02*
X123967518Y-153867152D01*
X123967518Y-153867152D02*
X123967518Y-153564771D01*
X123967518Y-153564771D02*
X123907042Y-153443818D01*
X123907042Y-153443818D02*
X123846565Y-153383342D01*
X93853000Y-167198318D02*
X93853000Y-165928318D01*
X92522523Y-167077365D02*
X92582999Y-167137842D01*
X92582999Y-167137842D02*
X92764428Y-167198318D01*
X92764428Y-167198318D02*
X92885380Y-167198318D01*
X92885380Y-167198318D02*
X93066809Y-167137842D01*
X93066809Y-167137842D02*
X93187761Y-167016889D01*
X93187761Y-167016889D02*
X93248238Y-166895937D01*
X93248238Y-166895937D02*
X93308714Y-166654032D01*
X93308714Y-166654032D02*
X93308714Y-166472603D01*
X93308714Y-166472603D02*
X93248238Y-166230699D01*
X93248238Y-166230699D02*
X93187761Y-166109746D01*
X93187761Y-166109746D02*
X93066809Y-165988794D01*
X93066809Y-165988794D02*
X92885380Y-165928318D01*
X92885380Y-165928318D02*
X92764428Y-165928318D01*
X92764428Y-165928318D02*
X92582999Y-165988794D01*
X92582999Y-165988794D02*
X92522523Y-166049270D01*
X91978238Y-167198318D02*
X91978238Y-165928318D01*
X91978238Y-166533080D02*
X91252523Y-166533080D01*
X91252523Y-167198318D02*
X91252523Y-165928318D01*
X90103476Y-165928318D02*
X90345381Y-165928318D01*
X90345381Y-165928318D02*
X90466333Y-165988794D01*
X90466333Y-165988794D02*
X90526809Y-166049270D01*
X90526809Y-166049270D02*
X90647762Y-166230699D01*
X90647762Y-166230699D02*
X90708238Y-166472603D01*
X90708238Y-166472603D02*
X90708238Y-166956413D01*
X90708238Y-166956413D02*
X90647762Y-167077365D01*
X90647762Y-167077365D02*
X90587285Y-167137842D01*
X90587285Y-167137842D02*
X90466333Y-167198318D01*
X90466333Y-167198318D02*
X90224428Y-167198318D01*
X90224428Y-167198318D02*
X90103476Y-167137842D01*
X90103476Y-167137842D02*
X90043000Y-167077365D01*
X90043000Y-167077365D02*
X89982523Y-166956413D01*
X89982523Y-166956413D02*
X89982523Y-166654032D01*
X89982523Y-166654032D02*
X90043000Y-166533080D01*
X90043000Y-166533080D02*
X90103476Y-166472603D01*
X90103476Y-166472603D02*
X90224428Y-166412127D01*
X90224428Y-166412127D02*
X90466333Y-166412127D01*
X90466333Y-166412127D02*
X90587285Y-166472603D01*
X90587285Y-166472603D02*
X90647762Y-166533080D01*
X90647762Y-166533080D02*
X90708238Y-166654032D01*
X123916718Y-159590618D02*
X122646718Y-159590618D01*
X122646718Y-159590618D02*
X122646718Y-159892999D01*
X122646718Y-159892999D02*
X122707194Y-160074428D01*
X122707194Y-160074428D02*
X122828146Y-160195380D01*
X122828146Y-160195380D02*
X122949099Y-160255857D01*
X122949099Y-160255857D02*
X123191003Y-160316333D01*
X123191003Y-160316333D02*
X123372432Y-160316333D01*
X123372432Y-160316333D02*
X123614337Y-160255857D01*
X123614337Y-160255857D02*
X123735289Y-160195380D01*
X123735289Y-160195380D02*
X123856242Y-160074428D01*
X123856242Y-160074428D02*
X123916718Y-159892999D01*
X123916718Y-159892999D02*
X123916718Y-159590618D01*
X122646718Y-160739666D02*
X122646718Y-161586333D01*
X122646718Y-161586333D02*
X123916718Y-161042047D01*
X115745381Y-171262318D02*
X115745381Y-169992318D01*
X115745381Y-169992318D02*
X115443000Y-169992318D01*
X115443000Y-169992318D02*
X115261571Y-170052794D01*
X115261571Y-170052794D02*
X115140619Y-170173746D01*
X115140619Y-170173746D02*
X115080142Y-170294699D01*
X115080142Y-170294699D02*
X115019666Y-170536603D01*
X115019666Y-170536603D02*
X115019666Y-170718032D01*
X115019666Y-170718032D02*
X115080142Y-170959937D01*
X115080142Y-170959937D02*
X115140619Y-171080889D01*
X115140619Y-171080889D02*
X115261571Y-171201842D01*
X115261571Y-171201842D02*
X115443000Y-171262318D01*
X115443000Y-171262318D02*
X115745381Y-171262318D01*
X114414904Y-171262318D02*
X114173000Y-171262318D01*
X114173000Y-171262318D02*
X114052047Y-171201842D01*
X114052047Y-171201842D02*
X113991571Y-171141365D01*
X113991571Y-171141365D02*
X113870619Y-170959937D01*
X113870619Y-170959937D02*
X113810142Y-170718032D01*
X113810142Y-170718032D02*
X113810142Y-170234222D01*
X113810142Y-170234222D02*
X113870619Y-170113270D01*
X113870619Y-170113270D02*
X113931095Y-170052794D01*
X113931095Y-170052794D02*
X114052047Y-169992318D01*
X114052047Y-169992318D02*
X114293952Y-169992318D01*
X114293952Y-169992318D02*
X114414904Y-170052794D01*
X114414904Y-170052794D02*
X114475381Y-170113270D01*
X114475381Y-170113270D02*
X114535857Y-170234222D01*
X114535857Y-170234222D02*
X114535857Y-170536603D01*
X114535857Y-170536603D02*
X114475381Y-170657556D01*
X114475381Y-170657556D02*
X114414904Y-170718032D01*
X114414904Y-170718032D02*
X114293952Y-170778508D01*
X114293952Y-170778508D02*
X114052047Y-170778508D01*
X114052047Y-170778508D02*
X113931095Y-170718032D01*
X113931095Y-170718032D02*
X113870619Y-170657556D01*
X113870619Y-170657556D02*
X113810142Y-170536603D01*
X124889381Y-171262318D02*
X124889381Y-169992318D01*
X124889381Y-169992318D02*
X124587000Y-169992318D01*
X124587000Y-169992318D02*
X124405571Y-170052794D01*
X124405571Y-170052794D02*
X124284619Y-170173746D01*
X124284619Y-170173746D02*
X124224142Y-170294699D01*
X124224142Y-170294699D02*
X124163666Y-170536603D01*
X124163666Y-170536603D02*
X124163666Y-170718032D01*
X124163666Y-170718032D02*
X124224142Y-170959937D01*
X124224142Y-170959937D02*
X124284619Y-171080889D01*
X124284619Y-171080889D02*
X124405571Y-171201842D01*
X124405571Y-171201842D02*
X124587000Y-171262318D01*
X124587000Y-171262318D02*
X124889381Y-171262318D01*
X123437952Y-170536603D02*
X123558904Y-170476127D01*
X123558904Y-170476127D02*
X123619381Y-170415651D01*
X123619381Y-170415651D02*
X123679857Y-170294699D01*
X123679857Y-170294699D02*
X123679857Y-170234222D01*
X123679857Y-170234222D02*
X123619381Y-170113270D01*
X123619381Y-170113270D02*
X123558904Y-170052794D01*
X123558904Y-170052794D02*
X123437952Y-169992318D01*
X123437952Y-169992318D02*
X123196047Y-169992318D01*
X123196047Y-169992318D02*
X123075095Y-170052794D01*
X123075095Y-170052794D02*
X123014619Y-170113270D01*
X123014619Y-170113270D02*
X122954142Y-170234222D01*
X122954142Y-170234222D02*
X122954142Y-170294699D01*
X122954142Y-170294699D02*
X123014619Y-170415651D01*
X123014619Y-170415651D02*
X123075095Y-170476127D01*
X123075095Y-170476127D02*
X123196047Y-170536603D01*
X123196047Y-170536603D02*
X123437952Y-170536603D01*
X123437952Y-170536603D02*
X123558904Y-170597080D01*
X123558904Y-170597080D02*
X123619381Y-170657556D01*
X123619381Y-170657556D02*
X123679857Y-170778508D01*
X123679857Y-170778508D02*
X123679857Y-171020413D01*
X123679857Y-171020413D02*
X123619381Y-171141365D01*
X123619381Y-171141365D02*
X123558904Y-171201842D01*
X123558904Y-171201842D02*
X123437952Y-171262318D01*
X123437952Y-171262318D02*
X123196047Y-171262318D01*
X123196047Y-171262318D02*
X123075095Y-171201842D01*
X123075095Y-171201842D02*
X123014619Y-171141365D01*
X123014619Y-171141365D02*
X122954142Y-171020413D01*
X122954142Y-171020413D02*
X122954142Y-170778508D01*
X122954142Y-170778508D02*
X123014619Y-170657556D01*
X123014619Y-170657556D02*
X123075095Y-170597080D01*
X123075095Y-170597080D02*
X123196047Y-170536603D01*
X74083332Y-140371080D02*
X74506666Y-140371080D01*
X74506666Y-141036318D02*
X74506666Y-139766318D01*
X74506666Y-139766318D02*
X73901904Y-139766318D01*
X72752856Y-141036318D02*
X73478571Y-141036318D01*
X73115714Y-141036318D02*
X73115714Y-139766318D01*
X73115714Y-139766318D02*
X73236666Y-139947746D01*
X73236666Y-139947746D02*
X73357618Y-140068699D01*
X73357618Y-140068699D02*
X73478571Y-140129175D01*
X83693000Y-167198318D02*
X83693000Y-165928318D01*
X82362523Y-167077365D02*
X82422999Y-167137842D01*
X82422999Y-167137842D02*
X82604428Y-167198318D01*
X82604428Y-167198318D02*
X82725380Y-167198318D01*
X82725380Y-167198318D02*
X82906809Y-167137842D01*
X82906809Y-167137842D02*
X83027761Y-167016889D01*
X83027761Y-167016889D02*
X83088238Y-166895937D01*
X83088238Y-166895937D02*
X83148714Y-166654032D01*
X83148714Y-166654032D02*
X83148714Y-166472603D01*
X83148714Y-166472603D02*
X83088238Y-166230699D01*
X83088238Y-166230699D02*
X83027761Y-166109746D01*
X83027761Y-166109746D02*
X82906809Y-165988794D01*
X82906809Y-165988794D02*
X82725380Y-165928318D01*
X82725380Y-165928318D02*
X82604428Y-165928318D01*
X82604428Y-165928318D02*
X82422999Y-165988794D01*
X82422999Y-165988794D02*
X82362523Y-166049270D01*
X81818238Y-167198318D02*
X81818238Y-165928318D01*
X81818238Y-166533080D02*
X81092523Y-166533080D01*
X81092523Y-167198318D02*
X81092523Y-165928318D01*
X79883000Y-165928318D02*
X80487762Y-165928318D01*
X80487762Y-165928318D02*
X80548238Y-166533080D01*
X80548238Y-166533080D02*
X80487762Y-166472603D01*
X80487762Y-166472603D02*
X80366809Y-166412127D01*
X80366809Y-166412127D02*
X80064428Y-166412127D01*
X80064428Y-166412127D02*
X79943476Y-166472603D01*
X79943476Y-166472603D02*
X79883000Y-166533080D01*
X79883000Y-166533080D02*
X79822523Y-166654032D01*
X79822523Y-166654032D02*
X79822523Y-166956413D01*
X79822523Y-166956413D02*
X79883000Y-167077365D01*
X79883000Y-167077365D02*
X79943476Y-167137842D01*
X79943476Y-167137842D02*
X80064428Y-167198318D01*
X80064428Y-167198318D02*
X80366809Y-167198318D01*
X80366809Y-167198318D02*
X80487762Y-167137842D01*
X80487762Y-167137842D02*
X80548238Y-167077365D01*
X105537000Y-167706318D02*
X105537000Y-166436318D01*
X104206523Y-167585365D02*
X104266999Y-167645842D01*
X104266999Y-167645842D02*
X104448428Y-167706318D01*
X104448428Y-167706318D02*
X104569380Y-167706318D01*
X104569380Y-167706318D02*
X104750809Y-167645842D01*
X104750809Y-167645842D02*
X104871761Y-167524889D01*
X104871761Y-167524889D02*
X104932238Y-167403937D01*
X104932238Y-167403937D02*
X104992714Y-167162032D01*
X104992714Y-167162032D02*
X104992714Y-166980603D01*
X104992714Y-166980603D02*
X104932238Y-166738699D01*
X104932238Y-166738699D02*
X104871761Y-166617746D01*
X104871761Y-166617746D02*
X104750809Y-166496794D01*
X104750809Y-166496794D02*
X104569380Y-166436318D01*
X104569380Y-166436318D02*
X104448428Y-166436318D01*
X104448428Y-166436318D02*
X104266999Y-166496794D01*
X104266999Y-166496794D02*
X104206523Y-166557270D01*
X103662238Y-167706318D02*
X103662238Y-166436318D01*
X103662238Y-167041080D02*
X102936523Y-167041080D01*
X102936523Y-167706318D02*
X102936523Y-166436318D01*
X102452714Y-166436318D02*
X101606047Y-166436318D01*
X101606047Y-166436318D02*
X102150333Y-167706318D01*
D12*
%TO.C,ICH4*%
X68136000Y-169724000D02*
X69636000Y-169724000D01*
X70386000Y-163374000D02*
X70386000Y-169874000D01*
X70386000Y-169874000D02*
X73886000Y-169874000D01*
X73886000Y-163374000D02*
X70386000Y-163374000D01*
X73886000Y-169874000D02*
X73886000Y-163374000D01*
D13*
%TO.C,C60*%
X86508000Y-166223836D02*
X86508000Y-166008164D01*
X87228000Y-166223836D02*
X87228000Y-166008164D01*
D12*
%TO.C,D5*%
X121583200Y-155781200D02*
X121583200Y-150441200D01*
X125203200Y-150441200D02*
X125203200Y-156336200D01*
%TO.C,ICH6*%
X87948000Y-169724000D02*
X89448000Y-169724000D01*
X90198000Y-163374000D02*
X90198000Y-169874000D01*
X90198000Y-169874000D02*
X93698000Y-169874000D01*
X93698000Y-163374000D02*
X90198000Y-163374000D01*
X93698000Y-169874000D02*
X93698000Y-163374000D01*
%TO.C,D7*%
X121532400Y-163198000D02*
X121532400Y-157858000D01*
X125152400Y-157858000D02*
X125152400Y-163753000D01*
%TO.C,D9*%
X117478000Y-172498000D02*
X112138000Y-172498000D01*
X112138000Y-168878000D02*
X118033000Y-168878000D01*
D13*
%TO.C,C59*%
X75838164Y-170582000D02*
X76053836Y-170582000D01*
X75838164Y-171302000D02*
X76053836Y-171302000D01*
%TO.C,C27*%
X145140000Y-149555252D02*
X145140000Y-148132748D01*
X146960000Y-149555252D02*
X146960000Y-148132748D01*
D12*
%TO.C,D8*%
X126622000Y-172498000D02*
X121282000Y-172498000D01*
X121282000Y-168878000D02*
X127177000Y-168878000D01*
D13*
%TO.C,C61*%
X95610000Y-171596164D02*
X95610000Y-171811836D01*
X94890000Y-171596164D02*
X94890000Y-171811836D01*
%TO.C,C43*%
X134260000Y-138988748D02*
X134260000Y-140411252D01*
X132440000Y-138988748D02*
X132440000Y-140411252D01*
D14*
%TO.C,F1*%
X68760000Y-140462000D02*
X68760000Y-140462000D01*
X68860000Y-140462000D02*
X68860000Y-140462000D01*
D12*
X71660000Y-137902000D02*
X75660000Y-137902000D01*
X71660000Y-143022000D02*
X75660000Y-143022000D01*
D14*
X68760000Y-140462000D02*
G75*
G02*
X68860000Y-140462000I50000J0D01*
G01*
X68860000Y-140462000D02*
G75*
G02*
X68760000Y-140462000I-50000J0D01*
G01*
D12*
%TO.C,ICH5*%
X77788000Y-169724000D02*
X79288000Y-169724000D01*
X80038000Y-163374000D02*
X80038000Y-169874000D01*
X80038000Y-169874000D02*
X83538000Y-169874000D01*
X83538000Y-163374000D02*
X80038000Y-163374000D01*
X83538000Y-169874000D02*
X83538000Y-163374000D01*
%TO.C,ICH7*%
X99632000Y-170232000D02*
X101132000Y-170232000D01*
X101882000Y-163882000D02*
X101882000Y-170382000D01*
X101882000Y-170382000D02*
X105382000Y-170382000D01*
X105382000Y-163882000D02*
X101882000Y-163882000D01*
X105382000Y-170382000D02*
X105382000Y-163882000D01*
D13*
%TO.C,C58*%
X106279836Y-172064000D02*
X106064164Y-172064000D01*
X106279836Y-171344000D02*
X106064164Y-171344000D01*
%TD*%
M02*
