%TF.GenerationSoftware,KiCad,Pcbnew,8.0.0*%
%TF.CreationDate,2024-03-13T17:22:47+01:00*%
%TF.ProjectId,BalloonMotherboardV3,42616c6c-6f6f-46e4-9d6f-74686572626f,rev?*%
%TF.SameCoordinates,Original*%
%TF.FileFunction,Paste,Top*%
%TF.FilePolarity,Positive*%
%FSLAX46Y46*%
G04 Gerber Fmt 4.6, Leading zero omitted, Abs format (unit mm)*
G04 Created by KiCad (PCBNEW 8.0.0) date 2024-03-13 17:22:47*
%MOMM*%
%LPD*%
G01*
G04 APERTURE LIST*
G04 Aperture macros list*
%AMRoundRect*
0 Rectangle with rounded corners*
0 $1 Rounding radius*
0 $2 $3 $4 $5 $6 $7 $8 $9 X,Y pos of 4 corners*
0 Add a 4 corners polygon primitive as box body*
4,1,4,$2,$3,$4,$5,$6,$7,$8,$9,$2,$3,0*
0 Add four circle primitives for the rounded corners*
1,1,$1+$1,$2,$3*
1,1,$1+$1,$4,$5*
1,1,$1+$1,$6,$7*
1,1,$1+$1,$8,$9*
0 Add four rect primitives between the rounded corners*
20,1,$1+$1,$2,$3,$4,$5,0*
20,1,$1+$1,$4,$5,$6,$7,0*
20,1,$1+$1,$6,$7,$8,$9,0*
20,1,$1+$1,$8,$9,$2,$3,0*%
G04 Aperture macros list end*
%ADD10RoundRect,0.140000X-0.170000X0.140000X-0.170000X-0.140000X0.170000X-0.140000X0.170000X0.140000X0*%
%ADD11R,1.500000X2.000000*%
%ADD12R,3.800000X2.000000*%
%ADD13RoundRect,0.225000X-0.250000X0.225000X-0.250000X-0.225000X0.250000X-0.225000X0.250000X0.225000X0*%
%ADD14RoundRect,0.140000X-0.140000X-0.170000X0.140000X-0.170000X0.140000X0.170000X-0.140000X0.170000X0*%
%ADD15RoundRect,0.140000X0.140000X0.170000X-0.140000X0.170000X-0.140000X-0.170000X0.140000X-0.170000X0*%
%ADD16R,1.200000X3.200000*%
%ADD17R,1.700000X5.300000*%
%ADD18RoundRect,0.135000X0.135000X0.185000X-0.135000X0.185000X-0.135000X-0.185000X0.135000X-0.185000X0*%
%ADD19RoundRect,0.225000X-0.225000X-0.250000X0.225000X-0.250000X0.225000X0.250000X-0.225000X0.250000X0*%
%ADD20RoundRect,0.250000X-0.450000X0.350000X-0.450000X-0.350000X0.450000X-0.350000X0.450000X0.350000X0*%
%ADD21RoundRect,0.225000X0.225000X0.250000X-0.225000X0.250000X-0.225000X-0.250000X0.225000X-0.250000X0*%
%ADD22RoundRect,0.250000X-0.412500X-0.650000X0.412500X-0.650000X0.412500X0.650000X-0.412500X0.650000X0*%
%ADD23R,0.900000X1.850000*%
%ADD24R,3.200000X1.850000*%
%ADD25RoundRect,0.250000X0.350000X0.450000X-0.350000X0.450000X-0.350000X-0.450000X0.350000X-0.450000X0*%
%ADD26R,1.200000X2.200000*%
%ADD27R,2.000000X4.200000*%
%ADD28R,1.400000X1.200000*%
%ADD29R,1.600000X3.500000*%
%ADD30R,12.200000X9.750000*%
%ADD31RoundRect,0.250000X0.250000X0.475000X-0.250000X0.475000X-0.250000X-0.475000X0.250000X-0.475000X0*%
%ADD32RoundRect,0.200000X-0.275000X0.200000X-0.275000X-0.200000X0.275000X-0.200000X0.275000X0.200000X0*%
%ADD33RoundRect,0.140000X0.170000X-0.140000X0.170000X0.140000X-0.170000X0.140000X-0.170000X-0.140000X0*%
%ADD34RoundRect,0.250000X-0.350000X-0.450000X0.350000X-0.450000X0.350000X0.450000X-0.350000X0.450000X0*%
%ADD35R,0.850000X0.200000*%
%ADD36R,0.200000X0.850000*%
%ADD37R,3.200000X3.200000*%
%ADD38RoundRect,0.250000X-0.250000X-0.475000X0.250000X-0.475000X0.250000X0.475000X-0.250000X0.475000X0*%
%ADD39R,0.400000X0.400000*%
%ADD40RoundRect,0.135000X0.185000X-0.135000X0.185000X0.135000X-0.185000X0.135000X-0.185000X-0.135000X0*%
%ADD41R,0.450000X1.475000*%
%ADD42RoundRect,0.250000X0.450000X-0.350000X0.450000X0.350000X-0.450000X0.350000X-0.450000X-0.350000X0*%
%ADD43R,0.450000X0.700000*%
%ADD44R,1.300000X1.400000*%
%ADD45R,0.950000X1.400000*%
%ADD46R,0.400000X1.200000*%
%ADD47R,1.300000X1.000000*%
%ADD48R,1.400000X0.400000*%
%ADD49R,0.700000X0.650000*%
%ADD50RoundRect,0.135000X-0.185000X0.135000X-0.185000X-0.135000X0.185000X-0.135000X0.185000X0.135000X0*%
%ADD51RoundRect,0.135000X-0.135000X-0.185000X0.135000X-0.185000X0.135000X0.185000X-0.135000X0.185000X0*%
%ADD52RoundRect,0.200000X0.200000X0.275000X-0.200000X0.275000X-0.200000X-0.275000X0.200000X-0.275000X0*%
%ADD53RoundRect,0.200000X0.275000X-0.200000X0.275000X0.200000X-0.275000X0.200000X-0.275000X-0.200000X0*%
%ADD54R,1.000000X0.900000*%
%ADD55R,0.550000X1.700000*%
%ADD56R,1.850000X1.200000*%
%ADD57R,1.850000X0.900000*%
%ADD58R,1.850000X3.200000*%
%ADD59R,1.525000X0.650000*%
%ADD60R,1.000000X1.450000*%
%ADD61RoundRect,0.250000X-0.650000X0.412500X-0.650000X-0.412500X0.650000X-0.412500X0.650000X0.412500X0*%
%ADD62R,0.475000X0.300000*%
%ADD63R,1.500000X0.900000*%
%ADD64R,1.500000X3.200000*%
%ADD65R,1.475000X0.300000*%
%ADD66R,0.300000X1.475000*%
%ADD67R,0.400000X1.350000*%
%ADD68R,1.450000X1.300000*%
%ADD69R,1.600000X1.400000*%
%ADD70R,1.900000X1.900000*%
%ADD71R,5.500000X1.450000*%
%ADD72R,0.300000X0.800000*%
%ADD73R,0.800000X0.300000*%
%ADD74R,1.800000X1.800000*%
%ADD75R,1.300000X1.150000*%
%ADD76R,1.300000X1.100000*%
%ADD77RoundRect,0.150000X-0.650000X-0.150000X0.650000X-0.150000X0.650000X0.150000X-0.650000X0.150000X0*%
G04 APERTURE END LIST*
D10*
%TO.C,C13*%
X104394000Y-121186000D03*
X104394000Y-122146000D03*
%TD*%
D11*
%TO.C,U1*%
X109968000Y-112370000D03*
X112268000Y-112370000D03*
D12*
X112268000Y-106070000D03*
D11*
X114568000Y-112370000D03*
%TD*%
D13*
%TO.C,C7*%
X63504000Y-108525000D03*
X63504000Y-110075000D03*
%TD*%
D14*
%TO.C,C48*%
X107089000Y-122682000D03*
X108049000Y-122682000D03*
%TD*%
D15*
%TO.C,C36*%
X99667000Y-136765000D03*
X98707000Y-136765000D03*
%TD*%
D10*
%TO.C,C33*%
X129540000Y-136934000D03*
X129540000Y-137894000D03*
%TD*%
D15*
%TO.C,C52*%
X148816000Y-141732000D03*
X147856000Y-141732000D03*
%TD*%
D16*
%TO.C,V_BAT1*%
X119396000Y-166730000D03*
X121396000Y-166730000D03*
D17*
X116846000Y-172210000D03*
X123946000Y-172210000D03*
%TD*%
D18*
%TO.C,R30*%
X143004000Y-138938000D03*
X141984000Y-138938000D03*
%TD*%
D19*
%TO.C,C25*%
X126733000Y-119888000D03*
X128283000Y-119888000D03*
%TD*%
D20*
%TO.C,R10*%
X107315000Y-154829000D03*
X107315000Y-156829000D03*
%TD*%
D21*
%TO.C,C4*%
X157629400Y-152920000D03*
X156079400Y-152920000D03*
%TD*%
D22*
%TO.C,C31*%
X132041500Y-131064000D03*
X135166500Y-131064000D03*
%TD*%
D23*
%TO.C,3VLIN2*%
X161050000Y-155650000D03*
X158750000Y-155650000D03*
X156450000Y-155650000D03*
D24*
X158750000Y-161850000D03*
%TD*%
D14*
%TO.C,C9*%
X147856000Y-144272000D03*
X148816000Y-144272000D03*
%TD*%
D25*
%TO.C,R36*%
X120634000Y-131064000D03*
X118634000Y-131064000D03*
%TD*%
D26*
%TO.C,Ox1*%
X69200000Y-135048195D03*
X71200000Y-135048195D03*
X73200000Y-135048195D03*
X75200000Y-135048195D03*
D27*
X78800000Y-129468195D03*
X65600000Y-129468195D03*
%TD*%
D28*
%TO.C,Y2*%
X98595000Y-139915000D03*
X100795000Y-139915000D03*
X100795000Y-138215000D03*
X98595000Y-138215000D03*
%TD*%
D25*
%TO.C,R22*%
X120888000Y-155956000D03*
X118888000Y-155956000D03*
%TD*%
%TO.C,R23*%
X57200000Y-114300000D03*
X55200000Y-114300000D03*
%TD*%
D29*
%TO.C,IC5*%
X122936000Y-116219000D03*
X128016000Y-116219000D03*
D30*
X125476000Y-105944000D03*
%TD*%
D25*
%TO.C,R24*%
X120888000Y-150876000D03*
X118888000Y-150876000D03*
%TD*%
D20*
%TO.C,R25*%
X56642000Y-163338000D03*
X56642000Y-165338000D03*
%TD*%
D31*
%TO.C,C39*%
X111186000Y-115824000D03*
X109286000Y-115824000D03*
%TD*%
D16*
%TO.C,H3-8*%
X80600000Y-166670000D03*
X82600000Y-166670000D03*
X84600000Y-166670000D03*
X86600000Y-166670000D03*
X88600000Y-166670000D03*
X90600000Y-166670000D03*
X92600000Y-166670000D03*
X94600000Y-166670000D03*
X96600000Y-166670000D03*
X98600000Y-166670000D03*
X100600000Y-166670000D03*
X102600000Y-166670000D03*
D17*
X78050000Y-172150000D03*
X105150000Y-172150000D03*
%TD*%
D10*
%TO.C,C28*%
X134620000Y-133886000D03*
X134620000Y-134846000D03*
%TD*%
D32*
%TO.C,R6*%
X139700000Y-159195000D03*
X139700000Y-160845000D03*
%TD*%
D10*
%TO.C,C29*%
X133350000Y-133886000D03*
X133350000Y-134846000D03*
%TD*%
D33*
%TO.C,C1*%
X105791000Y-122146000D03*
X105791000Y-121186000D03*
%TD*%
D25*
%TO.C,R19*%
X120888000Y-148336000D03*
X118888000Y-148336000D03*
%TD*%
D34*
%TO.C,R20*%
X82693000Y-104394000D03*
X84693000Y-104394000D03*
%TD*%
D18*
%TO.C,R38*%
X148846000Y-137922000D03*
X147826000Y-137922000D03*
%TD*%
D33*
%TO.C,C55*%
X81280000Y-153388000D03*
X81280000Y-152428000D03*
%TD*%
D18*
%TO.C,R39*%
X145544000Y-140462000D03*
X144524000Y-140462000D03*
%TD*%
D35*
%TO.C,J1*%
X98023000Y-125289000D03*
X98023000Y-125689000D03*
X98023000Y-126089000D03*
X98023000Y-126489000D03*
X98023000Y-126889000D03*
X98023000Y-127289000D03*
X98023000Y-127689000D03*
X98023000Y-128089000D03*
X98023000Y-128489000D03*
X98023000Y-128889000D03*
X98023000Y-129289000D03*
X98023000Y-129689000D03*
X98023000Y-130089000D03*
X98023000Y-130489000D03*
D36*
X98873000Y-131339000D03*
X99273000Y-131339000D03*
X99673000Y-131339000D03*
X100073000Y-131339000D03*
X100473000Y-131339000D03*
X100873000Y-131339000D03*
X101273000Y-131339000D03*
X101673000Y-131339000D03*
X102073000Y-131339000D03*
X102473000Y-131339000D03*
X102873000Y-131339000D03*
X103273000Y-131339000D03*
X103673000Y-131339000D03*
X104073000Y-131339000D03*
D35*
X104923000Y-130489000D03*
X104923000Y-130089000D03*
X104923000Y-129689000D03*
X104923000Y-129289000D03*
X104923000Y-128889000D03*
X104923000Y-128489000D03*
X104923000Y-128089000D03*
X104923000Y-127689000D03*
X104923000Y-127289000D03*
X104923000Y-126889000D03*
X104923000Y-126489000D03*
X104923000Y-126089000D03*
X104923000Y-125689000D03*
X104923000Y-125289000D03*
D36*
X104073000Y-124439000D03*
X103673000Y-124439000D03*
X103273000Y-124439000D03*
X102873000Y-124439000D03*
X102473000Y-124439000D03*
X102073000Y-124439000D03*
X101673000Y-124439000D03*
X101273000Y-124439000D03*
X100873000Y-124439000D03*
X100473000Y-124439000D03*
X100073000Y-124439000D03*
X99673000Y-124439000D03*
X99273000Y-124439000D03*
X98873000Y-124439000D03*
D37*
X101473000Y-127889000D03*
%TD*%
D38*
%TO.C,C26*%
X84648000Y-130556000D03*
X86548000Y-130556000D03*
%TD*%
D26*
%TO.C,Ox4*%
X59200000Y-140679025D03*
X57200000Y-140679025D03*
X55200000Y-140679025D03*
X53200000Y-140679025D03*
D27*
X49600000Y-146259025D03*
X62800000Y-146259025D03*
%TD*%
D39*
%TO.C,LED_OX1*%
X55772000Y-169310000D03*
X54972000Y-169310000D03*
X54972000Y-168510000D03*
X55772000Y-168510000D03*
%TD*%
D40*
%TO.C,R16*%
X144526000Y-144782000D03*
X144526000Y-143762000D03*
%TD*%
D18*
%TO.C,R40*%
X145544000Y-141732000D03*
X144524000Y-141732000D03*
%TD*%
D41*
%TO.C,MUXH1*%
X160343800Y-106536000D03*
X159693800Y-106536000D03*
X159043800Y-106536000D03*
X158393800Y-106536000D03*
X157743800Y-106536000D03*
X157093800Y-106536000D03*
X156443800Y-106536000D03*
X155793800Y-106536000D03*
X155143800Y-106536000D03*
X154493800Y-106536000D03*
X153843800Y-106536000D03*
X153193800Y-106536000D03*
X153193800Y-112412000D03*
X153843800Y-112412000D03*
X154493800Y-112412000D03*
X155143800Y-112412000D03*
X155793800Y-112412000D03*
X156443800Y-112412000D03*
X157093800Y-112412000D03*
X157743800Y-112412000D03*
X158393800Y-112412000D03*
X159043800Y-112412000D03*
X159693800Y-112412000D03*
X160343800Y-112412000D03*
%TD*%
D15*
%TO.C,C34*%
X142974000Y-142240000D03*
X142014000Y-142240000D03*
%TD*%
D18*
%TO.C,R33*%
X143004000Y-144780000D03*
X141984000Y-144780000D03*
%TD*%
D15*
%TO.C,C35*%
X142974000Y-140208000D03*
X142014000Y-140208000D03*
%TD*%
D10*
%TO.C,C16*%
X128016000Y-134648000D03*
X128016000Y-135608000D03*
%TD*%
D18*
%TO.C,R3*%
X109577600Y-138785600D03*
X108557600Y-138785600D03*
%TD*%
D21*
%TO.C,C21*%
X141999000Y-173736000D03*
X140449000Y-173736000D03*
%TD*%
D42*
%TO.C,R11*%
X112776000Y-161401000D03*
X112776000Y-159401000D03*
%TD*%
D14*
%TO.C,C40*%
X107470000Y-129159000D03*
X108430000Y-129159000D03*
%TD*%
D18*
%TO.C,R37*%
X148846000Y-140462000D03*
X147826000Y-140462000D03*
%TD*%
D43*
%TO.C,SD1*%
X75520000Y-104510000D03*
D44*
X68200000Y-103970000D03*
D45*
X78975000Y-103970000D03*
D46*
X67750000Y-106270000D03*
X79250000Y-106270000D03*
X67750000Y-108870000D03*
X79250000Y-108870000D03*
D47*
X68200000Y-111230000D03*
D48*
X71390000Y-111530000D03*
X75640000Y-111530000D03*
D47*
X78800000Y-111230000D03*
D43*
X70320000Y-104510000D03*
X71020000Y-104510000D03*
X71720000Y-104510000D03*
X72420000Y-104510000D03*
X74120000Y-104510000D03*
X74820000Y-104510000D03*
X76220000Y-104510000D03*
X76920000Y-104510000D03*
%TD*%
D13*
%TO.C,C17*%
X140640500Y-164566500D03*
X140640500Y-166116500D03*
%TD*%
D49*
%TO.C,FB1*%
X145034000Y-136565000D03*
X145034000Y-135215000D03*
%TD*%
D50*
%TO.C,R67*%
X91948000Y-111758000D03*
X91948000Y-112778000D03*
%TD*%
D51*
%TO.C,R15*%
X164082000Y-128524000D03*
X165102000Y-128524000D03*
%TD*%
D10*
%TO.C,C32*%
X136652000Y-133886000D03*
X136652000Y-134846000D03*
%TD*%
D52*
%TO.C,R5*%
X142049000Y-168135500D03*
X140399000Y-168135500D03*
%TD*%
D53*
%TO.C,R28*%
X136652000Y-160591000D03*
X136652000Y-158941000D03*
%TD*%
D20*
%TO.C,R18*%
X81280000Y-125492000D03*
X81280000Y-127492000D03*
%TD*%
D14*
%TO.C,C15*%
X125758000Y-140462000D03*
X126718000Y-140462000D03*
%TD*%
D50*
%TO.C,R1*%
X101981000Y-120140000D03*
X101981000Y-121160000D03*
%TD*%
D15*
%TO.C,C12*%
X96492000Y-143764000D03*
X95532000Y-143764000D03*
%TD*%
D39*
%TO.C,LED1*%
X124098000Y-130156000D03*
X124098000Y-130956000D03*
X123298000Y-130956000D03*
X123298000Y-130156000D03*
%TD*%
D54*
%TO.C,S1*%
X110064400Y-145223600D03*
X108464400Y-145223600D03*
X108464400Y-141123600D03*
X110064400Y-141123600D03*
D55*
X110689400Y-143173600D03*
%TD*%
D56*
%TO.C,R_shunt1*%
X115443000Y-161393000D03*
X115443000Y-158393000D03*
%TD*%
D15*
%TO.C,C49*%
X101064000Y-112014000D03*
X100104000Y-112014000D03*
%TD*%
D34*
%TO.C,R34*%
X118634000Y-133604000D03*
X120634000Y-133604000D03*
%TD*%
D57*
%TO.C,3VLIN1*%
X60504000Y-111300000D03*
X60504000Y-109000000D03*
X60504000Y-106700000D03*
D58*
X54304000Y-109000000D03*
%TD*%
D59*
%TO.C,IC1*%
X89612000Y-128405000D03*
X89612000Y-127135000D03*
X89612000Y-125865000D03*
X89612000Y-124595000D03*
X84188000Y-124595000D03*
X84188000Y-125865000D03*
X84188000Y-127135000D03*
X84188000Y-128405000D03*
%TD*%
D10*
%TO.C,C44*%
X101981000Y-134394000D03*
X101981000Y-135354000D03*
%TD*%
D60*
%TO.C,V_5V1*%
X125410000Y-148532000D03*
X123510000Y-148532000D03*
%TD*%
D10*
%TO.C,C56*%
X70612000Y-152682000D03*
X70612000Y-153642000D03*
%TD*%
D33*
%TO.C,C41*%
X65532000Y-103858000D03*
X65532000Y-102898000D03*
%TD*%
D26*
%TO.C,Ox5*%
X59200000Y-152442635D03*
X57200000Y-152442635D03*
X55200000Y-152442635D03*
X53200000Y-152442635D03*
D27*
X49600000Y-158022635D03*
X62800000Y-158022635D03*
%TD*%
D50*
%TO.C,R29*%
X128016000Y-136904000D03*
X128016000Y-137924000D03*
%TD*%
D10*
%TO.C,C19*%
X103378000Y-134648000D03*
X103378000Y-135608000D03*
%TD*%
D61*
%TO.C,C6*%
X133858000Y-158457500D03*
X133858000Y-161582500D03*
%TD*%
D21*
%TO.C,C3*%
X141669500Y-162801500D03*
X140119500Y-162801500D03*
%TD*%
D61*
%TO.C,C5*%
X131064000Y-158457500D03*
X131064000Y-161582500D03*
%TD*%
D62*
%TO.C,BUCK1*%
X136830000Y-162826000D03*
X136830000Y-163326000D03*
X136830000Y-163826000D03*
X136830000Y-164326000D03*
X138506000Y-164326000D03*
X138506000Y-163826000D03*
X138506000Y-163326000D03*
X138506000Y-162826000D03*
%TD*%
D20*
%TO.C,R4*%
X52070000Y-163338000D03*
X52070000Y-165338000D03*
%TD*%
D33*
%TO.C,C47*%
X100457000Y-120368000D03*
X100457000Y-119408000D03*
%TD*%
D21*
%TO.C,C23*%
X124219000Y-119888000D03*
X122669000Y-119888000D03*
%TD*%
D15*
%TO.C,C53*%
X148816000Y-139192000D03*
X147856000Y-139192000D03*
%TD*%
D63*
%TO.C,ICH3*%
X89610000Y-154192000D03*
X89610000Y-151892000D03*
X89610000Y-149592000D03*
D64*
X83110000Y-151892000D03*
%TD*%
D42*
%TO.C,R26*%
X54356000Y-165338000D03*
X54356000Y-163338000D03*
%TD*%
D63*
%TO.C,ICH2*%
X91134000Y-162228800D03*
X91134000Y-159928800D03*
X91134000Y-157628800D03*
D64*
X84634000Y-159928800D03*
%TD*%
D60*
%TO.C,V_LAN1*%
X128844000Y-151384000D03*
X130744000Y-151384000D03*
%TD*%
D19*
%TO.C,C2*%
X159737000Y-152920000D03*
X161287000Y-152920000D03*
%TD*%
D16*
%TO.C,H1-2*%
X69040000Y-166788000D03*
X67040000Y-166788000D03*
X65040000Y-166788000D03*
X63040000Y-166788000D03*
D17*
X60490000Y-172268000D03*
X71590000Y-172268000D03*
%TD*%
D21*
%TO.C,C22*%
X141999000Y-170180000D03*
X140449000Y-170180000D03*
%TD*%
D34*
%TO.C,R35*%
X118634000Y-128778000D03*
X120634000Y-128778000D03*
%TD*%
D14*
%TO.C,C37*%
X100820000Y-136695000D03*
X101780000Y-136695000D03*
%TD*%
D50*
%TO.C,R27*%
X128016000Y-139444000D03*
X128016000Y-140464000D03*
%TD*%
D19*
%TO.C,C8*%
X58429000Y-104000000D03*
X59979000Y-104000000D03*
%TD*%
D41*
%TO.C,V_shifter1*%
X93755400Y-138235200D03*
X93105400Y-138235200D03*
X92455400Y-138235200D03*
X91805400Y-138235200D03*
X91155400Y-138235200D03*
X90505400Y-138235200D03*
X89855400Y-138235200D03*
X89205400Y-138235200D03*
X88555400Y-138235200D03*
X87905400Y-138235200D03*
X87905400Y-144111200D03*
X88555400Y-144111200D03*
X89205400Y-144111200D03*
X89855400Y-144111200D03*
X90505400Y-144111200D03*
X91155400Y-144111200D03*
X91805400Y-144111200D03*
X92455400Y-144111200D03*
X93105400Y-144111200D03*
X93755400Y-144111200D03*
%TD*%
D65*
%TO.C,IC2*%
X140128000Y-143720000D03*
X140128000Y-143220000D03*
X140128000Y-142720000D03*
X140128000Y-142220000D03*
X140128000Y-141720000D03*
X140128000Y-141220000D03*
X140128000Y-140720000D03*
X140128000Y-140220000D03*
X140128000Y-139720000D03*
X140128000Y-139220000D03*
X140128000Y-138720000D03*
X140128000Y-138220000D03*
D66*
X138640000Y-136732000D03*
X138140000Y-136732000D03*
X137640000Y-136732000D03*
X137140000Y-136732000D03*
X136640000Y-136732000D03*
X136140000Y-136732000D03*
X135640000Y-136732000D03*
X135140000Y-136732000D03*
X134640000Y-136732000D03*
X134140000Y-136732000D03*
X133640000Y-136732000D03*
X133140000Y-136732000D03*
D65*
X131652000Y-138220000D03*
X131652000Y-138720000D03*
X131652000Y-139220000D03*
X131652000Y-139720000D03*
X131652000Y-140220000D03*
X131652000Y-140720000D03*
X131652000Y-141220000D03*
X131652000Y-141720000D03*
X131652000Y-142220000D03*
X131652000Y-142720000D03*
X131652000Y-143220000D03*
X131652000Y-143720000D03*
D66*
X133140000Y-145208000D03*
X133640000Y-145208000D03*
X134140000Y-145208000D03*
X134640000Y-145208000D03*
X135140000Y-145208000D03*
X135640000Y-145208000D03*
X136140000Y-145208000D03*
X136640000Y-145208000D03*
X137140000Y-145208000D03*
X137640000Y-145208000D03*
X138140000Y-145208000D03*
X138640000Y-145208000D03*
%TD*%
D40*
%TO.C,R66*%
X90170000Y-112778000D03*
X90170000Y-111758000D03*
%TD*%
D67*
%TO.C,J2*%
X103204800Y-103908000D03*
X102554800Y-103908000D03*
X101904800Y-103908000D03*
X101254800Y-103908000D03*
X100604800Y-103908000D03*
D68*
X105329800Y-101233000D03*
X98479800Y-101233000D03*
D69*
X105104800Y-103683000D03*
X98704800Y-103683000D03*
D70*
X103104800Y-101233000D03*
X100704800Y-101233000D03*
%TD*%
D71*
%TO.C,L1*%
X135128000Y-168688000D03*
X135128000Y-172688000D03*
%TD*%
D18*
%TO.C,R12*%
X104396000Y-151765000D03*
X103376000Y-151765000D03*
%TD*%
D19*
%TO.C,C14*%
X132829000Y-163830000D03*
X134379000Y-163830000D03*
%TD*%
D72*
%TO.C,IC4*%
X104509000Y-154202000D03*
X104009000Y-154202000D03*
X103509000Y-154202000D03*
X103009000Y-154202000D03*
D73*
X102259000Y-154952000D03*
X102259000Y-155452000D03*
X102259000Y-155952000D03*
X102259000Y-156452000D03*
D72*
X103009000Y-157202000D03*
X103509000Y-157202000D03*
X104009000Y-157202000D03*
X104509000Y-157202000D03*
D73*
X105259000Y-156452000D03*
X105259000Y-155952000D03*
X105259000Y-155452000D03*
X105259000Y-154952000D03*
D74*
X103759000Y-155702000D03*
%TD*%
D15*
%TO.C,C45*%
X148816000Y-136652000D03*
X147856000Y-136652000D03*
%TD*%
D20*
%TO.C,R7*%
X109728000Y-159401000D03*
X109728000Y-161401000D03*
%TD*%
D50*
%TO.C,R2*%
X103124000Y-120140000D03*
X103124000Y-121160000D03*
%TD*%
D26*
%TO.C,Ox3*%
X59200000Y-128915415D03*
X57200000Y-128915415D03*
X55200000Y-128915415D03*
X53200000Y-128915415D03*
D27*
X49600000Y-134495415D03*
X62800000Y-134495415D03*
%TD*%
D34*
%TO.C,R17*%
X133112000Y-151384000D03*
X135112000Y-151384000D03*
%TD*%
D75*
%TO.C,!V_BAT1*%
X123510000Y-153924000D03*
X125410000Y-153924000D03*
%TD*%
D19*
%TO.C,C11*%
X149085000Y-152400000D03*
X150635000Y-152400000D03*
%TD*%
D25*
%TO.C,R21*%
X120888000Y-153416000D03*
X118888000Y-153416000D03*
%TD*%
D10*
%TO.C,C30*%
X137922000Y-133886000D03*
X137922000Y-134846000D03*
%TD*%
D76*
%TO.C,Y1*%
X125356000Y-136210000D03*
X123056000Y-136210000D03*
X123056000Y-138110000D03*
X125356000Y-138110000D03*
%TD*%
D77*
%TO.C,U2*%
X88475000Y-114681000D03*
X88475000Y-115951000D03*
X88475000Y-117221000D03*
X88475000Y-118491000D03*
X95675000Y-118491000D03*
X95675000Y-117221000D03*
X95675000Y-115951000D03*
X95675000Y-114681000D03*
%TD*%
D50*
%TO.C,R31*%
X144526000Y-146048000D03*
X144526000Y-147068000D03*
%TD*%
D18*
%TO.C,R32*%
X143004000Y-146050000D03*
X141984000Y-146050000D03*
%TD*%
D26*
%TO.C,Ox0*%
X69100000Y-145848195D03*
X71100000Y-145848195D03*
X73100000Y-145848195D03*
X75100000Y-145848195D03*
D27*
X78700000Y-140268195D03*
X65500000Y-140268195D03*
%TD*%
D33*
%TO.C,C18*%
X99314000Y-120368000D03*
X99314000Y-119408000D03*
%TD*%
D21*
%TO.C,C20*%
X141999000Y-171945500D03*
X140449000Y-171945500D03*
%TD*%
D15*
%TO.C,C42*%
X142974000Y-137654000D03*
X142014000Y-137654000D03*
%TD*%
D38*
%TO.C,C38*%
X114874000Y-115824000D03*
X116774000Y-115824000D03*
%TD*%
D26*
%TO.C,Ox2*%
X59200000Y-117151805D03*
X57200000Y-117151805D03*
X55200000Y-117151805D03*
X53200000Y-117151805D03*
D27*
X49600000Y-122731805D03*
X62800000Y-122731805D03*
%TD*%
D60*
%TO.C,V_BATT1*%
X125410000Y-156464000D03*
X123510000Y-156464000D03*
%TD*%
D10*
%TO.C,C24*%
X95504000Y-139728000D03*
X95504000Y-140688000D03*
%TD*%
D42*
%TO.C,R9*%
X109728000Y-156829000D03*
X109728000Y-154829000D03*
%TD*%
D15*
%TO.C,C51*%
X95857000Y-129159000D03*
X94897000Y-129159000D03*
%TD*%
D14*
%TO.C,C46*%
X106454000Y-123952000D03*
X107414000Y-123952000D03*
%TD*%
D63*
%TO.C,ICH1*%
X79450000Y-161685000D03*
X79450000Y-159385000D03*
X79450000Y-157085000D03*
D64*
X72950000Y-159385000D03*
%TD*%
D33*
%TO.C,C57*%
X82550000Y-160246000D03*
X82550000Y-159286000D03*
%TD*%
D42*
%TO.C,R8*%
X107315000Y-161401000D03*
X107315000Y-159401000D03*
%TD*%
D18*
%TO.C,R13*%
X148846000Y-143002000D03*
X147826000Y-143002000D03*
%TD*%
D10*
%TO.C,C10*%
X151130000Y-134394000D03*
X151130000Y-135354000D03*
%TD*%
D15*
%TO.C,C50*%
X96187200Y-123850400D03*
X95227200Y-123850400D03*
%TD*%
D50*
%TO.C,R68*%
X100711000Y-134364000D03*
X100711000Y-135384000D03*
%TD*%
D60*
%TO.C,V_uC1*%
X125410000Y-151384000D03*
X123510000Y-151384000D03*
%TD*%
D51*
%TO.C,R14*%
X164082000Y-127000000D03*
X165102000Y-127000000D03*
%TD*%
D33*
%TO.C,C54*%
X70866000Y-157960000D03*
X70866000Y-157000000D03*
%TD*%
D60*
%TO.C,V_SD1*%
X84770000Y-106934000D03*
X82870000Y-106934000D03*
%TD*%
D63*
%TO.C,ICH0*%
X78815000Y-153430000D03*
X78815000Y-151130000D03*
X78815000Y-148830000D03*
D64*
X72315000Y-151130000D03*
%TD*%
M02*
