  0
SECTION
  2
HEADER
  9
$ANGBASE
  50
0.0
  9
$ANGDIR
  70
1
  9
$MEASUREMENT
  70
1
  0
ENDSEC
  0
SECTION
  2
TABLES
  0
TABLE
  2
LTYPE
  70
4
  0
LTYPE
  5
40F
  2
CONTINUOUS
  70
0
  3
Solid line
  72
65
  73
0
  40
0.0
  0
LTYPE
  5
410
  2
DASHDOT
 70
0
  3
Dash Dot ____ _ ____ _
 72
65
 73
4
 40
2.0
 49
1.25
 49
-0.25
 49
0.25
 49
-0.25
  0
LTYPE
  5
411
  2
DASHED
 70
0
  3
Dashed __ __ __ __ __
 72
65
 73
2
 40
0.75
 49
0.5
 49
-0.25
  0
LTYPE
  5
43B
  2
DOTTED
 70
0
  3
Dotted .  .  .  .
 72
65
 73
2
 40
0.2
 49
0.0
 49
-0.2
  0
ENDTAB
  0
TABLE
  2
STYLE
  70
4
  0
STYLE
  2
KICAD
  70
0
  40
0
  41
1
  42
1
  50
0
  71
0
  3
isocp.shx
  0
STYLE
  2
KICADB
  70
0
  40
0
  41
1
  42
1
  50
0
  71
0
  3
isocp.shx
  0
STYLE
  2
KICADI
  70
0
  40
0
  41
1
  42
1
  50
15
  71
0
  3
isocp.shx
  0
STYLE
  2
KICADBI
  70
0
  40
0
  41
1
  42
1
  50
15
  71
0
  3
isocp.shx
  0
ENDTAB
  0
TABLE
  2
LAYER
  70
1
  0
LAYER
  2
BLACK
  70
0
  62
7
  6
CONTINUOUS
  0
ENDTAB
  0
ENDSEC
  0
SECTION
  2
ENTITIES
0
LINE
8
BLACK
6
CONTINUOUS
10
38.6839389999999952
20
-52.0266419999999954
11
38.7243959999999987
21
-52.0499999999999972
0
LINE
8
BLACK
6
CONTINUOUS
10
38.7243959999999987
20
-52.0499999999999972
11
39.1999999999999957
21
-52.0499999999999972
0
LINE
8
BLACK
6
CONTINUOUS
10
39.1999999999999957
20
-52.0499999999999972
11
39.1999999999999957
21
-52.6499999999999986
0
LINE
8
BLACK
6
CONTINUOUS
10
39.1999999999999957
20
-52.6499999999999986
11
38.7418830000000014
21
-52.6499999999999986
0
LINE
8
BLACK
6
CONTINUOUS
10
38.7418830000000014
20
-52.6499999999999986
11
38.6096220000000017
21
-52.7840239999999952
0
LINE
8
BLACK
6
CONTINUOUS
10
38.6096220000000017
20
-52.7840239999999952
11
38.6101959999999949
21
-53.7344869999999943
0
LINE
8
BLACK
6
CONTINUOUS
10
38.6101959999999949
20
-53.7344869999999943
11
38.6533869999999951
21
-53.7430789999999945
0
LINE
8
BLACK
6
CONTINUOUS
10
38.6533869999999951
20
-53.7430789999999945
11
38.7304379999999995
21
-53.7945619999999991
0
LINE
8
BLACK
6
CONTINUOUS
10
38.7304379999999995
20
-53.7945619999999991
11
38.781920999999997
21
-53.8716129999999964
0
LINE
8
BLACK
6
CONTINUOUS
10
38.781920999999997
20
-53.8716129999999964
11
38.7999999999999972
21
-53.9624999999999986
0
LINE
8
BLACK
6
CONTINUOUS
10
38.7999999999999972
20
-53.9624999999999986
11
38.7999999999999972
21
-54.4375
0
LINE
8
BLACK
6
CONTINUOUS
10
38.7999999999999972
20
-54.4375
11
38.781920999999997
21
-54.5283869999999951
0
LINE
8
BLACK
6
CONTINUOUS
10
38.781920999999997
20
-54.5283869999999951
11
38.7304379999999995
21
-54.6054379999999995
0
LINE
8
BLACK
6
CONTINUOUS
10
38.7304379999999995
20
-54.6054379999999995
11
38.6533869999999951
21
-54.656920999999997
0
LINE
8
BLACK
6
CONTINUOUS
10
38.6533869999999951
20
-54.656920999999997
11
38.610757999999997
21
-54.6653999999999982
0
LINE
8
BLACK
6
CONTINUOUS
10
38.610757999999997
20
-54.6653999999999982
11
38.6112219999999979
21
-55.4346910000000008
0
LINE
8
BLACK
6
CONTINUOUS
10
38.6112219999999979
20
-55.4346910000000008
11
38.6533869999999951
21
-55.4430789999999973
0
LINE
8
BLACK
6
CONTINUOUS
10
38.6533869999999951
20
-55.4430789999999973
11
38.7304379999999995
21
-55.4945619999999948
0
LINE
8
BLACK
6
CONTINUOUS
10
38.7304379999999995
20
-55.4945619999999948
11
38.7689459999999997
21
-55.5521949999999975
0
LINE
8
BLACK
6
CONTINUOUS
10
38.7689459999999997
20
-55.5521949999999975
11
39.8320799999999977
21
-55.5506579999999985
0
LINE
8
BLACK
6
CONTINUOUS
10
39.8320799999999977
20
-55.5506579999999985
11
39.8695619999999948
21
-55.4945619999999948
0
LINE
8
BLACK
6
CONTINUOUS
10
39.8695619999999948
20
-55.4945619999999948
11
39.9466129999999993
21
-55.4430789999999973
0
LINE
8
BLACK
6
CONTINUOUS
10
39.9466129999999993
20
-55.4430789999999973
11
40.0375000000000014
21
-55.4249999999999972
0
LINE
8
BLACK
6
CONTINUOUS
10
40.0375000000000014
20
-55.4249999999999972
11
40.5375000000000014
21
-55.4249999999999972
0
LINE
8
BLACK
6
CONTINUOUS
10
40.5375000000000014
20
-55.4249999999999972
11
40.6283869999999965
21
-55.4430789999999973
0
LINE
8
BLACK
6
CONTINUOUS
10
40.6283869999999965
20
-55.4430789999999973
11
40.7054380000000009
21
-55.4945619999999948
0
LINE
8
BLACK
6
CONTINUOUS
10
40.7054380000000009
20
-55.4945619999999948
11
40.7569209999999984
21
-55.5716129999999993
0
LINE
8
BLACK
6
CONTINUOUS
10
40.7569209999999984
20
-55.5716129999999993
11
40.7749999999999986
21
-55.6624999999999943
0
LINE
8
BLACK
6
CONTINUOUS
10
40.7749999999999986
20
-55.6624999999999943
11
40.7749999999999986
21
-56.1374999999999957
0
LINE
8
BLACK
6
CONTINUOUS
10
40.7749999999999986
20
-56.1374999999999957
11
40.7569209999999984
21
-56.2283869999999979
0
LINE
8
BLACK
6
CONTINUOUS
10
40.7569209999999984
20
-56.2283869999999979
11
40.7054380000000009
21
-56.3054379999999952
0
LINE
8
BLACK
6
CONTINUOUS
10
40.7054380000000009
20
-56.3054379999999952
11
40.6283869999999965
21
-56.3569209999999998
0
LINE
8
BLACK
6
CONTINUOUS
10
40.6283869999999965
20
-56.3569209999999998
11
40.5375000000000014
21
-56.375
0
LINE
8
BLACK
6
CONTINUOUS
10
40.5375000000000014
20
-56.375
11
40.0375000000000014
21
-56.375
0
LINE
8
BLACK
6
CONTINUOUS
10
40.0375000000000014
20
-56.375
11
39.9466129999999993
21
-56.3569209999999998
0
LINE
8
BLACK
6
CONTINUOUS
10
39.9466129999999993
20
-56.3569209999999998
11
39.8695619999999948
21
-56.3054379999999952
0
LINE
8
BLACK
6
CONTINUOUS
10
39.8695619999999948
20
-56.3054379999999952
11
39.8310040000000001
21
-56.2477319999999992
0
LINE
8
BLACK
6
CONTINUOUS
10
39.8310040000000001
20
-56.2477319999999992
11
38.7679679999999962
21
-56.2492689999999982
0
LINE
8
BLACK
6
CONTINUOUS
10
38.7679679999999962
20
-56.2492689999999982
11
38.7304379999999995
21
-56.3054379999999952
0
LINE
8
BLACK
6
CONTINUOUS
10
38.7304379999999995
20
-56.3054379999999952
11
38.6533869999999951
21
-56.3569209999999998
0
LINE
8
BLACK
6
CONTINUOUS
10
38.6533869999999951
20
-56.3569209999999998
11
38.6117840000000001
21
-56.3651959999999974
0
LINE
8
BLACK
6
CONTINUOUS
10
38.6117840000000001
20
-56.3651959999999974
11
38.6121879999999962
21
-57.0348830000000007
0
LINE
8
BLACK
6
CONTINUOUS
10
38.6121879999999962
20
-57.0348830000000007
11
38.6533869999999951
21
-57.0430789999999988
0
LINE
8
BLACK
6
CONTINUOUS
10
38.6533869999999951
20
-57.0430789999999988
11
38.7304379999999995
21
-57.0945619999999963
0
LINE
8
BLACK
6
CONTINUOUS
10
38.7304379999999995
20
-57.0945619999999963
11
38.781920999999997
21
-57.1716130000000007
0
LINE
8
BLACK
6
CONTINUOUS
10
38.781920999999997
20
-57.1716130000000007
11
38.7999999999999972
21
-57.2624999999999957
0
LINE
8
BLACK
6
CONTINUOUS
10
38.7999999999999972
20
-57.2624999999999957
11
38.7999999999999972
21
-57.7374999999999972
0
LINE
8
BLACK
6
CONTINUOUS
10
38.7999999999999972
20
-57.7374999999999972
11
38.781920999999997
21
-57.8283869999999993
0
LINE
8
BLACK
6
CONTINUOUS
10
38.781920999999997
20
-57.8283869999999993
11
38.7304379999999995
21
-57.9054379999999966
0
LINE
8
BLACK
6
CONTINUOUS
10
38.7304379999999995
20
-57.9054379999999966
11
38.6533869999999951
21
-57.9569209999999941
0
LINE
8
BLACK
6
CONTINUOUS
10
38.6533869999999951
20
-57.9569209999999941
11
38.5625
21
-57.9749999999999943
0
LINE
8
BLACK
6
CONTINUOUS
10
38.5625
20
-57.9749999999999943
11
38.3287989999999965
21
-57.9749999999999943
0
LINE
8
BLACK
6
CONTINUOUS
10
38.3287989999999965
20
-57.9749999999999943
11
36.6099869999999967
21
-59.6974869999999953
0
LINE
8
BLACK
6
CONTINUOUS
10
36.6099869999999967
20
-59.6974869999999953
11
36.5755669999999995
21
-59.7276740000000004
0
LINE
8
BLACK
6
CONTINUOUS
10
36.5755669999999995
20
-59.7276740000000004
11
36.4964389999999952
21
-59.7733579999999947
0
LINE
8
BLACK
6
CONTINUOUS
10
36.4964389999999952
20
-59.7733579999999947
11
36.4081839999999985
21
-59.7970059999999961
0
LINE
8
BLACK
6
CONTINUOUS
10
36.4081839999999985
20
-59.7970059999999961
11
31.9499999999999993
21
-59.7999999999999972
0
LINE
8
BLACK
6
CONTINUOUS
10
31.9499999999999993
20
-59.7999999999999972
11
31.9043309999999991
21
-59.7970070000000007
0
LINE
8
BLACK
6
CONTINUOUS
10
31.9043309999999991
20
-59.7970070000000007
11
31.9043159999999979
21
-59.7970070000000007
0
LINE
8
BLACK
6
CONTINUOUS
10
31.9043159999999979
20
-59.7970070000000007
11
31.8160609999999977
21
-59.7733579999999947
0
LINE
8
BLACK
6
CONTINUOUS
10
31.8160609999999977
20
-59.7733579999999947
11
31.736932999999997
21
-59.7276740000000004
0
LINE
8
BLACK
6
CONTINUOUS
10
31.736932999999997
20
-59.7276740000000004
11
31.7367249999999999
21
-59.7274659999999997
0
LINE
8
BLACK
6
CONTINUOUS
10
31.7367249999999999
20
-59.7274659999999997
11
30.8525129999999983
21
-58.8474869999999939
0
LINE
8
BLACK
6
CONTINUOUS
10
30.8525129999999983
20
-58.8474869999999939
11
30.8223260000000003
21
-58.8130669999999967
0
LINE
8
BLACK
6
CONTINUOUS
10
30.8223260000000003
20
-58.8130669999999967
11
30.7766419999999989
21
-58.7339389999999995
0
LINE
8
BLACK
6
CONTINUOUS
10
30.7766419999999989
20
-58.7339389999999995
11
30.7529939999999975
21
-58.6456839999999957
0
LINE
8
BLACK
6
CONTINUOUS
10
30.7529939999999975
20
-58.6456839999999957
11
30.7523519999999984
21
-58.3999999999999986
0
LINE
8
BLACK
6
CONTINUOUS
10
30.7523519999999984
20
-58.3999999999999986
11
30.1999999999999993
21
-58.3999999999999986
0
LINE
8
BLACK
6
CONTINUOUS
10
30.1999999999999993
20
-58.3999999999999986
11
30.1999999999999993
21
-56.5999999999999943
0
LINE
8
BLACK
6
CONTINUOUS
10
30.1999999999999993
20
-56.5999999999999943
11
32.
21
-56.5999999999999943
0
LINE
8
BLACK
6
CONTINUOUS
10
32.
20
-56.5999999999999943
11
32.
21
-58.3999999999999986
0
LINE
8
BLACK
6
CONTINUOUS
10
32.
20
-58.3999999999999986
11
31.4494769999999981
21
-58.3999999999999986
0
LINE
8
BLACK
6
CONTINUOUS
10
31.4494769999999981
20
-58.3999999999999986
11
31.4496289999999981
21
-58.4582339999999974
0
LINE
8
BLACK
6
CONTINUOUS
10
31.4496289999999981
20
-58.4582339999999974
11
32.0973600000000019
21
-59.1028639999999967
0
LINE
8
BLACK
6
CONTINUOUS
10
32.0973600000000019
20
-59.1028639999999967
11
36.2213640000000012
21
-59.1000939999999986
0
LINE
8
BLACK
6
CONTINUOUS
10
36.2213640000000012
20
-59.1000939999999986
11
37.8249999999999957
21
-57.4929409999999947
0
LINE
8
BLACK
6
CONTINUOUS
10
37.8249999999999957
20
-57.4929409999999947
11
37.8249999999999957
21
-57.2624999999999957
0
LINE
8
BLACK
6
CONTINUOUS
10
37.8249999999999957
20
-57.2624999999999957
11
37.8430789999999959
21
-57.1716130000000007
0
LINE
8
BLACK
6
CONTINUOUS
10
37.8430789999999959
20
-57.1716130000000007
11
37.8945620000000005
21
-57.0945619999999963
0
LINE
8
BLACK
6
CONTINUOUS
10
37.8945620000000005
20
-57.0945619999999963
11
37.915182999999999
21
-57.0807829999999967
0
LINE
8
BLACK
6
CONTINUOUS
10
37.915182999999999
20
-57.0807829999999967
11
37.9147509999999954
21
-56.3655009999999947
0
LINE
8
BLACK
6
CONTINUOUS
10
37.9147509999999954
20
-56.3655009999999947
11
37.8716129999999964
21
-56.3569209999999998
0
LINE
8
BLACK
6
CONTINUOUS
10
37.8716129999999964
20
-56.3569209999999998
11
37.7945619999999991
21
-56.3054379999999952
0
LINE
8
BLACK
6
CONTINUOUS
10
37.7945619999999991
20
-56.3054379999999952
11
37.7430790000000016
21
-56.2283869999999979
0
LINE
8
BLACK
6
CONTINUOUS
10
37.7430790000000016
20
-56.2283869999999979
11
37.7250000000000014
21
-56.1374999999999957
0
LINE
8
BLACK
6
CONTINUOUS
10
37.7250000000000014
20
-56.1374999999999957
11
37.7250000000000014
21
-55.6624999999999943
0
LINE
8
BLACK
6
CONTINUOUS
10
37.7250000000000014
20
-55.6624999999999943
11
37.7430790000000016
21
-55.5716129999999993
0
LINE
8
BLACK
6
CONTINUOUS
10
37.7430790000000016
20
-55.5716129999999993
11
37.7945619999999991
21
-55.4945619999999948
0
LINE
8
BLACK
6
CONTINUOUS
10
37.7945619999999991
20
-55.4945619999999948
11
37.8716129999999964
21
-55.4430789999999973
0
LINE
8
BLACK
6
CONTINUOUS
10
37.8716129999999964
20
-55.4430789999999973
11
37.9141890000000004
21
-55.4346089999999947
0
LINE
8
BLACK
6
CONTINUOUS
10
37.9141890000000004
20
-55.4346089999999947
11
37.9137239999999949
21
-54.6652969999999954
0
LINE
8
BLACK
6
CONTINUOUS
10
37.9137239999999949
20
-54.6652969999999954
11
37.8716129999999964
21
-54.656920999999997
0
LINE
8
BLACK
6
CONTINUOUS
10
37.8716129999999964
20
-54.656920999999997
11
37.7945619999999991
21
-54.6054379999999995
0
LINE
8
BLACK
6
CONTINUOUS
10
37.7945619999999991
20
-54.6054379999999995
11
37.7430790000000016
21
-54.5283869999999951
0
LINE
8
BLACK
6
CONTINUOUS
10
37.7430790000000016
20
-54.5283869999999951
11
37.7250000000000014
21
-54.4375
0
LINE
8
BLACK
6
CONTINUOUS
10
37.7250000000000014
20
-54.4375
11
37.7250000000000014
21
-53.9624999999999986
0
LINE
8
BLACK
6
CONTINUOUS
10
37.7250000000000014
20
-53.9624999999999986
11
37.7430790000000016
21
-53.8716129999999964
0
LINE
8
BLACK
6
CONTINUOUS
10
37.7430790000000016
20
-53.8716129999999964
11
37.7945619999999991
21
-53.7945619999999991
0
LINE
8
BLACK
6
CONTINUOUS
10
37.7945619999999991
20
-53.7945619999999991
11
37.8716129999999964
21
-53.7430789999999945
0
LINE
8
BLACK
6
CONTINUOUS
10
37.8716129999999964
20
-53.7430789999999945
11
37.9131619999999998
21
-53.7348140000000001
0
LINE
8
BLACK
6
CONTINUOUS
10
37.9131619999999998
20
-53.7348140000000001
11
37.9125079999999954
21
-52.6499999999999986
0
LINE
8
BLACK
6
CONTINUOUS
10
37.9125079999999954
20
-52.6499999999999986
11
37.8999999999999986
21
-52.6499999999999986
0
LINE
8
BLACK
6
CONTINUOUS
10
37.8999999999999986
20
-52.6499999999999986
11
37.8999999999999986
21
-52.0499999999999972
0
LINE
8
BLACK
6
CONTINUOUS
10
37.8999999999999986
20
-52.0499999999999972
11
38.3756039999999956
21
-52.0499999999999972
0
LINE
8
BLACK
6
CONTINUOUS
10
38.3756039999999956
20
-52.0499999999999972
11
38.4160600000000017
21
-52.0266419999999954
0
LINE
8
BLACK
6
CONTINUOUS
10
38.4160600000000017
20
-52.0266419999999954
11
38.5043159999999958
21
-52.0029940000000011
0
LINE
8
BLACK
6
CONTINUOUS
10
38.5043159999999958
20
-52.0029940000000011
11
38.5956839999999985
21
-52.0029940000000011
0
LINE
8
BLACK
6
CONTINUOUS
10
38.5956839999999985
20
-52.0029940000000011
11
38.6839389999999952
21
-52.0266419999999954
0
LINE
8
BLACK
6
CONTINUOUS
10
35.1499999999999986
20
-49.4507489999999947
11
35.6999999999999957
21
-49.4499999999999957
0
LINE
8
BLACK
6
CONTINUOUS
10
35.6999999999999957
20
-49.4499999999999957
11
35.7456839999999971
21
-49.4529939999999968
0
LINE
8
BLACK
6
CONTINUOUS
10
35.7456839999999971
20
-49.4529939999999968
11
35.8339390000000009
21
-49.4766419999999982
0
LINE
8
BLACK
6
CONTINUOUS
10
35.8339390000000009
20
-49.4766419999999982
11
35.9130669999999981
21
-49.5223259999999996
0
LINE
8
BLACK
6
CONTINUOUS
10
35.9130669999999981
20
-49.5223259999999996
11
36.6974869999999953
21
-50.3025129999999976
0
LINE
8
BLACK
6
CONTINUOUS
10
36.6974869999999953
20
-50.3025129999999976
11
36.7276740000000004
21
-50.3369329999999948
0
LINE
8
BLACK
6
CONTINUOUS
10
36.7276740000000004
20
-50.3369329999999948
11
36.7733580000000018
21
-50.4160599999999945
0
LINE
8
BLACK
6
CONTINUOUS
10
36.7733580000000018
20
-50.4160599999999945
11
36.7733580000000018
21
-50.4160609999999991
0
LINE
8
BLACK
6
CONTINUOUS
10
36.7733580000000018
20
-50.4160609999999991
11
36.7970059999999961
21
-50.5043159999999958
0
LINE
8
BLACK
6
CONTINUOUS
10
36.7970059999999961
20
-50.5043159999999958
11
36.798997
21
-51.0999999999999943
0
LINE
8
BLACK
6
CONTINUOUS
10
36.798997
20
-51.0999999999999943
11
37.1000000000000014
21
-51.0999999999999943
0
LINE
8
BLACK
6
CONTINUOUS
10
37.1000000000000014
20
-51.0999999999999943
11
37.1000000000000014
21
-51.6999999999999957
0
LINE
8
BLACK
6
CONTINUOUS
10
37.1000000000000014
20
-51.6999999999999957
11
36.884687999999997
21
-51.6999999999999957
0
LINE
8
BLACK
6
CONTINUOUS
10
36.884687999999997
20
-51.6999999999999957
11
36.8861179999999962
21
-53.7346699999999942
0
LINE
8
BLACK
6
CONTINUOUS
10
36.8861179999999962
20
-53.7346699999999942
11
36.9283870000000007
21
-53.7430789999999945
0
LINE
8
BLACK
6
CONTINUOUS
10
36.9283870000000007
20
-53.7430789999999945
11
37.0054379999999981
21
-53.7945619999999991
0
LINE
8
BLACK
6
CONTINUOUS
10
37.0054379999999981
20
-53.7945619999999991
11
37.0569209999999956
21
-53.8716129999999964
0
LINE
8
BLACK
6
CONTINUOUS
10
37.0569209999999956
20
-53.8716129999999964
11
37.0749999999999957
21
-53.9624999999999986
0
LINE
8
BLACK
6
CONTINUOUS
10
37.0749999999999957
20
-53.9624999999999986
11
37.0749999999999957
21
-54.4375
0
LINE
8
BLACK
6
CONTINUOUS
10
37.0749999999999957
20
-54.4375
11
37.0569209999999956
21
-54.5283869999999951
0
LINE
8
BLACK
6
CONTINUOUS
10
37.0569209999999956
20
-54.5283869999999951
11
37.0054379999999981
21
-54.6054379999999995
0
LINE
8
BLACK
6
CONTINUOUS
10
37.0054379999999981
20
-54.6054379999999995
11
36.9283870000000007
21
-54.656920999999997
0
LINE
8
BLACK
6
CONTINUOUS
10
36.9283870000000007
20
-54.656920999999997
11
36.8867720000000006
21
-54.6651979999999966
0
LINE
8
BLACK
6
CONTINUOUS
10
36.8867720000000006
20
-54.6651979999999966
11
36.8873129999999989
21
-55.4349080000000001
0
LINE
8
BLACK
6
CONTINUOUS
10
36.8873129999999989
20
-55.4349080000000001
11
36.9283870000000007
21
-55.4430789999999973
0
LINE
8
BLACK
6
CONTINUOUS
10
36.9283870000000007
20
-55.4430789999999973
11
37.0054379999999981
21
-55.4945619999999948
0
LINE
8
BLACK
6
CONTINUOUS
10
37.0054379999999981
20
-55.4945619999999948
11
37.0569209999999956
21
-55.5716129999999993
0
LINE
8
BLACK
6
CONTINUOUS
10
37.0569209999999956
20
-55.5716129999999993
11
37.0749999999999957
21
-55.6624999999999943
0
LINE
8
BLACK
6
CONTINUOUS
10
37.0749999999999957
20
-55.6624999999999943
11
37.0749999999999957
21
-56.1374999999999957
0
LINE
8
BLACK
6
CONTINUOUS
10
37.0749999999999957
20
-56.1374999999999957
11
37.0569209999999956
21
-56.2283869999999979
0
LINE
8
BLACK
6
CONTINUOUS
10
37.0569209999999956
20
-56.2283869999999979
11
37.0054379999999981
21
-56.3054379999999952
0
LINE
8
BLACK
6
CONTINUOUS
10
37.0054379999999981
20
-56.3054379999999952
11
36.9283870000000007
21
-56.3569209999999998
0
LINE
8
BLACK
6
CONTINUOUS
10
36.9283870000000007
20
-56.3569209999999998
11
36.8854649999999964
21
-56.3654579999999967
0
LINE
8
BLACK
6
CONTINUOUS
10
36.8854649999999964
20
-56.3654579999999967
11
36.8868089999999995
21
-57.0821149999999946
0
LINE
8
BLACK
6
CONTINUOUS
10
36.8868089999999995
20
-57.0821149999999946
11
36.9054379999999966
21
-57.0945619999999963
0
LINE
8
BLACK
6
CONTINUOUS
10
36.9054379999999966
20
-57.0945619999999963
11
36.9569210000000012
21
-57.1716130000000007
0
LINE
8
BLACK
6
CONTINUOUS
10
36.9569210000000012
20
-57.1716130000000007
11
36.9750000000000014
21
-57.2624999999999957
0
LINE
8
BLACK
6
CONTINUOUS
10
36.9750000000000014
20
-57.2624999999999957
11
36.9750000000000014
21
-57.7374999999999972
0
LINE
8
BLACK
6
CONTINUOUS
10
36.9750000000000014
20
-57.7374999999999972
11
36.9569210000000012
21
-57.8283869999999993
0
LINE
8
BLACK
6
CONTINUOUS
10
36.9569210000000012
20
-57.8283869999999993
11
36.9054379999999966
21
-57.9054379999999966
0
LINE
8
BLACK
6
CONTINUOUS
10
36.9054379999999966
20
-57.9054379999999966
11
36.8283869999999993
21
-57.9569209999999941
0
LINE
8
BLACK
6
CONTINUOUS
10
36.8283869999999993
20
-57.9569209999999941
11
36.7374999999999972
21
-57.9749999999999943
0
LINE
8
BLACK
6
CONTINUOUS
10
36.7374999999999972
20
-57.9749999999999943
11
36.2374999999999972
21
-57.9749999999999943
0
LINE
8
BLACK
6
CONTINUOUS
10
36.2374999999999972
20
-57.9749999999999943
11
36.146612999999995
21
-57.9569209999999941
0
LINE
8
BLACK
6
CONTINUOUS
10
36.146612999999995
20
-57.9569209999999941
11
36.0695619999999977
21
-57.9054379999999966
0
LINE
8
BLACK
6
CONTINUOUS
10
36.0695619999999977
20
-57.9054379999999966
11
36.0308659999999961
21
-57.8475249999999974
0
LINE
8
BLACK
6
CONTINUOUS
10
36.0308659999999961
20
-57.8475249999999974
11
34.4676879999999954
21
-57.849142999999998
0
LINE
8
BLACK
6
CONTINUOUS
10
34.4676879999999954
20
-57.849142999999998
11
34.4621909999999971
21
-57.8660629999999969
0
LINE
8
BLACK
6
CONTINUOUS
10
34.4621909999999971
20
-57.8660629999999969
11
34.368114999999996
21
-58.029007
0
LINE
8
BLACK
6
CONTINUOUS
10
34.368114999999996
20
-58.029007
11
34.2422180000000012
21
-58.1688299999999998
0
LINE
8
BLACK
6
CONTINUOUS
10
34.2422180000000012
20
-58.1688299999999998
11
34.0899999999999963
21
-58.2794229999999942
0
LINE
8
BLACK
6
CONTINUOUS
10
34.0899999999999963
20
-58.2794229999999942
11
33.9181150000000002
21
-58.3559509999999975
0
LINE
8
BLACK
6
CONTINUOUS
10
33.9181150000000002
20
-58.3559509999999975
11
33.7340760000000017
21
-58.3950699999999969
0
LINE
8
BLACK
6
CONTINUOUS
10
33.7340760000000017
20
-58.3950699999999969
11
33.5459239999999994
21
-58.3950699999999969
0
LINE
8
BLACK
6
CONTINUOUS
10
33.5459239999999994
20
-58.3950699999999969
11
33.3618850000000009
21
-58.3559509999999975
0
LINE
8
BLACK
6
CONTINUOUS
10
33.3618850000000009
20
-58.3559509999999975
11
33.1899999999999977
21
-58.2794229999999942
0
LINE
8
BLACK
6
CONTINUOUS
10
33.1899999999999977
20
-58.2794229999999942
11
33.037782
21
-58.1688299999999998
0
LINE
8
BLACK
6
CONTINUOUS
10
33.037782
20
-58.1688299999999998
11
32.9118849999999981
21
-58.029007
0
LINE
8
BLACK
6
CONTINUOUS
10
32.9118849999999981
20
-58.029007
11
32.8178089999999969
21
-57.8660629999999969
0
LINE
8
BLACK
6
CONTINUOUS
10
32.8178089999999969
20
-57.8660629999999969
11
32.7596670000000003
21
-57.6871209999999977
0
LINE
8
BLACK
6
CONTINUOUS
10
32.7596670000000003
20
-57.6871209999999977
11
32.740000000000002
21
-57.5
0
LINE
8
BLACK
6
CONTINUOUS
10
32.740000000000002
20
-57.5
11
32.7596670000000003
21
-57.3128789999999952
0
LINE
8
BLACK
6
CONTINUOUS
10
32.7596670000000003
20
-57.3128789999999952
11
32.8178089999999969
21
-57.133936999999996
0
LINE
8
BLACK
6
CONTINUOUS
10
32.8178089999999969
20
-57.133936999999996
11
32.9118849999999981
21
-56.970993
0
LINE
8
BLACK
6
CONTINUOUS
10
32.9118849999999981
20
-56.970993
11
33.037782
21
-56.8311700000000002
0
LINE
8
BLACK
6
CONTINUOUS
10
33.037782
20
-56.8311700000000002
11
33.1899999999999977
21
-56.7205769999999987
0
LINE
8
BLACK
6
CONTINUOUS
10
33.1899999999999977
20
-56.7205769999999987
11
33.3618850000000009
21
-56.6440489999999954
0
LINE
8
BLACK
6
CONTINUOUS
10
33.3618850000000009
20
-56.6440489999999954
11
33.5459239999999994
21
-56.604929999999996
0
LINE
8
BLACK
6
CONTINUOUS
10
33.5459239999999994
20
-56.604929999999996
11
33.7340760000000017
21
-56.604929999999996
0
LINE
8
BLACK
6
CONTINUOUS
10
33.7340760000000017
20
-56.604929999999996
11
33.9181150000000002
21
-56.6440489999999954
0
LINE
8
BLACK
6
CONTINUOUS
10
33.9181150000000002
20
-56.6440489999999954
11
34.0899999999999963
21
-56.7205769999999987
0
LINE
8
BLACK
6
CONTINUOUS
10
34.0899999999999963
20
-56.7205769999999987
11
34.2422180000000012
21
-56.8311700000000002
0
LINE
8
BLACK
6
CONTINUOUS
10
34.2422180000000012
20
-56.8311700000000002
11
34.368114999999996
21
-56.970993
0
LINE
8
BLACK
6
CONTINUOUS
10
34.368114999999996
20
-56.970993
11
34.4621909999999971
21
-57.133936999999996
0
LINE
8
BLACK
6
CONTINUOUS
10
34.4621909999999971
20
-57.133936999999996
11
34.4680889999999991
21
-57.1520889999999966
0
LINE
8
BLACK
6
CONTINUOUS
10
34.4680889999999991
20
-57.1520889999999966
11
36.0322049999999976
21
-57.150470999999996
0
LINE
8
BLACK
6
CONTINUOUS
10
36.0322049999999976
20
-57.150470999999996
11
36.0695619999999977
21
-57.0945619999999963
0
LINE
8
BLACK
6
CONTINUOUS
10
36.0695619999999977
20
-57.0945619999999963
11
36.146612999999995
21
-57.0430789999999988
0
LINE
8
BLACK
6
CONTINUOUS
10
36.146612999999995
20
-57.0430789999999988
11
36.189627999999999
21
-57.0345219999999955
0
LINE
8
BLACK
6
CONTINUOUS
10
36.189627999999999
20
-57.0345219999999955
11
36.1883720000000011
21
-56.3652269999999973
0
LINE
8
BLACK
6
CONTINUOUS
10
36.1883720000000011
20
-56.3652269999999973
11
36.146612999999995
21
-56.3569209999999998
0
LINE
8
BLACK
6
CONTINUOUS
10
36.146612999999995
20
-56.3569209999999998
11
36.0695619999999977
21
-56.3054379999999952
0
LINE
8
BLACK
6
CONTINUOUS
10
36.0695619999999977
20
-56.3054379999999952
11
36.0180790000000002
21
-56.2283869999999979
0
LINE
8
BLACK
6
CONTINUOUS
10
36.0180790000000002
20
-56.2283869999999979
11
36.
21
-56.1374999999999957
0
LINE
8
BLACK
6
CONTINUOUS
10
36.
20
-56.1374999999999957
11
36.
21
-55.6624999999999943
0
LINE
8
BLACK
6
CONTINUOUS
10
36.
20
-55.6624999999999943
11
36.0180790000000002
21
-55.5716129999999993
0
LINE
8
BLACK
6
CONTINUOUS
10
36.0180790000000002
20
-55.5716129999999993
11
36.0695619999999977
21
-55.4945619999999948
0
LINE
8
BLACK
6
CONTINUOUS
10
36.0695619999999977
20
-55.4945619999999948
11
36.146612999999995
21
-55.4430789999999973
0
LINE
8
BLACK
6
CONTINUOUS
10
36.146612999999995
20
-55.4430789999999973
11
36.1902749999999997
21
-55.434393
0
LINE
8
BLACK
6
CONTINUOUS
10
36.1902749999999997
20
-55.434393
11
36.1897340000000014
21
-54.6654979999999995
0
LINE
8
BLACK
6
CONTINUOUS
10
36.1897340000000014
20
-54.6654979999999995
11
36.146612999999995
21
-54.656920999999997
0
LINE
8
BLACK
6
CONTINUOUS
10
36.146612999999995
20
-54.656920999999997
11
36.0695619999999977
21
-54.6054379999999995
0
LINE
8
BLACK
6
CONTINUOUS
10
36.0695619999999977
20
-54.6054379999999995
11
36.0180790000000002
21
-54.5283869999999951
0
LINE
8
BLACK
6
CONTINUOUS
10
36.0180790000000002
20
-54.5283869999999951
11
36.
21
-54.4375
0
LINE
8
BLACK
6
CONTINUOUS
10
36.
20
-54.4375
11
36.
21
-53.9624999999999986
0
LINE
8
BLACK
6
CONTINUOUS
10
36.
20
-53.9624999999999986
11
36.0180790000000002
21
-53.8716129999999964
0
LINE
8
BLACK
6
CONTINUOUS
10
36.0180790000000002
20
-53.8716129999999964
11
36.0695619999999977
21
-53.7945619999999991
0
LINE
8
BLACK
6
CONTINUOUS
10
36.0695619999999977
20
-53.7945619999999991
11
36.146612999999995
21
-53.7430789999999945
0
LINE
8
BLACK
6
CONTINUOUS
10
36.146612999999995
20
-53.7430789999999945
11
36.1890789999999996
21
-53.7346310000000003
0
LINE
8
BLACK
6
CONTINUOUS
10
36.1890789999999996
20
-53.7346310000000003
11
36.1876490000000004
21
-51.6999999999999957
0
LINE
8
BLACK
6
CONTINUOUS
10
36.1876490000000004
20
-51.6999999999999957
11
35.7999999999999972
21
-51.6999999999999957
0
LINE
8
BLACK
6
CONTINUOUS
10
35.7999999999999972
20
-51.6999999999999957
11
35.7999999999999972
21
-51.0999999999999943
0
LINE
8
BLACK
6
CONTINUOUS
10
35.7999999999999972
20
-51.0999999999999943
11
36.1018380000000008
21
-51.0999999999999943
0
LINE
8
BLACK
6
CONTINUOUS
10
36.1018380000000008
20
-51.0999999999999943
11
36.1004739999999984
21
-50.691950999999996
0
LINE
8
BLACK
6
CONTINUOUS
10
36.1004739999999984
20
-50.691950999999996
11
35.5528359999999992
21
-50.1472679999999968
0
LINE
8
BLACK
6
CONTINUOUS
10
35.5528359999999992
20
-50.1472679999999968
11
35.1499999999999986
21
-50.1478180000000009
0
LINE
8
BLACK
6
CONTINUOUS
10
35.1499999999999986
20
-50.1478180000000009
11
35.1499999999999986
21
-50.3999999999999986
0
LINE
8
BLACK
6
CONTINUOUS
10
35.1499999999999986
20
-50.3999999999999986
11
31.9499999999999993
21
-50.3999999999999986
0
LINE
8
BLACK
6
CONTINUOUS
10
31.9499999999999993
20
-50.3999999999999986
11
31.9499999999999993
21
-49.1999999999999957
0
LINE
8
BLACK
6
CONTINUOUS
10
31.9499999999999993
20
-49.1999999999999957
11
35.1499999999999986
21
-49.1999999999999957
0
LINE
8
BLACK
6
CONTINUOUS
10
35.1499999999999986
20
-49.1999999999999957
11
35.1499999999999986
21
-49.4507489999999947
0
LINE
8
BLACK
6
CONTINUOUS
10
40.2956840000000014
20
-47.6529939999999996
11
40.383938999999998
21
-47.6766420000000011
0
LINE
8
BLACK
6
CONTINUOUS
10
40.383938999999998
20
-47.6766420000000011
11
40.4630669999999952
21
-47.7223259999999954
0
LINE
8
BLACK
6
CONTINUOUS
10
40.4630669999999952
20
-47.7223259999999954
11
42.0442019999999985
21
-49.2999999999999972
0
LINE
8
BLACK
6
CONTINUOUS
10
42.0442019999999985
20
-49.2999999999999972
11
43.75
21
-49.2999999999999972
0
LINE
8
BLACK
6
CONTINUOUS
10
43.75
20
-49.2999999999999972
11
43.75
21
-49.5510189999999966
0
LINE
8
BLACK
6
CONTINUOUS
10
43.75
20
-49.5510189999999966
11
44.6000000000000014
21
-49.5499999999999972
0
LINE
8
BLACK
6
CONTINUOUS
10
44.6000000000000014
20
-49.5499999999999972
11
44.6456839999999957
21
-49.5529939999999982
0
LINE
8
BLACK
6
CONTINUOUS
10
44.6456839999999957
20
-49.5529939999999982
11
44.7339389999999995
21
-49.5766419999999997
0
LINE
8
BLACK
6
CONTINUOUS
10
44.7339389999999995
20
-49.5766419999999997
11
44.8130669999999967
21
-49.622326000000001
0
LINE
8
BLACK
6
CONTINUOUS
10
44.8130669999999967
20
-49.622326000000001
11
45.3474879999999985
21
-50.152512999999999
0
LINE
8
BLACK
6
CONTINUOUS
10
45.3474879999999985
20
-50.152512999999999
11
45.377673999999999
21
-50.1869329999999962
0
LINE
8
BLACK
6
CONTINUOUS
10
45.377673999999999
20
-50.1869329999999962
11
45.4233580000000003
21
-50.2660610000000005
0
LINE
8
BLACK
6
CONTINUOUS
10
45.4233580000000003
20
-50.2660610000000005
11
45.4470059999999947
21
-50.3543159999999972
0
LINE
8
BLACK
6
CONTINUOUS
10
45.4470059999999947
20
-50.3543159999999972
11
45.4499999999999957
21
-52.2999999999999972
0
LINE
8
BLACK
6
CONTINUOUS
10
45.4499999999999957
20
-52.2999999999999972
11
45.4470059999999947
21
-52.3456839999999985
0
LINE
8
BLACK
6
CONTINUOUS
10
45.4470059999999947
20
-52.3456839999999985
11
45.4233580000000003
21
-52.4339389999999952
0
LINE
8
BLACK
6
CONTINUOUS
10
45.4233580000000003
20
-52.4339389999999952
11
45.377673999999999
21
-52.5130669999999995
0
LINE
8
BLACK
6
CONTINUOUS
10
45.377673999999999
20
-52.5130669999999995
11
42.4606390000000005
21
-55.4341930000000005
0
LINE
8
BLACK
6
CONTINUOUS
10
42.4606390000000005
20
-55.4341930000000005
11
42.4607199999999949
21
-55.4479789999999966
0
LINE
8
BLACK
6
CONTINUOUS
10
42.4607199999999949
20
-55.4479789999999966
11
42.5304379999999966
21
-55.4945619999999948
0
LINE
8
BLACK
6
CONTINUOUS
10
42.5304379999999966
20
-55.4945619999999948
11
42.5819210000000012
21
-55.5716129999999993
0
LINE
8
BLACK
6
CONTINUOUS
10
42.5819210000000012
20
-55.5716129999999993
11
42.6000000000000014
21
-55.6624999999999943
0
LINE
8
BLACK
6
CONTINUOUS
10
42.6000000000000014
20
-55.6624999999999943
11
42.6000000000000014
21
-56.1374999999999957
0
LINE
8
BLACK
6
CONTINUOUS
10
42.6000000000000014
20
-56.1374999999999957
11
42.5819210000000012
21
-56.2283869999999979
0
LINE
8
BLACK
6
CONTINUOUS
10
42.5819210000000012
20
-56.2283869999999979
11
42.5304379999999966
21
-56.3054379999999952
0
LINE
8
BLACK
6
CONTINUOUS
10
42.5304379999999966
20
-56.3054379999999952
11
42.4533869999999993
21
-56.3569209999999998
0
LINE
8
BLACK
6
CONTINUOUS
10
42.4533869999999993
20
-56.3569209999999998
11
42.3624999999999972
21
-56.375
0
LINE
8
BLACK
6
CONTINUOUS
10
42.3624999999999972
20
-56.375
11
41.8624999999999972
21
-56.375
0
LINE
8
BLACK
6
CONTINUOUS
10
41.8624999999999972
20
-56.375
11
41.771612999999995
21
-56.3569209999999998
0
LINE
8
BLACK
6
CONTINUOUS
10
41.771612999999995
20
-56.3569209999999998
11
41.6945619999999977
21
-56.3054379999999952
0
LINE
8
BLACK
6
CONTINUOUS
10
41.6945619999999977
20
-56.3054379999999952
11
41.6430790000000002
21
-56.2283869999999979
0
LINE
8
BLACK
6
CONTINUOUS
10
41.6430790000000002
20
-56.2283869999999979
11
41.625
21
-56.1374999999999957
0
LINE
8
BLACK
6
CONTINUOUS
10
41.625
20
-56.1374999999999957
11
41.625
21
-55.6624999999999943
0
LINE
8
BLACK
6
CONTINUOUS
10
41.625
20
-55.6624999999999943
11
41.6430790000000002
21
-55.5716129999999993
0
LINE
8
BLACK
6
CONTINUOUS
10
41.6430790000000002
20
-55.5716129999999993
11
41.6945619999999977
21
-55.4945619999999948
0
LINE
8
BLACK
6
CONTINUOUS
10
41.6945619999999977
20
-55.4945619999999948
11
41.7634479999999968
21
-55.4485339999999951
0
LINE
8
BLACK
6
CONTINUOUS
10
41.7634479999999968
20
-55.4485339999999951
11
41.7624999999999957
21
-55.2874999999999943
0
LINE
8
BLACK
6
CONTINUOUS
10
41.7624999999999957
20
-55.2874999999999943
11
41.7654939999999968
21
-55.241816
0
LINE
8
BLACK
6
CONTINUOUS
10
41.7654939999999968
20
-55.241816
11
41.7891419999999982
21
-55.1535609999999963
0
LINE
8
BLACK
6
CONTINUOUS
10
41.7891419999999982
20
-55.1535609999999963
11
41.8348259999999996
21
-55.0744329999999991
0
LINE
8
BLACK
6
CONTINUOUS
10
41.8348259999999996
20
-55.0744329999999991
11
44.7526960000000003
21
-52.1524689999999964
0
LINE
8
BLACK
6
CONTINUOUS
10
44.7526960000000003
20
-52.1524689999999964
11
44.7502179999999967
21
-50.542041999999995
0
LINE
8
BLACK
6
CONTINUOUS
10
44.7502179999999967
20
-50.542041999999995
11
44.4530589999999961
21
-50.2472369999999984
0
LINE
8
BLACK
6
CONTINUOUS
10
44.4530589999999961
20
-50.2472369999999984
11
43.75
21
-50.2480799999999945
0
LINE
8
BLACK
6
CONTINUOUS
10
43.75
20
-50.2480799999999945
11
43.75
21
-50.5
0
LINE
8
BLACK
6
CONTINUOUS
10
43.75
20
-50.5
11
40.5499999999999972
21
-50.5
0
LINE
8
BLACK
6
CONTINUOUS
10
40.5499999999999972
20
-50.5
11
40.5499999999999972
21
-49.2999999999999972
0
LINE
8
BLACK
6
CONTINUOUS
10
40.5499999999999972
20
-49.2999999999999972
11
41.0573339999999973
21
-49.2999999999999972
0
LINE
8
BLACK
6
CONTINUOUS
10
41.0573339999999973
20
-49.2999999999999972
11
40.1023190000000014
21
-48.3470739999999992
0
LINE
8
BLACK
6
CONTINUOUS
10
40.1023190000000014
20
-48.3470739999999992
11
32.041167999999999
21
-48.3499489999999952
0
LINE
8
BLACK
6
CONTINUOUS
10
32.041167999999999
20
-48.3499489999999952
11
30.7473569999999974
21
-49.6473399999999998
0
LINE
8
BLACK
6
CONTINUOUS
10
30.7473569999999974
20
-49.6473399999999998
11
30.7497419999999977
21
-50.9582130000000006
0
LINE
8
BLACK
6
CONTINUOUS
10
30.7497419999999977
20
-50.9582130000000006
11
31.2471589999999999
21
-51.4527619999999999
0
LINE
8
BLACK
6
CONTINUOUS
10
31.2471589999999999
20
-51.4527619999999999
11
31.9499999999999993
21
-51.4519189999999966
0
LINE
8
BLACK
6
CONTINUOUS
10
31.9499999999999993
20
-51.4519189999999966
11
31.9499999999999993
21
-51.1999999999999957
0
LINE
8
BLACK
6
CONTINUOUS
10
31.9499999999999993
20
-51.1999999999999957
11
35.1499999999999986
21
-51.1999999999999957
0
LINE
8
BLACK
6
CONTINUOUS
10
35.1499999999999986
20
-51.1999999999999957
11
35.1499999999999986
21
-52.3999999999999986
0
LINE
8
BLACK
6
CONTINUOUS
10
35.1499999999999986
20
-52.3999999999999986
11
31.9499999999999993
21
-52.3999999999999986
0
LINE
8
BLACK
6
CONTINUOUS
10
31.9499999999999993
20
-52.3999999999999986
11
31.9499999999999993
21
-52.1489799999999946
0
LINE
8
BLACK
6
CONTINUOUS
10
31.9499999999999993
20
-52.1489799999999946
11
31.0999999999999979
21
-52.1499999999999986
0
LINE
8
BLACK
6
CONTINUOUS
10
31.0999999999999979
20
-52.1499999999999986
11
31.054316
21
-52.1470059999999975
0
LINE
8
BLACK
6
CONTINUOUS
10
31.054316
20
-52.1470059999999975
11
30.9660609999999998
21
-52.1233579999999961
0
LINE
8
BLACK
6
CONTINUOUS
10
30.9660609999999998
20
-52.1233579999999961
11
30.8869329999999991
21
-52.0776739999999947
0
LINE
8
BLACK
6
CONTINUOUS
10
30.8869329999999991
20
-52.0776739999999947
11
30.8867589999999979
21
-52.0775000000000006
0
LINE
8
BLACK
6
CONTINUOUS
10
30.8867589999999979
20
-52.0775000000000006
11
30.152512999999999
21
-51.347487000000001
0
LINE
8
BLACK
6
CONTINUOUS
10
30.152512999999999
20
-51.347487000000001
11
30.1223259999999975
21
-51.3130669999999967
0
LINE
8
BLACK
6
CONTINUOUS
10
30.1223259999999975
20
-51.3130669999999967
11
30.0766419999999997
21
-51.2339389999999995
0
LINE
8
BLACK
6
CONTINUOUS
10
30.0766419999999997
20
-51.2339389999999995
11
30.0529939999999982
21
-51.1456839999999957
0
LINE
8
BLACK
6
CONTINUOUS
10
30.0529939999999982
20
-51.1456839999999957
11
30.0499999999999972
21
-49.5
0
LINE
8
BLACK
6
CONTINUOUS
10
30.0499999999999972
20
-49.5
11
30.0529939999999982
21
-49.4543159999999986
0
LINE
8
BLACK
6
CONTINUOUS
10
30.0529939999999982
20
-49.4543159999999986
11
30.0766419999999997
21
-49.3660609999999949
0
LINE
8
BLACK
6
CONTINUOUS
10
30.0766419999999997
20
-49.3660609999999949
11
30.1223259999999975
21
-49.2869329999999977
0
LINE
8
BLACK
6
CONTINUOUS
10
30.1223259999999975
20
-49.2869329999999977
11
31.652511999999998
21
-47.7525130000000004
0
LINE
8
BLACK
6
CONTINUOUS
10
31.652511999999998
20
-47.7525130000000004
11
31.6869329999999998
21
-47.7223259999999954
0
LINE
8
BLACK
6
CONTINUOUS
10
31.6869329999999998
20
-47.7223259999999954
11
31.7660599999999995
21
-47.6766420000000011
0
LINE
8
BLACK
6
CONTINUOUS
10
31.7660599999999995
20
-47.6766420000000011
11
31.8543159999999972
21
-47.6529939999999996
0
LINE
8
BLACK
6
CONTINUOUS
10
31.8543159999999972
20
-47.6529939999999996
11
40.25
21
-47.6499999999999986
0
LINE
8
BLACK
6
CONTINUOUS
10
40.25
20
-47.6499999999999986
11
40.2956840000000014
21
-47.6529939999999996
0
LINE
8
BLACK
6
CONTINUOUS
10
38.8956839999999957
20
-50.1029939999999954
11
38.9839389999999995
21
-50.1266419999999968
0
LINE
8
BLACK
6
CONTINUOUS
10
38.9839389999999995
20
-50.1266419999999968
11
39.0243970000000004
21
-50.1499999999999986
0
LINE
8
BLACK
6
CONTINUOUS
10
39.0243970000000004
20
-50.1499999999999986
11
39.1999999999999957
21
-50.1499999999999986
0
LINE
8
BLACK
6
CONTINUOUS
10
39.1999999999999957
20
-50.1499999999999986
11
39.1999999999999957
21
-50.3088679999999968
0
LINE
8
BLACK
6
CONTINUOUS
10
39.1999999999999957
20
-50.3088679999999968
11
40.4473780000000005
21
-51.5526890000000009
0
LINE
8
BLACK
6
CONTINUOUS
10
40.4473780000000005
20
-51.5526890000000009
11
40.5499999999999972
21
-51.5525269999999978
0
LINE
8
BLACK
6
CONTINUOUS
10
40.5499999999999972
20
-51.5525269999999978
11
40.5499999999999972
21
-51.2999999999999972
0
LINE
8
BLACK
6
CONTINUOUS
10
40.5499999999999972
20
-51.2999999999999972
11
43.75
21
-51.2999999999999972
0
LINE
8
BLACK
6
CONTINUOUS
10
43.75
20
-51.2999999999999972
11
43.75
21
-52.5
0
LINE
8
BLACK
6
CONTINUOUS
10
43.75
20
-52.5
11
40.5499999999999972
21
-52.5
0
LINE
8
BLACK
6
CONTINUOUS
10
40.5499999999999972
20
-52.5
11
40.5499999999999972
21
-52.2496049999999954
0
LINE
8
BLACK
6
CONTINUOUS
10
40.5499999999999972
20
-52.2496049999999954
11
40.2999999999999972
21
-52.25
0
LINE
8
BLACK
6
CONTINUOUS
10
40.2999999999999972
20
-52.25
11
40.2543310000000005
21
-52.2470069999999964
0
LINE
8
BLACK
6
CONTINUOUS
10
40.2543310000000005
20
-52.2470069999999964
11
40.2543159999999958
21
-52.2470069999999964
0
LINE
8
BLACK
6
CONTINUOUS
10
40.2543159999999958
20
-52.2470069999999964
11
40.1660609999999991
21
-52.2233579999999975
0
LINE
8
BLACK
6
CONTINUOUS
10
40.1660609999999991
20
-52.2233579999999975
11
40.0869329999999948
21
-52.1776739999999961
0
LINE
8
BLACK
6
CONTINUOUS
10
40.0869329999999948
20
-52.1776739999999961
11
38.7039809999999989
21
-50.7986659999999972
0
LINE
8
BLACK
6
CONTINUOUS
10
38.7039809999999989
20
-50.7986659999999972
11
38.5499999999999972
21
-50.7999999999999972
0
LINE
8
BLACK
6
CONTINUOUS
10
38.5499999999999972
20
-50.7999999999999972
11
38.5043159999999958
21
-50.7970059999999961
0
LINE
8
BLACK
6
CONTINUOUS
10
38.5043159999999958
20
-50.7970059999999961
11
38.4160609999999991
21
-50.7733579999999947
0
LINE
8
BLACK
6
CONTINUOUS
10
38.4160609999999991
20
-50.7733579999999947
11
38.3756029999999981
21
-50.75
0
LINE
8
BLACK
6
CONTINUOUS
10
38.3756029999999981
20
-50.75
11
37.8999999999999986
21
-50.75
0
LINE
8
BLACK
6
CONTINUOUS
10
37.8999999999999986
20
-50.75
11
37.8999999999999986
21
-50.1499999999999986
0
LINE
8
BLACK
6
CONTINUOUS
10
37.8999999999999986
20
-50.1499999999999986
11
38.3756029999999981
21
-50.1499999999999986
0
LINE
8
BLACK
6
CONTINUOUS
10
38.3756029999999981
20
-50.1499999999999986
11
38.4160609999999991
21
-50.1266419999999968
0
LINE
8
BLACK
6
CONTINUOUS
10
38.4160609999999991
20
-50.1266419999999968
11
38.5043159999999958
21
-50.1029939999999954
0
LINE
8
BLACK
6
CONTINUOUS
10
38.5043159999999958
20
-50.1029939999999954
11
38.8500000000000014
21
-50.0999999999999943
0
LINE
8
BLACK
6
CONTINUOUS
10
38.8500000000000014
20
-50.0999999999999943
11
38.8956839999999957
21
-50.1029939999999954
0
LINE
8
BLACK
6
CONTINUOUS
10
51.2425390000000007
20
-44.6201849999999993
11
51.2882940000000005
21
-44.6729890000000012
0
LINE
8
BLACK
6
CONTINUOUS
10
51.2882940000000005
20
-44.6729890000000012
11
51.2994999999999948
21
-44.724499999999999
0
LINE
8
BLACK
6
CONTINUOUS
10
51.2994999999999948
20
-44.724499999999999
11
51.2994999999999948
21
-61.3754999999999953
0
LINE
8
BLACK
6
CONTINUOUS
10
51.2994999999999948
20
-61.3754999999999953
11
51.2798149999999993
21
-61.4425389999999965
0
LINE
8
BLACK
6
CONTINUOUS
10
51.2798149999999993
20
-61.4425389999999965
11
51.2270109999999974
21
-61.4882939999999962
0
LINE
8
BLACK
6
CONTINUOUS
10
51.2270109999999974
20
-61.4882939999999962
11
51.1754999999999995
21
-61.4994999999999976
0
LINE
8
BLACK
6
CONTINUOUS
10
51.1754999999999995
20
-61.4994999999999976
11
24.4244999999999983
21
-61.4994999999999976
0
LINE
8
BLACK
6
CONTINUOUS
10
24.4244999999999983
20
-61.4994999999999976
11
24.3574609999999971
21
-61.479814999999995
0
LINE
8
BLACK
6
CONTINUOUS
10
24.3574609999999971
20
-61.479814999999995
11
24.3117059999999974
21
-61.4270110000000003
0
LINE
8
BLACK
6
CONTINUOUS
10
24.3117059999999974
20
-61.4270110000000003
11
24.3004999999999995
21
-61.3754999999999953
0
LINE
8
BLACK
6
CONTINUOUS
10
24.3004999999999995
20
-61.3754999999999953
11
24.3004999999999995
21
-55.2478440000000006
0
LINE
8
BLACK
6
CONTINUOUS
10
24.3004999999999995
20
-55.2478440000000006
11
24.3004999999999995
21
-53.4521549999999976
0
LINE
8
BLACK
6
CONTINUOUS
10
24.3004999999999995
20
-53.4521549999999976
11
24.3004999999999995
21
-48.1478439999999992
0
LINE
8
BLACK
6
CONTINUOUS
10
24.3004999999999995
20
-48.1478439999999992
11
24.3004999999999995
21
-46.3521549999999962
0
LINE
8
BLACK
6
CONTINUOUS
10
24.3004999999999995
20
-46.3521549999999962
11
24.3004999999999995
21
-44.724499999999999
0
LINE
8
BLACK
6
CONTINUOUS
10
24.3004999999999995
20
-44.724499999999999
11
24.3201849999999986
21
-44.6574609999999979
0
LINE
8
BLACK
6
CONTINUOUS
10
24.3201849999999986
20
-44.6574609999999979
11
24.3729890000000005
21
-44.6117059999999981
0
LINE
8
BLACK
6
CONTINUOUS
10
24.3729890000000005
20
-44.6117059999999981
11
24.4244999999999983
21
-44.6004999999999967
0
LINE
8
BLACK
6
CONTINUOUS
10
24.4244999999999983
20
-44.6004999999999967
11
51.1754999999999995
21
-44.6004999999999967
0
LINE
8
BLACK
6
CONTINUOUS
10
51.1754999999999995
20
-44.6004999999999967
11
51.2425390000000007
21
-44.6201849999999993
0
LINE
8
BLACK
6
CONTINUOUS
10
29.0282889999999973
20
-48.5999999999999943
11
29.0953279999999985
21
-48.6196849999999969
0
LINE
8
BLACK
6
CONTINUOUS
10
29.0953279999999985
20
-48.6196849999999969
11
29.1410829999999983
21
-48.6724889999999988
0
LINE
8
BLACK
6
CONTINUOUS
10
29.1410829999999983
20
-48.6724889999999988
11
29.1510269999999991
21
-48.7416470000000004
0
LINE
8
BLACK
6
CONTINUOUS
10
29.1510269999999991
20
-48.7416470000000004
11
29.138773999999998
21
-48.7802949999999953
0
LINE
8
BLACK
6
CONTINUOUS
10
29.138773999999998
20
-48.7802949999999953
11
29.055769999999999
21
-48.9431960000000004
0
LINE
8
BLACK
6
CONTINUOUS
10
29.055769999999999
20
-48.9431960000000004
11
28.9852150000000002
21
-49.1603390000000005
0
LINE
8
BLACK
6
CONTINUOUS
10
28.9852150000000002
20
-49.1603390000000005
11
28.9495000000000005
21
-49.3858369999999951
0
LINE
8
BLACK
6
CONTINUOUS
10
28.9495000000000005
20
-49.3858369999999951
11
28.9495000000000005
21
-51.2141619999999946
0
LINE
8
BLACK
6
CONTINUOUS
10
28.9495000000000005
20
-51.2141619999999946
11
28.9852150000000002
21
-51.4396599999999964
0
LINE
8
BLACK
6
CONTINUOUS
10
28.9852150000000002
20
-51.4396599999999964
11
29.055769999999999
21
-51.6568029999999965
0
LINE
8
BLACK
6
CONTINUOUS
10
29.055769999999999
20
-51.6568029999999965
11
29.1594209999999983
21
-51.8602279999999993
0
LINE
8
BLACK
6
CONTINUOUS
10
29.1594209999999983
20
-51.8602279999999993
11
29.1986029999999985
21
-51.9141569999999959
0
LINE
8
BLACK
6
CONTINUOUS
10
29.1986029999999985
20
-51.9141569999999959
11
29.2936199999999971
21
-52.0449369999999973
0
LINE
8
BLACK
6
CONTINUOUS
10
29.2936199999999971
20
-52.0449369999999973
11
30.0370019999999975
21
-52.7883189999999942
0
LINE
8
BLACK
6
CONTINUOUS
10
30.0370019999999975
20
-52.7883189999999942
11
30.070487
21
-52.8496419999999958
0
LINE
8
BLACK
6
CONTINUOUS
10
30.070487
20
-52.8496419999999958
11
30.0655029999999996
21
-52.9193339999999992
0
LINE
8
BLACK
6
CONTINUOUS
10
30.0655029999999996
20
-52.9193339999999992
11
30.0236309999999982
21
-52.9752669999999952
0
LINE
8
BLACK
6
CONTINUOUS
10
30.0236309999999982
20
-52.9752669999999952
11
29.9581669999999995
21
-52.9996839999999949
0
LINE
8
BLACK
6
CONTINUOUS
10
29.9581669999999995
20
-52.9996839999999949
11
29.9493209999999976
21
-53.
0
LINE
8
BLACK
6
CONTINUOUS
10
29.9493209999999976
20
-53.
11
28.3200000000000003
21
-53.
0
LINE
8
BLACK
6
CONTINUOUS
10
28.3200000000000003
20
-53.
11
28.3200000000000003
21
-53.5
0
LINE
8
BLACK
6
CONTINUOUS
10
28.3200000000000003
20
-53.5
11
30.7199999999999989
21
-53.5
0
LINE
8
BLACK
6
CONTINUOUS
10
30.7199999999999989
20
-53.5
11
30.7199999999999989
21
-54.0999999999999943
0
LINE
8
BLACK
6
CONTINUOUS
10
30.7199999999999989
20
-54.0999999999999943
11
31.2199999999999989
21
-54.0999999999999943
0
LINE
8
BLACK
6
CONTINUOUS
10
31.2199999999999989
20
-54.0999999999999943
11
31.2199999999999989
21
-53.4684449999999956
0
LINE
8
BLACK
6
CONTINUOUS
10
31.2199999999999989
20
-53.4684449999999956
11
31.2396849999999979
21
-53.4014059999999944
0
LINE
8
BLACK
6
CONTINUOUS
10
31.2396849999999979
20
-53.4014059999999944
11
31.2924889999999998
21
-53.3556509999999946
0
LINE
8
BLACK
6
CONTINUOUS
10
31.2924889999999998
20
-53.3556509999999946
11
31.3616469999999978
21
-53.3457069999999973
0
LINE
8
BLACK
6
CONTINUOUS
10
31.3616469999999978
20
-53.3457069999999973
11
31.4135010000000001
21
-53.365752999999998
0
LINE
8
BLACK
6
CONTINUOUS
10
31.4135010000000001
20
-53.365752999999998
11
31.4201869999999985
21
-53.3702789999999965
0
LINE
8
BLACK
6
CONTINUOUS
10
31.4201869999999985
20
-53.3702789999999965
11
31.6133879999999969
21
-53.4530129999999986
0
LINE
8
BLACK
6
CONTINUOUS
10
31.6133879999999969
20
-53.4530129999999986
11
31.6133959999999981
21
-53.453013999999996
0
LINE
8
BLACK
6
CONTINUOUS
10
31.6133959999999981
20
-53.453013999999996
11
31.6133969999999991
21
-53.4530150000000006
0
LINE
8
BLACK
6
CONTINUOUS
10
31.6133969999999991
20
-53.4530150000000006
11
31.8187489999999968
21
-53.4976869999999991
0
LINE
8
BLACK
6
CONTINUOUS
10
31.8187489999999968
20
-53.4976869999999991
11
31.8187499999999979
21
-53.4976869999999991
0
LINE
8
BLACK
6
CONTINUOUS
10
31.8187499999999979
20
-53.4976869999999991
11
31.8187549999999995
21
-53.4976879999999966
0
LINE
8
BLACK
6
CONTINUOUS
10
31.8187549999999995
20
-53.4976879999999966
11
31.8659619999999997
21
-53.5004999999999953
0
LINE
8
BLACK
6
CONTINUOUS
10
31.8659619999999997
20
-53.5004999999999953
11
34.8144929999999988
21
-53.5004999999999953
0
LINE
8
BLACK
6
CONTINUOUS
10
34.8144929999999988
20
-53.5004999999999953
11
34.881532
21
-53.5201849999999979
0
LINE
8
BLACK
6
CONTINUOUS
10
34.881532
20
-53.5201849999999979
11
34.9272869999999998
21
-53.5729889999999997
0
LINE
8
BLACK
6
CONTINUOUS
10
34.9272869999999998
20
-53.5729889999999997
11
34.937230999999997
21
-53.6421469999999943
0
LINE
8
BLACK
6
CONTINUOUS
10
34.937230999999997
20
-53.6421469999999943
11
34.9342679999999959
21
-53.6565930000000009
0
LINE
8
BLACK
6
CONTINUOUS
10
34.9342679999999959
20
-53.6565930000000009
11
34.914794999999998
21
-53.7292649999999981
0
LINE
8
BLACK
6
CONTINUOUS
10
34.914794999999998
20
-53.7292649999999981
11
34.914792999999996
21
-53.7292749999999941
0
LINE
8
BLACK
6
CONTINUOUS
10
34.914792999999996
20
-53.7292749999999941
11
34.8994999999999962
21
-53.9040789999999959
0
LINE
8
BLACK
6
CONTINUOUS
10
34.8994999999999962
20
-53.9040789999999959
11
34.8994999999999962
21
-54.4959169999999986
0
LINE
8
BLACK
6
CONTINUOUS
10
34.8994999999999962
20
-54.4959169999999986
11
34.8995010000000008
21
-54.4959209999999956
0
LINE
8
BLACK
6
CONTINUOUS
10
34.8995010000000008
20
-54.4959209999999956
11
34.9147940000000006
21
-54.6707269999999994
0
LINE
8
BLACK
6
CONTINUOUS
10
34.9147940000000006
20
-54.6707269999999994
11
34.9147940000000006
21
-54.6707279999999969
0
LINE
8
BLACK
6
CONTINUOUS
10
34.9147940000000006
20
-54.6707279999999969
11
34.9753869999999978
21
-54.8968670000000003
0
LINE
8
BLACK
6
CONTINUOUS
10
34.9753869999999978
20
-54.8968670000000003
11
35.0223569999999995
21
-54.997596999999999
0
LINE
8
BLACK
6
CONTINUOUS
10
35.0223569999999995
20
-54.997596999999999
11
35.0328480000000013
21
-55.0666749999999965
0
LINE
8
BLACK
6
CONTINUOUS
10
35.0328480000000013
20
-55.0666749999999965
11
35.0223569999999995
21
-55.1024029999999954
0
LINE
8
BLACK
6
CONTINUOUS
10
35.0223569999999995
20
-55.1024029999999954
11
34.9753869999999978
21
-55.2031319999999965
0
LINE
8
BLACK
6
CONTINUOUS
10
34.9753869999999978
20
-55.2031319999999965
11
34.9147940000000006
21
-55.4292680000000004
0
LINE
8
BLACK
6
CONTINUOUS
10
34.9147940000000006
20
-55.4292680000000004
11
34.914792999999996
21
-55.429274999999997
0
LINE
8
BLACK
6
CONTINUOUS
10
34.914792999999996
20
-55.429274999999997
11
34.8994999999999962
21
-55.6040789999999987
0
LINE
8
BLACK
6
CONTINUOUS
10
34.8994999999999962
20
-55.6040789999999987
11
34.8994999999999962
21
-55.6994410000000002
0
LINE
8
BLACK
6
CONTINUOUS
10
34.8994999999999962
20
-55.6994410000000002
11
34.8798150000000007
21
-55.7664799999999943
0
LINE
8
BLACK
6
CONTINUOUS
10
34.8798150000000007
20
-55.7664799999999943
11
34.8270109999999988
21
-55.812234999999994
0
LINE
8
BLACK
6
CONTINUOUS
10
34.8270109999999988
20
-55.812234999999994
11
34.7578529999999972
21
-55.8221789999999984
0
LINE
8
BLACK
6
CONTINUOUS
10
34.7578529999999972
20
-55.8221789999999984
11
34.7160730000000015
21
-55.8082729999999998
0
LINE
8
BLACK
6
CONTINUOUS
10
34.7160730000000015
20
-55.8082729999999998
11
34.4731659999999991
21
-55.6756349999999998
0
LINE
8
BLACK
6
CONTINUOUS
10
34.4731659999999991
20
-55.6756349999999998
11
34.4731669999999966
21
-55.6756349999999998
0
LINE
8
BLACK
6
CONTINUOUS
10
34.4731669999999966
20
-55.6756349999999998
11
34.3659150000000011
21
-55.635631999999994
0
LINE
8
BLACK
6
CONTINUOUS
10
34.3659150000000011
20
-55.635631999999994
11
34.2050459999999958
21
-55.5756309999999942
0
LINE
8
BLACK
6
CONTINUOUS
10
34.2050459999999958
20
-55.5756309999999942
11
34.2050429999999963
21
-55.5756299999999968
0
LINE
8
BLACK
6
CONTINUOUS
10
34.2050429999999963
20
-55.5756299999999968
11
34.2050369999999972
21
-55.5756279999999947
0
LINE
8
BLACK
6
CONTINUOUS
10
34.2050369999999972
20
-55.5756279999999947
11
33.9254329999999982
21
-55.514803999999998
0
LINE
8
BLACK
6
CONTINUOUS
10
33.9254329999999982
20
-55.514803999999998
11
33.640000999999998
21
-55.4943899999999957
0
LINE
8
BLACK
6
CONTINUOUS
10
33.640000999999998
20
-55.4943899999999957
11
33.639998999999996
21
-55.4943899999999957
0
LINE
8
BLACK
6
CONTINUOUS
10
33.639998999999996
20
-55.4943899999999957
11
33.3545659999999984
21
-55.514803999999998
0
LINE
8
BLACK
6
CONTINUOUS
10
33.3545659999999984
20
-55.514803999999998
11
33.0749619999999993
21
-55.5756279999999947
0
LINE
8
BLACK
6
CONTINUOUS
10
33.0749619999999993
20
-55.5756279999999947
11
32.8068349999999995
21
-55.6756339999999952
0
LINE
8
BLACK
6
CONTINUOUS
10
32.8068349999999995
20
-55.6756339999999952
11
32.7573930000000004
21
-55.7026319999999942
0
LINE
8
BLACK
6
CONTINUOUS
10
32.7573930000000004
20
-55.7026319999999942
11
32.6891199999999955
21
-55.7174829999999943
0
LINE
8
BLACK
6
CONTINUOUS
10
32.6891199999999955
20
-55.7174829999999943
11
32.6284649999999985
21
-55.6964899999999972
0
LINE
8
BLACK
6
CONTINUOUS
10
32.6284649999999985
20
-55.6964899999999972
11
32.5298099999999977
21
-55.6297189999999944
0
LINE
8
BLACK
6
CONTINUOUS
10
32.5298099999999977
20
-55.6297189999999944
11
32.3366129999999998
21
-55.5469869999999943
0
LINE
8
BLACK
6
CONTINUOUS
10
32.3366129999999998
20
-55.5469869999999943
11
32.3366019999999992
21
-55.5469839999999948
0
LINE
8
BLACK
6
CONTINUOUS
10
32.3366019999999992
20
-55.5469839999999948
11
32.1312500000000014
21
-55.5023119999999963
0
LINE
8
BLACK
6
CONTINUOUS
10
32.1312500000000014
20
-55.5023119999999963
11
32.1164920000000009
21
-55.5014329999999987
0
LINE
8
BLACK
6
CONTINUOUS
10
32.1164920000000009
20
-55.5014329999999987
11
32.0840379999999996
21
-55.4994999999999976
0
LINE
8
BLACK
6
CONTINUOUS
10
32.0840379999999996
20
-55.4994999999999976
11
31.3205339999999985
21
-55.4994999999999976
0
LINE
8
BLACK
6
CONTINUOUS
10
31.3205339999999985
20
-55.4994999999999976
11
31.2534949999999974
21
-55.479814999999995
0
LINE
8
BLACK
6
CONTINUOUS
10
31.2534949999999974
20
-55.479814999999995
11
31.2077399999999976
21
-55.4270110000000003
0
LINE
8
BLACK
6
CONTINUOUS
10
31.2077399999999976
20
-55.4270110000000003
11
31.1977960000000003
21
-55.3578529999999986
0
LINE
8
BLACK
6
CONTINUOUS
10
31.1977960000000003
20
-55.3578529999999986
11
31.2043520000000001
21
-55.3321679999999958
0
LINE
8
BLACK
6
CONTINUOUS
10
31.2043520000000001
20
-55.3321679999999958
11
31.213595999999999
21
-55.3073819999999969
0
LINE
8
BLACK
6
CONTINUOUS
10
31.213595999999999
20
-55.3073819999999969
11
31.2135979999999975
21
-55.3073720000000009
0
LINE
8
BLACK
6
CONTINUOUS
10
31.2135979999999975
20
-55.3073720000000009
11
31.2199989999999978
21
-55.2478440000000006
0
LINE
8
BLACK
6
CONTINUOUS
10
31.2199989999999978
20
-55.2478440000000006
11
31.2199999999999989
21
-55.2478270000000009
0
LINE
8
BLACK
6
CONTINUOUS
10
31.2199999999999989
20
-55.2478270000000009
11
31.2199999999999989
21
-54.5999999999999943
0
LINE
8
BLACK
6
CONTINUOUS
10
31.2199999999999989
20
-54.5999999999999943
11
30.7199999999999989
21
-54.5999999999999943
0
LINE
8
BLACK
6
CONTINUOUS
10
30.7199999999999989
20
-54.5999999999999943
11
30.7199999999999989
21
-55.1999999999999957
0
LINE
8
BLACK
6
CONTINUOUS
10
30.7199999999999989
20
-55.1999999999999957
11
28.3200000000000003
21
-55.1999999999999957
0
LINE
8
BLACK
6
CONTINUOUS
10
28.3200000000000003
20
-55.1999999999999957
11
28.3200000000000003
21
-55.6999999999999957
0
LINE
8
BLACK
6
CONTINUOUS
10
28.3200000000000003
20
-55.6999999999999957
11
29.246613
21
-55.6999999999999957
0
LINE
8
BLACK
6
CONTINUOUS
10
29.246613
20
-55.6999999999999957
11
29.3136519999999976
21
-55.7196849999999984
0
LINE
8
BLACK
6
CONTINUOUS
10
29.3136519999999976
20
-55.7196849999999984
11
29.3594069999999974
21
-55.7724890000000002
0
LINE
8
BLACK
6
CONTINUOUS
10
29.3594069999999974
20
-55.7724890000000002
11
29.3693509999999982
21
-55.8416469999999947
0
LINE
8
BLACK
6
CONTINUOUS
10
29.3693509999999982
20
-55.8416469999999947
11
29.3493040000000001
21
-55.893501999999998
0
LINE
8
BLACK
6
CONTINUOUS
10
29.3493040000000001
20
-55.893501999999998
11
29.2297189999999993
21
-56.0701889999999992
0
LINE
8
BLACK
6
CONTINUOUS
10
29.2297189999999993
20
-56.0701889999999992
11
29.1469869999999993
21
-56.263385999999997
0
LINE
8
BLACK
6
CONTINUOUS
10
29.1469869999999993
20
-56.263385999999997
11
29.1469839999999998
21
-56.2633969999999977
0
LINE
8
BLACK
6
CONTINUOUS
10
29.1469839999999998
20
-56.2633969999999977
11
29.1023119999999977
21
-56.4687489999999954
0
LINE
8
BLACK
6
CONTINUOUS
10
29.1023119999999977
20
-56.4687489999999954
11
29.1023119999999977
21
-56.4687549999999945
0
LINE
8
BLACK
6
CONTINUOUS
10
29.1023119999999977
20
-56.4687549999999945
11
29.099499999999999
21
-56.5159619999999947
0
LINE
8
BLACK
6
CONTINUOUS
10
29.099499999999999
20
-56.5159619999999947
11
29.099499999999999
21
-58.4840379999999982
0
LINE
8
BLACK
6
CONTINUOUS
10
29.099499999999999
20
-58.4840379999999982
11
29.1014839999999992
21
-58.5173599999999965
0
LINE
8
BLACK
6
CONTINUOUS
10
29.1014839999999992
20
-58.5173599999999965
11
29.1023119999999977
21
-58.53125
0
LINE
8
BLACK
6
CONTINUOUS
10
29.1023119999999977
20
-58.53125
11
29.1469839999999998
21
-58.7366019999999978
0
LINE
8
BLACK
6
CONTINUOUS
10
29.1469839999999998
20
-58.7366019999999978
11
29.1469869999999993
21
-58.7366129999999984
0
LINE
8
BLACK
6
CONTINUOUS
10
29.1469869999999993
20
-58.7366129999999984
11
29.2297179999999983
21
-58.9298079999999942
0
LINE
8
BLACK
6
CONTINUOUS
10
29.2297179999999983
20
-58.9298079999999942
11
29.2297200000000004
21
-58.9298110000000008
0
LINE
8
BLACK
6
CONTINUOUS
10
29.2297200000000004
20
-58.9298110000000008
11
29.2297209999999978
21
-58.9298129999999958
0
LINE
8
BLACK
6
CONTINUOUS
10
29.2297209999999978
20
-58.9298129999999958
11
29.3475229999999989
21
-59.103864999999999
0
LINE
8
BLACK
6
CONTINUOUS
10
29.3475229999999989
20
-59.103864999999999
11
29.4961349999999989
21
-59.252476999999999
0
LINE
8
BLACK
6
CONTINUOUS
10
29.4961349999999989
20
-59.252476999999999
11
29.6701869999999985
21
-59.3702789999999965
0
LINE
8
BLACK
6
CONTINUOUS
10
29.6701869999999985
20
-59.3702789999999965
11
29.6701920000000001
21
-59.3702809999999985
0
LINE
8
BLACK
6
CONTINUOUS
10
29.6701920000000001
20
-59.3702809999999985
11
29.8633819999999979
21
-59.4530109999999965
0
LINE
8
BLACK
6
CONTINUOUS
10
29.8633819999999979
20
-59.4530109999999965
11
29.8633849999999974
21
-59.4530109999999965
0
LINE
8
BLACK
6
CONTINUOUS
10
29.8633849999999974
20
-59.4530109999999965
11
29.8633879999999969
21
-59.4530129999999986
0
LINE
8
BLACK
6
CONTINUOUS
10
29.8633879999999969
20
-59.4530129999999986
11
29.8925599999999996
21
-59.4593579999999946
0
LINE
8
BLACK
6
CONTINUOUS
10
29.8925599999999996
20
-59.4593579999999946
11
29.9538829999999976
21
-59.492841999999996
0
LINE
8
BLACK
6
CONTINUOUS
10
29.9538829999999976
20
-59.492841999999996
11
29.9665229999999987
21
-59.5076409999999996
0
LINE
8
BLACK
6
CONTINUOUS
10
29.9665229999999987
20
-59.5076409999999996
11
29.9936159999999994
21
-59.5449330000000003
0
LINE
8
BLACK
6
CONTINUOUS
10
29.9936159999999994
20
-59.5449330000000003
11
29.9936199999999999
21
-59.5449369999999973
0
LINE
8
BLACK
6
CONTINUOUS
10
29.9936199999999999
20
-59.5449369999999973
11
31.0050629999999998
21
-60.5563799999999972
0
LINE
8
BLACK
6
CONTINUOUS
10
31.0050629999999998
20
-60.5563799999999972
11
31.1897729999999989
21
-60.6905799999999971
0
LINE
8
BLACK
6
CONTINUOUS
10
31.1897729999999989
20
-60.6905799999999971
11
31.2858849999999968
21
-60.7395509999999987
0
LINE
8
BLACK
6
CONTINUOUS
10
31.2858849999999968
20
-60.7395509999999987
11
31.3931969999999971
21
-60.7942299999999989
0
LINE
8
BLACK
6
CONTINUOUS
10
31.3931969999999971
20
-60.7942299999999989
11
31.3931989999999992
21
-60.7942299999999989
0
LINE
8
BLACK
6
CONTINUOUS
10
31.3931989999999992
20
-60.7942299999999989
11
31.3932019999999987
21
-60.7942319999999938
0
LINE
8
BLACK
6
CONTINUOUS
10
31.3932019999999987
20
-60.7942319999999938
11
31.6103409999999982
21
-60.8647849999999977
0
LINE
8
BLACK
6
CONTINUOUS
10
31.6103409999999982
20
-60.8647849999999977
11
31.8001279999999973
21
-60.8948429999999945
0
LINE
8
BLACK
6
CONTINUOUS
10
31.8001279999999973
20
-60.8948429999999945
11
31.835842999999997
21
-60.9004999999999939
0
LINE
8
BLACK
6
CONTINUOUS
10
31.835842999999997
20
-60.9004999999999939
11
36.4766619999999975
21
-60.9004999999999939
0
LINE
8
BLACK
6
CONTINUOUS
10
36.4766619999999975
20
-60.9004999999999939
11
36.7021599999999992
21
-60.8647840000000002
0
LINE
8
BLACK
6
CONTINUOUS
10
36.7021599999999992
20
-60.8647840000000002
11
36.7021629999999988
21
-60.8647829999999956
0
LINE
8
BLACK
6
CONTINUOUS
10
36.7021629999999988
20
-60.8647829999999956
11
36.9192989999999952
21
-60.7942309999999964
0
LINE
8
BLACK
6
CONTINUOUS
10
36.9192989999999952
20
-60.7942309999999964
11
37.1227279999999951
21
-60.6905789999999996
0
LINE
8
BLACK
6
CONTINUOUS
10
37.1227279999999951
20
-60.6905789999999996
11
37.2004540000000006
21
-60.6341059999999956
0
LINE
8
BLACK
6
CONTINUOUS
10
37.2004540000000006
20
-60.6341059999999956
11
37.3074370000000002
21
-60.5563799999999972
0
LINE
8
BLACK
6
CONTINUOUS
10
37.3074370000000002
20
-60.5563799999999972
11
38.7830030000000008
21
-59.0808119999999946
0
LINE
8
BLACK
6
CONTINUOUS
10
38.7830030000000008
20
-59.0808119999999946
11
38.8385859999999994
21
-59.0487210000000005
0
LINE
8
BLACK
6
CONTINUOUS
10
38.8385859999999994
20
-59.0487210000000005
11
39.0218709999999973
21
-58.9996109999999945
0
LINE
8
BLACK
6
CONTINUOUS
10
39.0218709999999973
20
-58.9996109999999945
11
39.2340559999999954
21
-58.900667999999996
0
LINE
8
BLACK
6
CONTINUOUS
10
39.2340559999999954
20
-58.900667999999996
11
39.4258349999999993
21
-58.7663829999999976
0
LINE
8
BLACK
6
CONTINUOUS
10
39.4258349999999993
20
-58.7663829999999976
11
39.5913830000000004
21
-58.6008349999999965
0
LINE
8
BLACK
6
CONTINUOUS
10
39.5913830000000004
20
-58.6008349999999965
11
39.7256679999999989
21
-58.4090559999999996
0
LINE
8
BLACK
6
CONTINUOUS
10
39.7256679999999989
20
-58.4090559999999996
11
39.8246109999999973
21
-58.1968709999999945
0
LINE
8
BLACK
6
CONTINUOUS
10
39.8246109999999973
20
-58.1968709999999945
11
39.8852059999999966
21
-57.9707289999999986
0
LINE
8
BLACK
6
CONTINUOUS
10
39.8852059999999966
20
-57.9707289999999986
11
39.900500000000001
21
-57.7959189999999978
0
LINE
8
BLACK
6
CONTINUOUS
10
39.900500000000001
20
-57.7959189999999978
11
39.9004989999999964
21
-57.599497999999997
0
LINE
8
BLACK
6
CONTINUOUS
10
39.9004989999999964
20
-57.599497999999997
11
39.9201830000000015
21
-57.5324600000000004
0
LINE
8
BLACK
6
CONTINUOUS
10
39.9201830000000015
20
-57.5324600000000004
11
39.9729869999999963
21
-57.4867050000000006
0
LINE
8
BLACK
6
CONTINUOUS
10
39.9729869999999963
20
-57.4867050000000006
11
40.0244939999999971
21
-57.4754989999999992
0
LINE
8
BLACK
6
CONTINUOUS
10
40.0244939999999971
20
-57.4754989999999992
11
40.5959179999999975
21
-57.4754989999999992
0
LINE
8
BLACK
6
CONTINUOUS
10
40.5959179999999975
20
-57.4754989999999992
11
40.7707289999999958
21
-57.4602059999999994
0
LINE
8
BLACK
6
CONTINUOUS
10
40.7707289999999958
20
-57.4602059999999994
11
40.9968709999999987
21
-57.3996110000000002
0
LINE
8
BLACK
6
CONTINUOUS
10
40.9968709999999987
20
-57.3996110000000002
11
41.147597999999995
21
-57.3293249999999972
0
LINE
8
BLACK
6
CONTINUOUS
10
41.147597999999995
20
-57.3293249999999972
11
41.2166719999999955
21
-57.3188339999999954
0
LINE
8
BLACK
6
CONTINUOUS
10
41.2166719999999955
20
-57.3188339999999954
11
41.2523989999999969
21
-57.3293239999999997
0
LINE
8
BLACK
6
CONTINUOUS
10
41.2523989999999969
20
-57.3293239999999997
11
41.4031289999999998
21
-57.3996110000000002
0
LINE
8
BLACK
6
CONTINUOUS
10
41.4031289999999998
20
-57.3996110000000002
11
41.6292709999999957
21
-57.4602059999999994
0
LINE
8
BLACK
6
CONTINUOUS
10
41.6292709999999957
20
-57.4602059999999994
11
41.8040809999999965
21
-57.4754999999999967
0
LINE
8
BLACK
6
CONTINUOUS
10
41.8040809999999965
20
-57.4754999999999967
11
42.4209180000000003
21
-57.4754989999999992
0
LINE
8
BLACK
6
CONTINUOUS
10
42.4209180000000003
20
-57.4754989999999992
11
42.5957289999999986
21
-57.4602059999999994
0
LINE
8
BLACK
6
CONTINUOUS
10
42.5957289999999986
20
-57.4602059999999994
11
42.8218710000000016
21
-57.3996110000000002
0
LINE
8
BLACK
6
CONTINUOUS
10
42.8218710000000016
20
-57.3996110000000002
11
43.0340559999999996
21
-57.3006679999999946
0
LINE
8
BLACK
6
CONTINUOUS
10
43.0340559999999996
20
-57.3006679999999946
11
43.2258349999999965
21
-57.1663829999999962
0
LINE
8
BLACK
6
CONTINUOUS
10
43.2258349999999965
20
-57.1663829999999962
11
43.3913829999999976
21
-57.000834999999995
0
LINE
8
BLACK
6
CONTINUOUS
10
43.3913829999999976
20
-57.000834999999995
11
43.525667999999996
21
-56.8090559999999982
0
LINE
8
BLACK
6
CONTINUOUS
10
43.525667999999996
20
-56.8090559999999982
11
43.6246109999999945
21
-56.5968710000000002
0
LINE
8
BLACK
6
CONTINUOUS
10
43.6246109999999945
20
-56.5968710000000002
11
43.6852060000000009
21
-56.3707289999999972
0
LINE
8
BLACK
6
CONTINUOUS
10
43.6852060000000009
20
-56.3707289999999972
11
43.7004999999999981
21
-56.1959189999999964
0
LINE
8
BLACK
6
CONTINUOUS
10
43.7004999999999981
20
-56.1959189999999964
11
43.7004990000000006
21
-55.8021770000000004
0
LINE
8
BLACK
6
CONTINUOUS
10
43.7004990000000006
20
-55.8021770000000004
11
43.7201829999999987
21
-55.7351389999999967
0
LINE
8
BLACK
6
CONTINUOUS
10
43.7201829999999987
20
-55.7351389999999967
11
43.7368129999999979
21
-55.714501999999996
0
LINE
8
BLACK
6
CONTINUOUS
10
43.7368129999999979
20
-55.714501999999996
11
44.2683189999999982
21
-55.1829959999999957
0
LINE
8
BLACK
6
CONTINUOUS
10
44.2683189999999982
20
-55.1829959999999957
11
44.3296419999999998
21
-55.1495119999999943
0
LINE
8
BLACK
6
CONTINUOUS
10
44.3296419999999998
20
-55.1495119999999943
11
44.3993339999999961
21
-55.1544959999999946
0
LINE
8
BLACK
6
CONTINUOUS
10
44.3993339999999961
20
-55.1544959999999946
11
44.4552669999999992
21
-55.1963679999999997
0
LINE
8
BLACK
6
CONTINUOUS
10
44.4552669999999992
20
-55.1963679999999997
11
44.4796839999999989
21
-55.2618319999999983
0
LINE
8
BLACK
6
CONTINUOUS
10
44.4796839999999989
20
-55.2618319999999983
11
44.4799999999999969
21
-55.2706779999999966
0
LINE
8
BLACK
6
CONTINUOUS
10
44.4799999999999969
20
-55.2706779999999966
11
44.4799999999999969
21
-55.3478439999999949
0
LINE
8
BLACK
6
CONTINUOUS
10
44.4799999999999969
20
-55.3478439999999949
11
44.4864010000000007
21
-55.4073719999999952
0
LINE
8
BLACK
6
CONTINUOUS
10
44.4864010000000007
20
-55.4073719999999952
11
44.4864029999999957
21
-55.4073789999999988
0
LINE
8
BLACK
6
CONTINUOUS
10
44.4864029999999957
20
-55.4073789999999988
11
44.536645
21
-55.5420859999999976
0
LINE
8
BLACK
6
CONTINUOUS
10
44.536645
20
-55.5420859999999976
11
44.536648999999997
21
-55.5420929999999942
0
LINE
8
BLACK
6
CONTINUOUS
10
44.536648999999997
20
-55.5420929999999942
11
44.6228089999999966
21
-55.6571870000000004
0
LINE
8
BLACK
6
CONTINUOUS
10
44.6228089999999966
20
-55.6571870000000004
11
44.6228119999999961
21
-55.6571899999999999
0
LINE
8
BLACK
6
CONTINUOUS
10
44.6228119999999961
20
-55.6571899999999999
11
44.7379059999999953
21
-55.7433499999999995
0
LINE
8
BLACK
6
CONTINUOUS
10
44.7379059999999953
20
-55.7433499999999995
11
44.7379129999999989
21
-55.7433539999999965
0
LINE
8
BLACK
6
CONTINUOUS
10
44.7379129999999989
20
-55.7433539999999965
11
44.8726199999999977
21
-55.7935960000000009
0
LINE
8
BLACK
6
CONTINUOUS
10
44.8726199999999977
20
-55.7935960000000009
11
44.8726270000000014
21
-55.7935979999999958
0
LINE
8
BLACK
6
CONTINUOUS
10
44.8726270000000014
20
-55.7935979999999958
11
44.9321549999999945
21
-55.7999989999999997
0
LINE
8
BLACK
6
CONTINUOUS
10
44.9321549999999945
20
-55.7999989999999997
11
44.9321720000000013
21
-55.7999999999999972
0
LINE
8
BLACK
6
CONTINUOUS
10
44.9321720000000013
20
-55.7999999999999972
11
47.3799999999999955
21
-55.7999999999999972
0
LINE
8
BLACK
6
CONTINUOUS
10
47.3799999999999955
20
-55.7999999999999972
11
47.3799999999999955
21
-55.2999999999999972
0
LINE
8
BLACK
6
CONTINUOUS
10
47.3799999999999955
20
-55.2999999999999972
11
44.9799999999999969
21
-55.2999999999999972
0
LINE
8
BLACK
6
CONTINUOUS
10
44.9799999999999969
20
-55.2999999999999972
11
44.9799999999999969
21
-53.5999999999999943
0
LINE
8
BLACK
6
CONTINUOUS
10
44.9799999999999969
20
-53.5999999999999943
11
47.3799999999999955
21
-53.5999999999999943
0
LINE
8
BLACK
6
CONTINUOUS
10
47.3799999999999955
20
-53.5999999999999943
11
47.3799999999999955
21
-53.0999999999999943
0
LINE
8
BLACK
6
CONTINUOUS
10
47.3799999999999955
20
-53.0999999999999943
11
46.5226639999999989
21
-53.0999999999999943
0
LINE
8
BLACK
6
CONTINUOUS
10
46.5226639999999989
20
-53.0999999999999943
11
46.4556249999999977
21
-53.0803149999999988
0
LINE
8
BLACK
6
CONTINUOUS
10
46.4556249999999977
20
-53.0803149999999988
11
46.409869999999998
21
-53.027510999999997
0
LINE
8
BLACK
6
CONTINUOUS
10
46.409869999999998
20
-53.027510999999997
11
46.3999260000000007
21
-52.9583529999999953
0
LINE
8
BLACK
6
CONTINUOUS
10
46.3999260000000007
20
-52.9583529999999953
11
46.4121789999999947
21
-52.9197050000000004
0
LINE
8
BLACK
6
CONTINUOUS
10
46.4121789999999947
20
-52.9197050000000004
11
46.444229
21
-52.8568029999999993
0
LINE
8
BLACK
6
CONTINUOUS
10
46.444229
20
-52.8568029999999993
11
46.444229
21
-52.8568019999999947
0
LINE
8
BLACK
6
CONTINUOUS
10
46.444229
20
-52.8568019999999947
11
46.4442309999999949
21
-52.8567989999999952
0
LINE
8
BLACK
6
CONTINUOUS
10
46.4442309999999949
20
-52.8567989999999952
11
46.5147839999999988
21
-52.6396599999999992
0
LINE
8
BLACK
6
CONTINUOUS
10
46.5147839999999988
20
-52.6396599999999992
11
46.5504999999999995
21
-52.4141619999999975
0
LINE
8
BLACK
6
CONTINUOUS
10
46.5504999999999995
20
-52.4141619999999975
11
46.5504999999999995
21
-50.2858370000000008
0
LINE
8
BLACK
6
CONTINUOUS
10
46.5504999999999995
20
-50.2858370000000008
11
46.5147839999999988
21
-50.060338999999999
0
LINE
8
BLACK
6
CONTINUOUS
10
46.5147839999999988
20
-50.060338999999999
11
46.444229
21
-49.8431959999999989
0
LINE
8
BLACK
6
CONTINUOUS
10
46.444229
20
-49.8431959999999989
11
46.3405780000000007
21
-49.6397709999999961
0
LINE
8
BLACK
6
CONTINUOUS
10
46.3405780000000007
20
-49.6397709999999961
11
46.2828680000000006
21
-49.5603399999999965
0
LINE
8
BLACK
6
CONTINUOUS
10
46.2828680000000006
20
-49.5603399999999965
11
46.2828680000000006
21
-49.560338999999999
0
LINE
8
BLACK
6
CONTINUOUS
10
46.2828680000000006
20
-49.560338999999999
11
46.2828659999999985
21
-49.5603379999999945
0
LINE
8
BLACK
6
CONTINUOUS
10
46.2828659999999985
20
-49.5603379999999945
11
46.2522719999999978
21
-49.5182289999999981
0
LINE
8
BLACK
6
CONTINUOUS
10
46.2522719999999978
20
-49.5182289999999981
11
46.2063829999999953
21
-49.4550659999999951
0
LINE
8
BLACK
6
CONTINUOUS
10
46.2063829999999953
20
-49.4550659999999951
11
45.6629979999999946
21
-48.9116809999999944
0
LINE
8
BLACK
6
CONTINUOUS
10
45.6629979999999946
20
-48.9116809999999944
11
45.6295129999999958
21
-48.8503579999999999
0
LINE
8
BLACK
6
CONTINUOUS
10
45.6295129999999958
20
-48.8503579999999999
11
45.6344969999999961
21
-48.7806659999999965
0
LINE
8
BLACK
6
CONTINUOUS
10
45.6344969999999961
20
-48.7806659999999965
11
45.6763690000000011
21
-48.7247330000000005
0
LINE
8
BLACK
6
CONTINUOUS
10
45.6763690000000011
20
-48.7247330000000005
11
45.7418329999999997
21
-48.7003160000000008
0
LINE
8
BLACK
6
CONTINUOUS
10
45.7418329999999997
20
-48.7003160000000008
11
45.7506789999999981
21
-48.6999999999999957
0
LINE
8
BLACK
6
CONTINUOUS
10
45.7506789999999981
20
-48.6999999999999957
11
47.3799999999999955
21
-48.6999999999999957
0
LINE
8
BLACK
6
CONTINUOUS
10
47.3799999999999955
20
-48.6999999999999957
11
47.3799999999999955
21
-48.1999999999999957
0
LINE
8
BLACK
6
CONTINUOUS
10
47.3799999999999955
20
-48.1999999999999957
11
44.9799999999999969
21
-48.1999999999999957
0
LINE
8
BLACK
6
CONTINUOUS
10
44.9799999999999969
20
-48.1999999999999957
11
44.9799999999999969
21
-47.5999999999999943
0
LINE
8
BLACK
6
CONTINUOUS
10
44.9799999999999969
20
-47.5999999999999943
11
44.4799999999999969
21
-47.5999999999999943
0
LINE
8
BLACK
6
CONTINUOUS
10
44.4799999999999969
20
-47.5999999999999943
11
44.4799999999999969
21
-48.2315539999999956
0
LINE
8
BLACK
6
CONTINUOUS
10
44.4799999999999969
20
-48.2315539999999956
11
44.4603150000000014
21
-48.2985929999999968
0
LINE
8
BLACK
6
CONTINUOUS
10
44.4603150000000014
20
-48.2985929999999968
11
44.4075109999999995
21
-48.3443479999999965
0
LINE
8
BLACK
6
CONTINUOUS
10
44.4075109999999995
20
-48.3443479999999965
11
44.3383529999999979
21
-48.3542920000000009
0
LINE
8
BLACK
6
CONTINUOUS
10
44.3383529999999979
20
-48.3542920000000009
11
44.2865019999999987
21
-48.3342479999999952
0
LINE
8
BLACK
6
CONTINUOUS
10
44.2865019999999987
20
-48.3342479999999952
11
44.2798099999999977
21
-48.3297189999999972
0
LINE
8
BLACK
6
CONTINUOUS
10
44.2798099999999977
20
-48.3297189999999972
11
44.0866129999999998
21
-48.2469869999999972
0
LINE
8
BLACK
6
CONTINUOUS
10
44.0866129999999998
20
-48.2469869999999972
11
44.0866019999999992
21
-48.2469839999999976
0
LINE
8
BLACK
6
CONTINUOUS
10
44.0866019999999992
20
-48.2469839999999976
11
43.8812500000000014
21
-48.2023119999999992
0
LINE
8
BLACK
6
CONTINUOUS
10
43.8812500000000014
20
-48.2023119999999992
11
43.8664920000000009
21
-48.2014329999999944
0
LINE
8
BLACK
6
CONTINUOUS
10
43.8664920000000009
20
-48.2014329999999944
11
43.8340379999999996
21
-48.1995000000000005
0
LINE
8
BLACK
6
CONTINUOUS
10
43.8340379999999996
20
-48.1995000000000005
11
43.834026999999999
21
-48.1995000000000005
0
LINE
8
BLACK
6
CONTINUOUS
10
43.834026999999999
20
-48.1995000000000005
11
42.5521789999999953
21
-48.1995000000000005
0
LINE
8
BLACK
6
CONTINUOUS
10
42.5521789999999953
20
-48.1995000000000005
11
42.4851400000000012
21
-48.1798149999999978
0
LINE
8
BLACK
6
CONTINUOUS
10
42.4851400000000012
20
-48.1798149999999978
11
42.464497999999999
21
-48.1631809999999945
0
LINE
8
BLACK
6
CONTINUOUS
10
42.464497999999999
20
-48.1631809999999945
11
41.1949329999999989
21
-46.8936159999999944
0
LINE
8
BLACK
6
CONTINUOUS
10
41.1949329999999989
20
-46.8936159999999944
11
41.0879550000000009
21
-46.8158940000000001
0
LINE
8
BLACK
6
CONTINUOUS
10
41.0879550000000009
20
-46.8158940000000001
11
41.0879529999999988
21
-46.8158910000000006
0
LINE
8
BLACK
6
CONTINUOUS
10
41.0879529999999988
20
-46.8158910000000006
11
41.0276289999999975
21
-46.7720629999999957
0
LINE
8
BLACK
6
CONTINUOUS
10
41.0276289999999975
20
-46.7720629999999957
11
41.0102279999999979
21
-46.7594209999999961
0
LINE
8
BLACK
6
CONTINUOUS
10
41.0102279999999979
20
-46.7594209999999961
11
40.9963100000000011
21
-46.752328999999996
0
LINE
8
BLACK
6
CONTINUOUS
10
40.9963100000000011
20
-46.752328999999996
11
40.8068029999999951
21
-46.6557699999999969
0
LINE
8
BLACK
6
CONTINUOUS
10
40.8068029999999951
20
-46.6557699999999969
11
40.589659999999995
21
-46.585214999999998
0
LINE
8
BLACK
6
CONTINUOUS
10
40.589659999999995
20
-46.585214999999998
11
40.3641620000000003
21
-46.5494999999999948
0
LINE
8
BLACK
6
CONTINUOUS
10
40.3641620000000003
20
-46.5494999999999948
11
40.3641569999999987
21
-46.5494999999999948
0
LINE
8
BLACK
6
CONTINUOUS
10
40.3641569999999987
20
-46.5494999999999948
11
31.7858429999999998
21
-46.5494999999999948
0
LINE
8
BLACK
6
CONTINUOUS
10
31.7858429999999998
20
-46.5494999999999948
11
31.7858379999999983
21
-46.5494999999999948
0
LINE
8
BLACK
6
CONTINUOUS
10
31.7858379999999983
20
-46.5494999999999948
11
31.560337999999998
21
-46.5852159999999955
0
LINE
8
BLACK
6
CONTINUOUS
10
31.560337999999998
20
-46.5852159999999955
11
31.5603349999999985
21
-46.5852159999999955
0
LINE
8
BLACK
6
CONTINUOUS
10
31.5603349999999985
20
-46.5852159999999955
11
31.3823179999999979
21
-46.6430579999999964
0
LINE
8
BLACK
6
CONTINUOUS
10
31.3823179999999979
20
-46.6430579999999964
11
31.3124769999999977
21
-46.6450529999999972
0
LINE
8
BLACK
6
CONTINUOUS
10
31.3124769999999977
20
-46.6450529999999972
11
31.2526440000000001
21
-46.6089729999999989
0
LINE
8
BLACK
6
CONTINUOUS
10
31.2526440000000001
20
-46.6089729999999989
11
31.2218159999999969
21
-46.5462719999999948
0
LINE
8
BLACK
6
CONTINUOUS
10
31.2218159999999969
20
-46.5462719999999948
11
31.2199999999999989
21
-46.5251269999999977
0
LINE
8
BLACK
6
CONTINUOUS
10
31.2199999999999989
20
-46.5251269999999977
11
31.2199999999999989
21
-46.4521549999999976
0
LINE
8
BLACK
6
CONTINUOUS
10
31.2199999999999989
20
-46.4521549999999976
11
31.2199999999999989
21
-46.3521719999999959
0
LINE
8
BLACK
6
CONTINUOUS
10
31.2199999999999989
20
-46.3521719999999959
11
31.2199989999999978
21
-46.3521549999999962
0
LINE
8
BLACK
6
CONTINUOUS
10
31.2199989999999978
20
-46.3521549999999962
11
31.2135979999999975
21
-46.292626999999996
0
LINE
8
BLACK
6
CONTINUOUS
10
31.2135979999999975
20
-46.292626999999996
11
31.213595999999999
21
-46.2926199999999994
0
LINE
8
BLACK
6
CONTINUOUS
10
31.213595999999999
20
-46.2926199999999994
11
31.1633539999999982
21
-46.1579130000000006
0
LINE
8
BLACK
6
CONTINUOUS
10
31.1633539999999982
20
-46.1579130000000006
11
31.1633499999999977
21
-46.157905999999997
0
LINE
8
BLACK
6
CONTINUOUS
10
31.1633499999999977
20
-46.157905999999997
11
31.0771899999999981
21
-46.0428119999999979
0
LINE
8
BLACK
6
CONTINUOUS
10
31.0771899999999981
20
-46.0428119999999979
11
31.0771869999999986
21
-46.0428089999999983
0
LINE
8
BLACK
6
CONTINUOUS
10
31.0771869999999986
20
-46.0428089999999983
11
30.9620929999999994
21
-45.9566489999999988
0
LINE
8
BLACK
6
CONTINUOUS
10
30.9620929999999994
20
-45.9566489999999988
11
30.9620859999999993
21
-45.9566449999999946
0
LINE
8
BLACK
6
CONTINUOUS
10
30.9620859999999993
20
-45.9566449999999946
11
30.827378999999997
21
-45.9064029999999974
0
LINE
8
BLACK
6
CONTINUOUS
10
30.827378999999997
20
-45.9064029999999974
11
30.8273719999999969
21
-45.9064009999999953
0
LINE
8
BLACK
6
CONTINUOUS
10
30.8273719999999969
20
-45.9064009999999953
11
30.7678440000000002
21
-45.8999999999999986
0
LINE
8
BLACK
6
CONTINUOUS
10
30.7678440000000002
20
-45.8999999999999986
11
28.3200000000000003
21
-45.8999999999999986
0
LINE
8
BLACK
6
CONTINUOUS
10
28.3200000000000003
20
-45.8999999999999986
11
28.3200000000000003
21
-46.3999999999999986
0
LINE
8
BLACK
6
CONTINUOUS
10
28.3200000000000003
20
-46.3999999999999986
11
30.7199999999999989
21
-46.3999999999999986
0
LINE
8
BLACK
6
CONTINUOUS
10
30.7199999999999989
20
-46.3999999999999986
11
30.7199999999999989
21
-48.0999999999999943
0
LINE
8
BLACK
6
CONTINUOUS
10
30.7199999999999989
20
-48.0999999999999943
11
28.3200000000000003
21
-48.0999999999999943
0
LINE
8
BLACK
6
CONTINUOUS
10
28.3200000000000003
20
-48.0999999999999943
11
28.3200000000000003
21
-48.5999999999999943
0
LINE
8
BLACK
6
CONTINUOUS
10
28.3200000000000003
20
-48.5999999999999943
11
29.0282889999999973
21
-48.5999999999999943
0
LINE
8
BLACK
6
CONTINUOUS
10
50.2800000000000011
20
-55.2999999999999972
11
47.8799999999999955
21
-55.2999999999999972
0
LINE
8
BLACK
6
CONTINUOUS
10
47.8799999999999955
20
-55.2999999999999972
11
47.8799999999999955
21
-55.7999999999999972
0
LINE
8
BLACK
6
CONTINUOUS
10
47.8799999999999955
20
-55.7999999999999972
11
50.3278279999999967
21
-55.7999999999999972
0
LINE
8
BLACK
6
CONTINUOUS
10
50.3278279999999967
20
-55.7999999999999972
11
50.3278439999999989
21
-55.7999989999999997
0
LINE
8
BLACK
6
CONTINUOUS
10
50.3278439999999989
20
-55.7999989999999997
11
50.3873719999999992
21
-55.7935979999999958
0
LINE
8
BLACK
6
CONTINUOUS
10
50.3873719999999992
20
-55.7935979999999958
11
50.3873789999999957
21
-55.7935960000000009
0
LINE
8
BLACK
6
CONTINUOUS
10
50.3873789999999957
20
-55.7935960000000009
11
50.5220859999999945
21
-55.7433539999999965
0
LINE
8
BLACK
6
CONTINUOUS
10
50.5220859999999945
20
-55.7433539999999965
11
50.5220929999999981
21
-55.7433499999999995
0
LINE
8
BLACK
6
CONTINUOUS
10
50.5220929999999981
20
-55.7433499999999995
11
50.6371869999999973
21
-55.6571899999999999
0
LINE
8
BLACK
6
CONTINUOUS
10
50.6371869999999973
20
-55.6571899999999999
11
50.6371899999999968
21
-55.6571870000000004
0
LINE
8
BLACK
6
CONTINUOUS
10
50.6371899999999968
20
-55.6571870000000004
11
50.7233499999999964
21
-55.5420929999999942
0
LINE
8
BLACK
6
CONTINUOUS
10
50.7233499999999964
20
-55.5420929999999942
11
50.7233540000000005
21
-55.5420859999999976
0
LINE
8
BLACK
6
CONTINUOUS
10
50.7233540000000005
20
-55.5420859999999976
11
50.7735959999999977
21
-55.4073789999999988
0
LINE
8
BLACK
6
CONTINUOUS
10
50.7735959999999977
20
-55.4073789999999988
11
50.7735979999999998
21
-55.4073719999999952
0
LINE
8
BLACK
6
CONTINUOUS
10
50.7735979999999998
20
-55.4073719999999952
11
50.7799989999999966
21
-55.3478439999999949
0
LINE
8
BLACK
6
CONTINUOUS
10
50.7799989999999966
20
-55.3478439999999949
11
50.7800000000000011
21
-55.3478269999999952
0
LINE
8
BLACK
6
CONTINUOUS
10
50.7800000000000011
20
-55.3478269999999952
11
50.7800000000000011
21
-54.6999999999999957
0
LINE
8
BLACK
6
CONTINUOUS
10
50.7800000000000011
20
-54.6999999999999957
11
50.2800000000000011
21
-54.6999999999999957
0
LINE
8
BLACK
6
CONTINUOUS
10
50.2800000000000011
20
-54.6999999999999957
11
50.2800000000000011
21
-55.2999999999999972
0
LINE
8
BLACK
6
CONTINUOUS
10
47.8799999999999955
20
-53.5999999999999943
11
50.2800000000000011
21
-53.5999999999999943
0
LINE
8
BLACK
6
CONTINUOUS
10
50.2800000000000011
20
-53.5999999999999943
11
50.2800000000000011
21
-54.1999999999999957
0
LINE
8
BLACK
6
CONTINUOUS
10
50.2800000000000011
20
-54.1999999999999957
11
50.7800000000000011
21
-54.1999999999999957
0
LINE
8
BLACK
6
CONTINUOUS
10
50.7800000000000011
20
-54.1999999999999957
11
50.7800000000000011
21
-53.5521719999999988
0
LINE
8
BLACK
6
CONTINUOUS
10
50.7800000000000011
20
-53.5521719999999988
11
50.7799989999999966
21
-53.5521549999999991
0
LINE
8
BLACK
6
CONTINUOUS
10
50.7799989999999966
20
-53.5521549999999991
11
50.7735979999999998
21
-53.4926269999999988
0
LINE
8
BLACK
6
CONTINUOUS
10
50.7735979999999998
20
-53.4926269999999988
11
50.7735959999999977
21
-53.4926199999999952
0
LINE
8
BLACK
6
CONTINUOUS
10
50.7735959999999977
20
-53.4926199999999952
11
50.7233540000000005
21
-53.3579129999999964
0
LINE
8
BLACK
6
CONTINUOUS
10
50.7233540000000005
20
-53.3579129999999964
11
50.7233499999999964
21
-53.3579059999999998
0
LINE
8
BLACK
6
CONTINUOUS
10
50.7233499999999964
20
-53.3579059999999998
11
50.6371899999999968
21
-53.2428120000000007
0
LINE
8
BLACK
6
CONTINUOUS
10
50.6371899999999968
20
-53.2428120000000007
11
50.6371869999999973
21
-53.2428089999999941
0
LINE
8
BLACK
6
CONTINUOUS
10
50.6371869999999973
20
-53.2428089999999941
11
50.5220929999999981
21
-53.1566489999999945
0
LINE
8
BLACK
6
CONTINUOUS
10
50.5220929999999981
20
-53.1566489999999945
11
50.5220859999999945
21
-53.1566449999999975
0
LINE
8
BLACK
6
CONTINUOUS
10
50.5220859999999945
20
-53.1566449999999975
11
50.3873789999999957
21
-53.1064030000000002
0
LINE
8
BLACK
6
CONTINUOUS
10
50.3873789999999957
20
-53.1064030000000002
11
50.3873719999999992
21
-53.1064009999999982
0
LINE
8
BLACK
6
CONTINUOUS
10
50.3873719999999992
20
-53.1064009999999982
11
50.3278439999999989
21
-53.0999999999999943
0
LINE
8
BLACK
6
CONTINUOUS
10
50.3278439999999989
20
-53.0999999999999943
11
47.8799999999999955
21
-53.0999999999999943
0
LINE
8
BLACK
6
CONTINUOUS
10
47.8799999999999955
20
-53.0999999999999943
11
47.8799999999999955
21
-53.5999999999999943
0
LINE
8
BLACK
6
CONTINUOUS
10
47.8799999999999955
20
-46.5
11
50.2800000000000011
21
-46.5
0
LINE
8
BLACK
6
CONTINUOUS
10
50.2800000000000011
20
-46.5
11
50.2800000000000011
21
-47.1000000000000014
0
LINE
8
BLACK
6
CONTINUOUS
10
50.2800000000000011
20
-47.1000000000000014
11
50.7800000000000011
21
-47.1000000000000014
0
LINE
8
BLACK
6
CONTINUOUS
10
50.7800000000000011
20
-47.1000000000000014
11
50.7800000000000011
21
-46.4521719999999974
0
LINE
8
BLACK
6
CONTINUOUS
10
50.7800000000000011
20
-46.4521719999999974
11
50.7799989999999966
21
-46.4521549999999976
0
LINE
8
BLACK
6
CONTINUOUS
10
50.7799989999999966
20
-46.4521549999999976
11
50.7735979999999998
21
-46.3926269999999974
0
LINE
8
BLACK
6
CONTINUOUS
10
50.7735979999999998
20
-46.3926269999999974
11
50.7735959999999977
21
-46.3926200000000009
0
LINE
8
BLACK
6
CONTINUOUS
10
50.7735959999999977
20
-46.3926200000000009
11
50.7233540000000005
21
-46.257912999999995
0
LINE
8
BLACK
6
CONTINUOUS
10
50.7233540000000005
20
-46.257912999999995
11
50.7233499999999964
21
-46.2579059999999984
0
LINE
8
BLACK
6
CONTINUOUS
10
50.7233499999999964
20
-46.2579059999999984
11
50.6371899999999968
21
-46.1428119999999993
0
LINE
8
BLACK
6
CONTINUOUS
10
50.6371899999999968
20
-46.1428119999999993
11
50.6371869999999973
21
-46.1428089999999997
0
LINE
8
BLACK
6
CONTINUOUS
10
50.6371869999999973
20
-46.1428089999999997
11
50.5220929999999981
21
-46.0566490000000002
0
LINE
8
BLACK
6
CONTINUOUS
10
50.5220929999999981
20
-46.0566490000000002
11
50.5220859999999945
21
-46.0566449999999961
0
LINE
8
BLACK
6
CONTINUOUS
10
50.5220859999999945
20
-46.0566449999999961
11
50.3873789999999957
21
-46.0064029999999988
0
LINE
8
BLACK
6
CONTINUOUS
10
50.3873789999999957
20
-46.0064029999999988
11
50.3873719999999992
21
-46.0064009999999968
0
LINE
8
BLACK
6
CONTINUOUS
10
50.3873719999999992
20
-46.0064009999999968
11
50.3278439999999989
21
-46.
0
LINE
8
BLACK
6
CONTINUOUS
10
50.3278439999999989
20
-46.
11
47.8799999999999955
21
-46.
0
LINE
8
BLACK
6
CONTINUOUS
10
47.8799999999999955
20
-46.
11
47.8799999999999955
21
-46.5
0
LINE
8
BLACK
6
CONTINUOUS
10
24.9264009999999985
20
-55.3073720000000009
11
24.9264030000000005
21
-55.3073789999999974
0
LINE
8
BLACK
6
CONTINUOUS
10
24.9264030000000005
20
-55.3073789999999974
11
24.9766449999999978
21
-55.4420859999999962
0
LINE
8
BLACK
6
CONTINUOUS
10
24.9766449999999978
20
-55.4420859999999962
11
24.9766489999999983
21
-55.4420929999999998
0
LINE
8
BLACK
6
CONTINUOUS
10
24.9766489999999983
20
-55.4420929999999998
11
25.0628089999999979
21
-55.557186999999999
0
LINE
8
BLACK
6
CONTINUOUS
10
25.0628089999999979
20
-55.557186999999999
11
25.0628119999999974
21
-55.5571899999999985
0
LINE
8
BLACK
6
CONTINUOUS
10
25.0628119999999974
20
-55.5571899999999985
11
25.1779060000000001
21
-55.6433499999999981
0
LINE
8
BLACK
6
CONTINUOUS
10
25.1779060000000001
20
-55.6433499999999981
11
25.1779130000000002
21
-55.6433539999999951
0
LINE
8
BLACK
6
CONTINUOUS
10
25.1779130000000002
20
-55.6433539999999951
11
25.312619999999999
21
-55.6935959999999994
0
LINE
8
BLACK
6
CONTINUOUS
10
25.312619999999999
20
-55.6935959999999994
11
25.3126269999999991
21
-55.6935979999999944
0
LINE
8
BLACK
6
CONTINUOUS
10
25.3126269999999991
20
-55.6935979999999944
11
25.3721549999999993
21
-55.6999989999999983
0
LINE
8
BLACK
6
CONTINUOUS
10
25.3721549999999993
20
-55.6999989999999983
11
25.3721719999999991
21
-55.6999999999999957
0
LINE
8
BLACK
6
CONTINUOUS
10
25.3721719999999991
20
-55.6999999999999957
11
27.8200000000000003
21
-55.6999999999999957
0
LINE
8
BLACK
6
CONTINUOUS
10
27.8200000000000003
20
-55.6999999999999957
11
27.8200000000000003
21
-55.1999999999999957
0
LINE
8
BLACK
6
CONTINUOUS
10
27.8200000000000003
20
-55.1999999999999957
11
25.4199999999999982
21
-55.1999999999999957
0
LINE
8
BLACK
6
CONTINUOUS
10
25.4199999999999982
20
-55.1999999999999957
11
25.4199999999999982
21
-54.5999999999999943
0
LINE
8
BLACK
6
CONTINUOUS
10
25.4199999999999982
20
-54.5999999999999943
11
24.9199999999999982
21
-54.5999999999999943
0
LINE
8
BLACK
6
CONTINUOUS
10
24.9199999999999982
20
-54.5999999999999943
11
24.9199999999999982
21
-55.2478440000000006
0
LINE
8
BLACK
6
CONTINUOUS
10
24.9199999999999982
20
-55.2478440000000006
11
24.9264009999999985
21
-55.3073720000000009
0
LINE
8
BLACK
6
CONTINUOUS
10
24.9199999999999982
20
-54.0999999999999943
11
25.4199999999999982
21
-54.0999999999999943
0
LINE
8
BLACK
6
CONTINUOUS
10
25.4199999999999982
20
-54.0999999999999943
11
25.4199999999999982
21
-53.5
0
LINE
8
BLACK
6
CONTINUOUS
10
25.4199999999999982
20
-53.5
11
27.8200000000000003
21
-53.5
0
LINE
8
BLACK
6
CONTINUOUS
10
27.8200000000000003
20
-53.5
11
27.8200000000000003
21
-53.
0
LINE
8
BLACK
6
CONTINUOUS
10
27.8200000000000003
20
-53.
11
25.3721549999999993
21
-53.
0
LINE
8
BLACK
6
CONTINUOUS
10
25.3721549999999993
20
-53.
11
25.3126269999999991
21
-53.0064009999999968
0
LINE
8
BLACK
6
CONTINUOUS
10
25.3126269999999991
20
-53.0064009999999968
11
25.312619999999999
21
-53.0064029999999988
0
LINE
8
BLACK
6
CONTINUOUS
10
25.312619999999999
20
-53.0064029999999988
11
25.1779130000000002
21
-53.0566449999999961
0
LINE
8
BLACK
6
CONTINUOUS
10
25.1779130000000002
20
-53.0566449999999961
11
25.1779060000000001
21
-53.0566490000000002
0
LINE
8
BLACK
6
CONTINUOUS
10
25.1779060000000001
20
-53.0566490000000002
11
25.0628119999999974
21
-53.1428089999999997
0
LINE
8
BLACK
6
CONTINUOUS
10
25.0628119999999974
20
-53.1428089999999997
11
25.0628089999999979
21
-53.1428119999999993
0
LINE
8
BLACK
6
CONTINUOUS
10
25.0628089999999979
20
-53.1428119999999993
11
24.9766489999999983
21
-53.2579059999999984
0
LINE
8
BLACK
6
CONTINUOUS
10
24.9766489999999983
20
-53.2579059999999984
11
24.9766449999999978
21
-53.257912999999995
0
LINE
8
BLACK
6
CONTINUOUS
10
24.9766449999999978
20
-53.257912999999995
11
24.9264030000000005
21
-53.3926200000000009
0
LINE
8
BLACK
6
CONTINUOUS
10
24.9264030000000005
20
-53.3926200000000009
11
24.9264009999999985
21
-53.3926269999999974
0
LINE
8
BLACK
6
CONTINUOUS
10
24.9264009999999985
20
-53.3926269999999974
11
24.9199999999999982
21
-53.4521549999999976
0
LINE
8
BLACK
6
CONTINUOUS
10
24.9199999999999982
20
-53.4521549999999976
11
24.9199999999999982
21
-54.0999999999999943
0
LINE
8
BLACK
6
CONTINUOUS
10
50.3278279999999967
20
-48.6999999999999957
11
50.3278439999999989
21
-48.6999989999999983
0
LINE
8
BLACK
6
CONTINUOUS
10
50.3278439999999989
20
-48.6999989999999983
11
50.3873719999999992
21
-48.6935979999999944
0
LINE
8
BLACK
6
CONTINUOUS
10
50.3873719999999992
20
-48.6935979999999944
11
50.3873789999999957
21
-48.6935959999999994
0
LINE
8
BLACK
6
CONTINUOUS
10
50.3873789999999957
20
-48.6935959999999994
11
50.5220859999999945
21
-48.6433539999999951
0
LINE
8
BLACK
6
CONTINUOUS
10
50.5220859999999945
20
-48.6433539999999951
11
50.5220929999999981
21
-48.6433499999999981
0
LINE
8
BLACK
6
CONTINUOUS
10
50.5220929999999981
20
-48.6433499999999981
11
50.6371869999999973
21
-48.5571899999999985
0
LINE
8
BLACK
6
CONTINUOUS
10
50.6371869999999973
20
-48.5571899999999985
11
50.6371899999999968
21
-48.557186999999999
0
LINE
8
BLACK
6
CONTINUOUS
10
50.6371899999999968
20
-48.557186999999999
11
50.7233499999999964
21
-48.4420929999999998
0
LINE
8
BLACK
6
CONTINUOUS
10
50.7233499999999964
20
-48.4420929999999998
11
50.7233540000000005
21
-48.4420859999999962
0
LINE
8
BLACK
6
CONTINUOUS
10
50.7233540000000005
20
-48.4420859999999962
11
50.7735959999999977
21
-48.3073789999999974
0
LINE
8
BLACK
6
CONTINUOUS
10
50.7735959999999977
20
-48.3073789999999974
11
50.7735979999999998
21
-48.3073720000000009
0
LINE
8
BLACK
6
CONTINUOUS
10
50.7735979999999998
20
-48.3073720000000009
11
50.7799989999999966
21
-48.2478440000000006
0
LINE
8
BLACK
6
CONTINUOUS
10
50.7799989999999966
20
-48.2478440000000006
11
50.7800000000000011
21
-48.2478270000000009
0
LINE
8
BLACK
6
CONTINUOUS
10
50.7800000000000011
20
-48.2478270000000009
11
50.7800000000000011
21
-47.5999999999999943
0
LINE
8
BLACK
6
CONTINUOUS
10
50.7800000000000011
20
-47.5999999999999943
11
50.2800000000000011
21
-47.5999999999999943
0
LINE
8
BLACK
6
CONTINUOUS
10
50.2800000000000011
20
-47.5999999999999943
11
50.2800000000000011
21
-48.1999999999999957
0
LINE
8
BLACK
6
CONTINUOUS
10
50.2800000000000011
20
-48.1999999999999957
11
47.8799999999999955
21
-48.1999999999999957
0
LINE
8
BLACK
6
CONTINUOUS
10
47.8799999999999955
20
-48.1999999999999957
11
47.8799999999999955
21
-48.6999999999999957
0
LINE
8
BLACK
6
CONTINUOUS
10
47.8799999999999955
20
-48.6999999999999957
11
50.3278279999999967
21
-48.6999999999999957
0
LINE
8
BLACK
6
CONTINUOUS
10
24.9264009999999985
20
-48.2073719999999994
11
24.9264030000000005
21
-48.207378999999996
0
LINE
8
BLACK
6
CONTINUOUS
10
24.9264030000000005
20
-48.207378999999996
11
24.9766449999999978
21
-48.3420859999999948
0
LINE
8
BLACK
6
CONTINUOUS
10
24.9766449999999978
20
-48.3420859999999948
11
24.9766489999999983
21
-48.3420929999999984
0
LINE
8
BLACK
6
CONTINUOUS
10
24.9766489999999983
20
-48.3420929999999984
11
25.0628089999999979
21
-48.4571869999999976
0
LINE
8
BLACK
6
CONTINUOUS
10
25.0628089999999979
20
-48.4571869999999976
11
25.0628119999999974
21
-48.4571899999999971
0
LINE
8
BLACK
6
CONTINUOUS
10
25.0628119999999974
20
-48.4571899999999971
11
25.1779060000000001
21
-48.5433499999999967
0
LINE
8
BLACK
6
CONTINUOUS
10
25.1779060000000001
20
-48.5433499999999967
11
25.1779130000000002
21
-48.5433540000000008
0
LINE
8
BLACK
6
CONTINUOUS
10
25.1779130000000002
20
-48.5433540000000008
11
25.312619999999999
21
-48.593595999999998
0
LINE
8
BLACK
6
CONTINUOUS
10
25.312619999999999
20
-48.593595999999998
11
25.3126269999999991
21
-48.5935980000000001
0
LINE
8
BLACK
6
CONTINUOUS
10
25.3126269999999991
20
-48.5935980000000001
11
25.3721549999999993
21
-48.5999989999999968
0
LINE
8
BLACK
6
CONTINUOUS
10
25.3721549999999993
20
-48.5999989999999968
11
25.3721719999999991
21
-48.5999999999999943
0
LINE
8
BLACK
6
CONTINUOUS
10
25.3721719999999991
20
-48.5999999999999943
11
27.8200000000000003
21
-48.5999999999999943
0
LINE
8
BLACK
6
CONTINUOUS
10
27.8200000000000003
20
-48.5999999999999943
11
27.8200000000000003
21
-48.0999999999999943
0
LINE
8
BLACK
6
CONTINUOUS
10
27.8200000000000003
20
-48.0999999999999943
11
25.4199999999999982
21
-48.0999999999999943
0
LINE
8
BLACK
6
CONTINUOUS
10
25.4199999999999982
20
-48.0999999999999943
11
25.4199999999999982
21
-47.5
0
LINE
8
BLACK
6
CONTINUOUS
10
25.4199999999999982
20
-47.5
11
24.9199999999999982
21
-47.5
0
LINE
8
BLACK
6
CONTINUOUS
10
24.9199999999999982
20
-47.5
11
24.9199999999999982
21
-48.1478439999999992
0
LINE
8
BLACK
6
CONTINUOUS
10
24.9199999999999982
20
-48.1478439999999992
11
24.9264009999999985
21
-48.2073719999999994
0
LINE
8
BLACK
6
CONTINUOUS
10
44.4799999999999969
20
-47.1000000000000014
11
44.9799999999999969
21
-47.1000000000000014
0
LINE
8
BLACK
6
CONTINUOUS
10
44.9799999999999969
20
-47.1000000000000014
11
44.9799999999999969
21
-46.5
0
LINE
8
BLACK
6
CONTINUOUS
10
44.9799999999999969
20
-46.5
11
47.3799999999999955
21
-46.5
0
LINE
8
BLACK
6
CONTINUOUS
10
47.3799999999999955
20
-46.5
11
47.3799999999999955
21
-46.
0
LINE
8
BLACK
6
CONTINUOUS
10
47.3799999999999955
20
-46.
11
44.9321549999999945
21
-46.
0
LINE
8
BLACK
6
CONTINUOUS
10
44.9321549999999945
20
-46.
11
44.8726270000000014
21
-46.0064009999999968
0
LINE
8
BLACK
6
CONTINUOUS
10
44.8726270000000014
20
-46.0064009999999968
11
44.8726199999999977
21
-46.0064029999999988
0
LINE
8
BLACK
6
CONTINUOUS
10
44.8726199999999977
20
-46.0064029999999988
11
44.7379129999999989
21
-46.0566449999999961
0
LINE
8
BLACK
6
CONTINUOUS
10
44.7379129999999989
20
-46.0566449999999961
11
44.7379059999999953
21
-46.0566490000000002
0
LINE
8
BLACK
6
CONTINUOUS
10
44.7379059999999953
20
-46.0566490000000002
11
44.6228119999999961
21
-46.1428089999999997
0
LINE
8
BLACK
6
CONTINUOUS
10
44.6228119999999961
20
-46.1428089999999997
11
44.6228089999999966
21
-46.1428119999999993
0
LINE
8
BLACK
6
CONTINUOUS
10
44.6228089999999966
20
-46.1428119999999993
11
44.536648999999997
21
-46.2579059999999984
0
LINE
8
BLACK
6
CONTINUOUS
10
44.536648999999997
20
-46.2579059999999984
11
44.536645
21
-46.257912999999995
0
LINE
8
BLACK
6
CONTINUOUS
10
44.536645
20
-46.257912999999995
11
44.4864029999999957
21
-46.3926200000000009
0
LINE
8
BLACK
6
CONTINUOUS
10
44.4864029999999957
20
-46.3926200000000009
11
44.4864010000000007
21
-46.3926269999999974
0
LINE
8
BLACK
6
CONTINUOUS
10
44.4864010000000007
20
-46.3926269999999974
11
44.4799999999999969
21
-46.4521549999999976
0
LINE
8
BLACK
6
CONTINUOUS
10
44.4799999999999969
20
-46.4521549999999976
11
44.4799999999999969
21
-47.1000000000000014
0
LINE
8
BLACK
6
CONTINUOUS
10
24.9199999999999982
20
-47.
11
25.4199999999999982
21
-47.
0
LINE
8
BLACK
6
CONTINUOUS
10
25.4199999999999982
20
-47.
11
25.4199999999999982
21
-46.3999999999999986
0
LINE
8
BLACK
6
CONTINUOUS
10
25.4199999999999982
20
-46.3999999999999986
11
27.8200000000000003
21
-46.3999999999999986
0
LINE
8
BLACK
6
CONTINUOUS
10
27.8200000000000003
20
-46.3999999999999986
11
27.8200000000000003
21
-45.8999999999999986
0
LINE
8
BLACK
6
CONTINUOUS
10
27.8200000000000003
20
-45.8999999999999986
11
25.3721549999999993
21
-45.8999999999999986
0
LINE
8
BLACK
6
CONTINUOUS
10
25.3721549999999993
20
-45.8999999999999986
11
25.3126269999999991
21
-45.9064009999999953
0
LINE
8
BLACK
6
CONTINUOUS
10
25.3126269999999991
20
-45.9064009999999953
11
25.312619999999999
21
-45.9064029999999974
0
LINE
8
BLACK
6
CONTINUOUS
10
25.312619999999999
20
-45.9064029999999974
11
25.1779130000000002
21
-45.9566449999999946
0
LINE
8
BLACK
6
CONTINUOUS
10
25.1779130000000002
20
-45.9566449999999946
11
25.1779060000000001
21
-45.9566489999999988
0
LINE
8
BLACK
6
CONTINUOUS
10
25.1779060000000001
20
-45.9566489999999988
11
25.0628119999999974
21
-46.0428089999999983
0
LINE
8
BLACK
6
CONTINUOUS
10
25.0628119999999974
20
-46.0428089999999983
11
25.0628089999999979
21
-46.0428119999999979
0
LINE
8
BLACK
6
CONTINUOUS
10
25.0628089999999979
20
-46.0428119999999979
11
24.9766489999999983
21
-46.157905999999997
0
LINE
8
BLACK
6
CONTINUOUS
10
24.9766489999999983
20
-46.157905999999997
11
24.9766449999999978
21
-46.1579130000000006
0
LINE
8
BLACK
6
CONTINUOUS
10
24.9766449999999978
20
-46.1579130000000006
11
24.9264030000000005
21
-46.2926199999999994
0
LINE
8
BLACK
6
CONTINUOUS
10
24.9264030000000005
20
-46.2926199999999994
11
24.9264009999999985
21
-46.292626999999996
0
LINE
8
BLACK
6
CONTINUOUS
10
24.9264009999999985
20
-46.292626999999996
11
24.9199999999999982
21
-46.3521549999999962
0
LINE
8
BLACK
6
CONTINUOUS
10
24.9199999999999982
20
-46.3521549999999962
11
24.9199999999999982
21
-47.
0
CIRCLE
8
BLACK
10
31.0999999999999979
20
-57.5
40
0.45
0
CIRCLE
8
BLACK
10
33.6400000000000006
20
-57.5
40
0.45
0
LINE
8
BLACK
6
CONTINUOUS
10
51.8095669999999942
20
-44.0769030000000015
11
51.8230969999999971
21
-44.0904329999999973
0
LINE
8
BLACK
6
CONTINUOUS
10
51.8230969999999971
20
-44.0904329999999973
11
51.8249999999999957
21
-62.
0
LINE
8
BLACK
6
CONTINUOUS
10
51.8249999999999957
20
-62.
11
51.8230969999999971
21
-62.009566999999997
0
LINE
8
BLACK
6
CONTINUOUS
10
51.8230969999999971
20
-62.009566999999997
11
51.8095669999999942
21
-62.0230969999999999
0
LINE
8
BLACK
6
CONTINUOUS
10
51.8095669999999942
20
-62.0230969999999999
11
23.7999999999999972
21
-62.0249999999999986
0
LINE
8
BLACK
6
CONTINUOUS
10
23.7999999999999972
20
-62.0249999999999986
11
23.7904330000000002
21
-62.0230969999999999
0
LINE
8
BLACK
6
CONTINUOUS
10
23.7904330000000002
20
-62.0230969999999999
11
23.7769029999999972
21
-62.009566999999997
0
LINE
8
BLACK
6
CONTINUOUS
10
23.7769029999999972
20
-62.009566999999997
11
23.7749999999999986
21
-44.1000000000000014
0
LINE
8
BLACK
6
CONTINUOUS
10
23.7749999999999986
20
-44.1000000000000014
11
23.7769029999999972
21
-44.0904329999999973
0
LINE
8
BLACK
6
CONTINUOUS
10
23.7769029999999972
20
-44.0904329999999973
11
23.7904330000000002
21
-44.0769030000000015
0
LINE
8
BLACK
6
CONTINUOUS
10
23.7904330000000002
20
-44.0769030000000015
11
51.7999999999999972
21
-44.0749999999999957
0
LINE
8
BLACK
6
CONTINUOUS
10
51.7999999999999972
20
-44.0749999999999957
11
51.8095669999999942
21
-44.0769030000000015
0
LINE
8
BLACK
6
CONTINUOUS
10
23.8231000000000002
20
-44.1249979999999979
11
23.8249969999999998
21
-61.9769000000000005
0
LINE
8
BLACK
6
CONTINUOUS
10
23.8249969999999998
20
-61.9769000000000005
11
51.7768990000000002
21
-61.9750009999999989
0
LINE
8
BLACK
6
CONTINUOUS
10
51.7768990000000002
20
-61.9750009999999989
11
51.7750020000000006
21
-44.1230989999999963
0
LINE
8
BLACK
6
CONTINUOUS
10
51.7750020000000006
20
-44.1230989999999963
11
23.8231000000000002
21
-44.1249979999999979
  0
ENDSEC
  0
EOF
