%TF.GenerationSoftware,KiCad,Pcbnew,8.0.0*%
%TF.CreationDate,2024-03-13T17:22:47+01:00*%
%TF.ProjectId,BalloonMotherboardV3,42616c6c-6f6f-46e4-9d6f-74686572626f,rev?*%
%TF.SameCoordinates,Original*%
%TF.FileFunction,Soldermask,Bot*%
%TF.FilePolarity,Negative*%
%FSLAX46Y46*%
G04 Gerber Fmt 4.6, Leading zero omitted, Abs format (unit mm)*
G04 Created by KiCad (PCBNEW 8.0.0) date 2024-03-13 17:22:47*
%MOMM*%
%LPD*%
G01*
G04 APERTURE LIST*
G04 Aperture macros list*
%AMRoundRect*
0 Rectangle with rounded corners*
0 $1 Rounding radius*
0 $2 $3 $4 $5 $6 $7 $8 $9 X,Y pos of 4 corners*
0 Add a 4 corners polygon primitive as box body*
4,1,4,$2,$3,$4,$5,$6,$7,$8,$9,$2,$3,0*
0 Add four circle primitives for the rounded corners*
1,1,$1+$1,$2,$3*
1,1,$1+$1,$4,$5*
1,1,$1+$1,$6,$7*
1,1,$1+$1,$8,$9*
0 Add four rect primitives between the rounded corners*
20,1,$1+$1,$2,$3,$4,$5,0*
20,1,$1+$1,$4,$5,$6,$7,0*
20,1,$1+$1,$6,$7,$8,$9,0*
20,1,$1+$1,$8,$9,$2,$3,0*%
G04 Aperture macros list end*
%ADD10C,0.150000*%
%ADD11C,3.600000*%
%ADD12C,5.600000*%
%ADD13R,1.700000X1.700000*%
%ADD14O,1.700000X1.700000*%
%ADD15C,3.250000*%
%ADD16R,1.400000X1.400000*%
%ADD17C,1.400000*%
%ADD18C,1.530000*%
%ADD19C,2.400000*%
%ADD20R,1.500000X0.900000*%
%ADD21R,1.500000X3.200000*%
%ADD22RoundRect,0.140000X0.170000X-0.140000X0.170000X0.140000X-0.170000X0.140000X-0.170000X-0.140000X0*%
%ADD23R,2.050000X2.250000*%
%ADD24R,2.250000X2.050000*%
%ADD25RoundRect,0.140000X-0.140000X-0.170000X0.140000X-0.170000X0.140000X0.170000X-0.140000X0.170000X0*%
%ADD26RoundRect,0.250000X0.650000X-0.412500X0.650000X0.412500X-0.650000X0.412500X-0.650000X-0.412500X0*%
%ADD27RoundRect,0.140000X-0.170000X0.140000X-0.170000X-0.140000X0.170000X-0.140000X0.170000X0.140000X0*%
%ADD28RoundRect,0.250000X-0.650000X0.412500X-0.650000X-0.412500X0.650000X-0.412500X0.650000X0.412500X0*%
%ADD29R,2.000000X5.300000*%
%ADD30RoundRect,0.140000X0.140000X0.170000X-0.140000X0.170000X-0.140000X-0.170000X0.140000X-0.170000X0*%
G04 APERTURE END LIST*
G36*
X46990000Y-169291000D02*
G01*
X49784000Y-169291000D01*
X49784000Y-174625000D01*
X46990000Y-174625000D01*
X46990000Y-169291000D01*
G37*
D10*
X46291500Y-99060000D02*
X46926500Y-99060000D01*
X46926500Y-175260000D01*
X46291500Y-175260000D01*
X46291500Y-99060000D01*
G36*
X46291500Y-99060000D02*
G01*
X46926500Y-99060000D01*
X46926500Y-175260000D01*
X46291500Y-175260000D01*
X46291500Y-99060000D01*
G37*
X103124000Y-129540000D02*
X99822000Y-129540000D01*
X99822000Y-126238000D01*
X102000000Y-126238000D01*
X103124000Y-126238000D01*
X103124000Y-129540000D01*
G36*
X103124000Y-129540000D02*
G01*
X99822000Y-129540000D01*
X99822000Y-126238000D01*
X102000000Y-126238000D01*
X103124000Y-126238000D01*
X103124000Y-129540000D01*
G37*
G36*
X46990000Y-102235000D02*
G01*
X49657000Y-102235000D01*
X49657000Y-105029000D01*
X46990000Y-105029000D01*
X46990000Y-102235000D01*
G37*
X133350000Y-160274000D02*
X142240000Y-160274000D01*
X142240000Y-167132000D01*
X133350000Y-167132000D01*
X133350000Y-160274000D01*
G36*
X133350000Y-160274000D02*
G01*
X142240000Y-160274000D01*
X142240000Y-167132000D01*
X133350000Y-167132000D01*
X133350000Y-160274000D01*
G37*
G36*
X164211000Y-99695000D02*
G01*
X167005000Y-99695000D01*
X167005000Y-102362000D01*
X164211000Y-102362000D01*
X164211000Y-99695000D01*
G37*
G36*
X166878000Y-169291000D02*
G01*
X169545000Y-169291000D01*
X169545000Y-172085000D01*
X166878000Y-172085000D01*
X166878000Y-169291000D01*
G37*
G36*
X166751000Y-99695000D02*
G01*
X169545000Y-99695000D01*
X169545000Y-105029000D01*
X166751000Y-105029000D01*
X166751000Y-99695000D01*
G37*
X169418000Y-99060000D02*
X170053000Y-99060000D01*
X170053000Y-175260000D01*
X169418000Y-175260000D01*
X169418000Y-99060000D01*
G36*
X169418000Y-99060000D02*
G01*
X170053000Y-99060000D01*
X170053000Y-175260000D01*
X169418000Y-175260000D01*
X169418000Y-99060000D01*
G37*
X46291500Y-99060000D02*
X170116500Y-99060000D01*
X170116500Y-99695000D01*
X46291500Y-99695000D01*
X46291500Y-99060000D01*
G36*
X46291500Y-99060000D02*
G01*
X170116500Y-99060000D01*
X170116500Y-99695000D01*
X46291500Y-99695000D01*
X46291500Y-99060000D01*
G37*
X88392000Y-128778000D02*
X85598000Y-128778000D01*
X85598000Y-124460000D01*
X88392000Y-124460000D01*
X88392000Y-128778000D01*
G36*
X88392000Y-128778000D02*
G01*
X85598000Y-128778000D01*
X85598000Y-124460000D01*
X88392000Y-124460000D01*
X88392000Y-128778000D01*
G37*
G36*
X46990000Y-99695000D02*
G01*
X52324000Y-99695000D01*
X52324000Y-102489000D01*
X46990000Y-102489000D01*
X46990000Y-99695000D01*
G37*
X46863000Y-174625000D02*
X170053000Y-174625000D01*
X170053000Y-175260000D01*
X46863000Y-175260000D01*
X46863000Y-174625000D01*
G36*
X46863000Y-174625000D02*
G01*
X170053000Y-174625000D01*
X170053000Y-175260000D01*
X46863000Y-175260000D01*
X46863000Y-174625000D01*
G37*
G36*
X49530000Y-171958000D02*
G01*
X52324000Y-171958000D01*
X52324000Y-174625000D01*
X49530000Y-174625000D01*
X49530000Y-171958000D01*
G37*
G36*
X164211000Y-171831000D02*
G01*
X169545000Y-171831000D01*
X169545000Y-174625000D01*
X164211000Y-174625000D01*
X164211000Y-171831000D01*
G37*
D11*
%TO.C,H1*%
X49530000Y-102235000D03*
D12*
X49530000Y-102235000D03*
%TD*%
D13*
%TO.C,scl0*%
X140263800Y-111404400D03*
D14*
X142803800Y-111404400D03*
X145343800Y-111404400D03*
X147883800Y-111404400D03*
X150423800Y-111404400D03*
%TD*%
D13*
%TO.C,JHVA1*%
X115067000Y-165989000D03*
D14*
X112527000Y-165989000D03*
%TD*%
D13*
%TO.C,J6*%
X161920000Y-102006400D03*
D14*
X159380000Y-102006400D03*
X156840000Y-102006400D03*
X154300000Y-102006400D03*
X151760000Y-102006400D03*
X149220000Y-102006400D03*
X146680000Y-102006400D03*
X144140000Y-102006400D03*
X141600000Y-102006400D03*
X139060000Y-102006400D03*
%TD*%
D11*
%TO.C,H3*%
X167005000Y-172085000D03*
D12*
X167005000Y-172085000D03*
%TD*%
D15*
%TO.C,J3*%
X163730000Y-145415000D03*
X163730000Y-133985000D03*
D16*
X157380000Y-144145000D03*
D17*
X154840000Y-142875000D03*
X157380000Y-141605000D03*
X154840000Y-140335000D03*
X157380000Y-139065000D03*
X154840000Y-137795000D03*
X157380000Y-136525000D03*
X154840000Y-135255000D03*
D18*
X168810000Y-146025000D03*
X167110000Y-143485000D03*
X168810000Y-135915000D03*
X167110000Y-133375000D03*
D19*
X160680000Y-147575000D03*
X160680000Y-131825000D03*
%TD*%
D11*
%TO.C,H2*%
X49530000Y-172085000D03*
D12*
X49530000Y-172085000D03*
%TD*%
D13*
%TO.C,J5*%
X164587000Y-118262400D03*
D14*
X162047000Y-118262400D03*
X159507000Y-118262400D03*
X156967000Y-118262400D03*
X154427000Y-118262400D03*
X151887000Y-118262400D03*
X149347000Y-118262400D03*
X146807000Y-118262400D03*
X144267000Y-118262400D03*
X141727000Y-118262400D03*
%TD*%
D13*
%TO.C,scl1*%
X139857400Y-123494800D03*
D14*
X142397400Y-123494800D03*
X144937400Y-123494800D03*
X147477400Y-123494800D03*
X150017400Y-123494800D03*
%TD*%
D11*
%TO.C,H4*%
X167005000Y-102235000D03*
D12*
X167005000Y-102235000D03*
%TD*%
D13*
%TO.C,JB_or_U1*%
X113299000Y-122428000D03*
D14*
X115839000Y-122428000D03*
X118379000Y-122428000D03*
%TD*%
D13*
%TO.C,J4*%
X90419000Y-108712000D03*
D14*
X92959000Y-108712000D03*
%TD*%
D13*
%TO.C,J5V2*%
X83439000Y-138542000D03*
D14*
X83439000Y-136002000D03*
X83439000Y-133462000D03*
%TD*%
D20*
%TO.C,ICH4*%
X68886000Y-168924000D03*
X68886000Y-166624000D03*
X68886000Y-164324000D03*
D21*
X75386000Y-166624000D03*
%TD*%
D22*
%TO.C,C60*%
X86868000Y-166596000D03*
X86868000Y-165636000D03*
%TD*%
D23*
%TO.C,D5*%
X123393200Y-155311200D03*
X123393200Y-150911200D03*
%TD*%
D20*
%TO.C,ICH6*%
X88698000Y-168924000D03*
X88698000Y-166624000D03*
X88698000Y-164324000D03*
D21*
X95198000Y-166624000D03*
%TD*%
D23*
%TO.C,D7*%
X123342400Y-162728000D03*
X123342400Y-158328000D03*
%TD*%
D24*
%TO.C,D9*%
X117008000Y-170688000D03*
X112608000Y-170688000D03*
%TD*%
D25*
%TO.C,C59*%
X75466000Y-170942000D03*
X76426000Y-170942000D03*
%TD*%
D26*
%TO.C,C27*%
X146050000Y-150406500D03*
X146050000Y-147281500D03*
%TD*%
D24*
%TO.C,D8*%
X126152000Y-170688000D03*
X121752000Y-170688000D03*
%TD*%
D27*
%TO.C,C61*%
X95250000Y-171224000D03*
X95250000Y-172184000D03*
%TD*%
D28*
%TO.C,C43*%
X133350000Y-138137500D03*
X133350000Y-141262500D03*
%TD*%
D29*
%TO.C,F1*%
X70360000Y-140462000D03*
X76960000Y-140462000D03*
%TD*%
D20*
%TO.C,ICH5*%
X78538000Y-168924000D03*
X78538000Y-166624000D03*
X78538000Y-164324000D03*
D21*
X85038000Y-166624000D03*
%TD*%
D20*
%TO.C,ICH7*%
X100382000Y-169432000D03*
X100382000Y-167132000D03*
X100382000Y-164832000D03*
D21*
X106882000Y-167132000D03*
%TD*%
D30*
%TO.C,C58*%
X106652000Y-171704000D03*
X105692000Y-171704000D03*
%TD*%
M02*
