%TF.GenerationSoftware,KiCad,Pcbnew,8.0.0*%
%TF.CreationDate,2024-04-11T21:11:57+02:00*%
%TF.ProjectId,BalloonMotherboardV4,42616c6c-6f6f-46e4-9d6f-74686572626f,rev?*%
%TF.SameCoordinates,Original*%
%TF.FileFunction,Soldermask,Top*%
%TF.FilePolarity,Negative*%
%FSLAX46Y46*%
G04 Gerber Fmt 4.6, Leading zero omitted, Abs format (unit mm)*
G04 Created by KiCad (PCBNEW 8.0.0) date 2024-04-11 21:11:57*
%MOMM*%
%LPD*%
G01*
G04 APERTURE LIST*
G04 Aperture macros list*
%AMRoundRect*
0 Rectangle with rounded corners*
0 $1 Rounding radius*
0 $2 $3 $4 $5 $6 $7 $8 $9 X,Y pos of 4 corners*
0 Add a 4 corners polygon primitive as box body*
4,1,4,$2,$3,$4,$5,$6,$7,$8,$9,$2,$3,0*
0 Add four circle primitives for the rounded corners*
1,1,$1+$1,$2,$3*
1,1,$1+$1,$4,$5*
1,1,$1+$1,$6,$7*
1,1,$1+$1,$8,$9*
0 Add four rect primitives between the rounded corners*
20,1,$1+$1,$2,$3,$4,$5,0*
20,1,$1+$1,$4,$5,$6,$7,0*
20,1,$1+$1,$6,$7,$8,$9,0*
20,1,$1+$1,$8,$9,$2,$3,0*%
%AMFreePoly0*
4,1,19,0.550000,-0.750000,0.000000,-0.750000,0.000000,-0.744911,-0.071157,-0.744911,-0.207708,-0.704816,-0.327430,-0.627875,-0.420627,-0.520320,-0.479746,-0.390866,-0.500000,-0.250000,-0.500000,0.250000,-0.479746,0.390866,-0.420627,0.520320,-0.327430,0.627875,-0.207708,0.704816,-0.071157,0.744911,0.000000,0.744911,0.000000,0.750000,0.550000,0.750000,0.550000,-0.750000,0.550000,-0.750000,
$1*%
%AMFreePoly1*
4,1,19,0.000000,0.744911,0.071157,0.744911,0.207708,0.704816,0.327430,0.627875,0.420627,0.520320,0.479746,0.390866,0.500000,0.250000,0.500000,-0.250000,0.479746,-0.390866,0.420627,-0.520320,0.327430,-0.627875,0.207708,-0.704816,0.071157,-0.744911,0.000000,-0.744911,0.000000,-0.750000,-0.550000,-0.750000,-0.550000,0.750000,0.000000,0.750000,0.000000,0.744911,0.000000,0.744911,
$1*%
%AMFreePoly2*
4,1,19,0.500000,-0.750000,0.000000,-0.750000,0.000000,-0.744911,-0.071157,-0.744911,-0.207708,-0.704816,-0.327430,-0.627875,-0.420627,-0.520320,-0.479746,-0.390866,-0.500000,-0.250000,-0.500000,0.250000,-0.479746,0.390866,-0.420627,0.520320,-0.327430,0.627875,-0.207708,0.704816,-0.071157,0.744911,0.000000,0.744911,0.000000,0.750000,0.500000,0.750000,0.500000,-0.750000,0.500000,-0.750000,
$1*%
%AMFreePoly3*
4,1,19,0.000000,0.744911,0.071157,0.744911,0.207708,0.704816,0.327430,0.627875,0.420627,0.520320,0.479746,0.390866,0.500000,0.250000,0.500000,-0.250000,0.479746,-0.390866,0.420627,-0.520320,0.327430,-0.627875,0.207708,-0.704816,0.071157,-0.744911,0.000000,-0.744911,0.000000,-0.750000,-0.500000,-0.750000,-0.500000,0.750000,0.000000,0.750000,0.000000,0.744911,0.000000,0.744911,
$1*%
G04 Aperture macros list end*
%ADD10C,0.100000*%
%ADD11R,0.950000X0.700000*%
%ADD12RoundRect,0.237500X0.237500X-0.250000X0.237500X0.250000X-0.237500X0.250000X-0.237500X-0.250000X0*%
%ADD13C,1.000000*%
%ADD14RoundRect,0.237500X-0.237500X0.250000X-0.237500X-0.250000X0.237500X-0.250000X0.237500X0.250000X0*%
%ADD15RoundRect,0.155000X-0.155000X0.212500X-0.155000X-0.212500X0.155000X-0.212500X0.155000X0.212500X0*%
%ADD16R,3.200000X1.200000*%
%ADD17R,5.300000X1.700000*%
%ADD18R,1.200000X3.200000*%
%ADD19R,1.700000X5.300000*%
%ADD20R,0.400000X0.400000*%
%ADD21RoundRect,0.250000X-0.475000X0.337500X-0.475000X-0.337500X0.475000X-0.337500X0.475000X0.337500X0*%
%ADD22RoundRect,0.160000X-0.197500X-0.160000X0.197500X-0.160000X0.197500X0.160000X-0.197500X0.160000X0*%
%ADD23C,3.250000*%
%ADD24R,1.400000X1.400000*%
%ADD25C,1.400000*%
%ADD26C,1.530000*%
%ADD27C,2.400000*%
%ADD28C,0.700000*%
%ADD29C,4.400000*%
%ADD30RoundRect,0.250000X0.475000X-0.337500X0.475000X0.337500X-0.475000X0.337500X-0.475000X-0.337500X0*%
%ADD31RoundRect,0.250000X-0.337500X-0.475000X0.337500X-0.475000X0.337500X0.475000X-0.337500X0.475000X0*%
%ADD32R,0.450000X1.475000*%
%ADD33RoundRect,0.155000X0.212500X0.155000X-0.212500X0.155000X-0.212500X-0.155000X0.212500X-0.155000X0*%
%ADD34RoundRect,0.140000X0.140000X0.170000X-0.140000X0.170000X-0.140000X-0.170000X0.140000X-0.170000X0*%
%ADD35R,0.650000X1.528000*%
%ADD36RoundRect,0.237500X-0.250000X-0.237500X0.250000X-0.237500X0.250000X0.237500X-0.250000X0.237500X0*%
%ADD37RoundRect,0.237500X0.250000X0.237500X-0.250000X0.237500X-0.250000X-0.237500X0.250000X-0.237500X0*%
%ADD38R,1.300000X1.150000*%
%ADD39RoundRect,0.155000X0.155000X-0.212500X0.155000X0.212500X-0.155000X0.212500X-0.155000X-0.212500X0*%
%ADD40R,0.300000X0.475000*%
%ADD41C,2.000000*%
%ADD42RoundRect,0.140000X-0.140000X-0.170000X0.140000X-0.170000X0.140000X0.170000X-0.140000X0.170000X0*%
%ADD43FreePoly0,180.000000*%
%ADD44R,1.000000X1.500000*%
%ADD45FreePoly1,180.000000*%
%ADD46RoundRect,0.155000X-0.212500X-0.155000X0.212500X-0.155000X0.212500X0.155000X-0.212500X0.155000X0*%
%ADD47R,1.070000X0.770000*%
%ADD48RoundRect,0.250000X0.337500X0.475000X-0.337500X0.475000X-0.337500X-0.475000X0.337500X-0.475000X0*%
%ADD49R,1.250000X0.600000*%
%ADD50FreePoly2,0.000000*%
%ADD51FreePoly3,0.000000*%
%ADD52C,0.650000*%
%ADD53R,0.600000X1.150000*%
%ADD54R,0.300000X1.150000*%
%ADD55R,1.500000X1.500000*%
%ADD56R,1.000000X0.900000*%
%ADD57R,0.550000X1.700000*%
%ADD58FreePoly0,0.000000*%
%ADD59FreePoly1,0.000000*%
%ADD60R,1.528000X0.650000*%
%ADD61R,2.250000X2.050000*%
%ADD62R,1.500000X0.900000*%
%ADD63R,1.500000X3.200000*%
%ADD64R,1.000000X1.450000*%
%ADD65RoundRect,0.150000X-0.650000X-0.150000X0.650000X-0.150000X0.650000X0.150000X-0.650000X0.150000X0*%
%ADD66R,1.200000X1.850000*%
%ADD67R,1.400000X1.200000*%
%ADD68FreePoly2,90.000000*%
%ADD69FreePoly3,90.000000*%
%ADD70R,1.700000X1.700000*%
%ADD71O,1.700000X1.700000*%
%ADD72FreePoly2,270.000000*%
%ADD73FreePoly3,270.000000*%
%ADD74R,1.100000X0.600000*%
%ADD75R,0.850000X0.200000*%
%ADD76R,0.200000X0.850000*%
%ADD77R,3.200000X3.200000*%
%ADD78FreePoly2,180.000000*%
%ADD79FreePoly3,180.000000*%
%ADD80FreePoly0,270.000000*%
%ADD81R,1.500000X1.000000*%
%ADD82FreePoly1,270.000000*%
%ADD83R,0.800000X1.500000*%
%ADD84R,1.450000X2.000000*%
%ADD85R,0.900000X1.000000*%
%ADD86R,1.700000X0.550000*%
%ADD87RoundRect,0.140000X0.170000X-0.140000X0.170000X0.140000X-0.170000X0.140000X-0.170000X-0.140000X0*%
%ADD88R,5.500000X1.450000*%
%ADD89R,1.475000X0.450000*%
G04 APERTURE END LIST*
D10*
X22860000Y-34798000D02*
X103886000Y-34798000D01*
X103886000Y-35306000D01*
X22860000Y-35306000D01*
X22860000Y-34798000D01*
X23114000Y-115316000D02*
X103378000Y-115316000D01*
X103378000Y-115824000D01*
X23114000Y-115824000D01*
X23114000Y-115316000D01*
X20828000Y-37084000D02*
X21336000Y-37084000D01*
X21336000Y-113538000D01*
X20828000Y-113538000D01*
X20828000Y-37084000D01*
X103886000Y-34798000D02*
G75*
G02*
X105664000Y-36576000I0J-1778000D01*
G01*
X105156000Y-36576000D02*
X105664000Y-36576000D01*
X105664000Y-113538000D01*
X105156000Y-113538000D01*
X105156000Y-36576000D01*
X103886000Y-35306000D02*
G75*
G02*
X105156000Y-36576000I0J-1270000D01*
G01*
D11*
%TO.C,RT0*%
X90170000Y-42810000D03*
X90170000Y-41010000D03*
%TD*%
D12*
%TO.C,R43*%
X80010000Y-49680500D03*
X80010000Y-47855500D03*
%TD*%
D13*
%TO.C,TP0*%
X70104000Y-76200000D03*
%TD*%
D14*
%TO.C,R33*%
X66040000Y-44807500D03*
X66040000Y-46632500D03*
%TD*%
D15*
%TO.C,C35*%
X67564000Y-64710500D03*
X67564000Y-65845500D03*
%TD*%
D12*
%TO.C,R47*%
X79248000Y-56792500D03*
X79248000Y-54967500D03*
%TD*%
D16*
%TO.C,GPIO1*%
X30951000Y-70310000D03*
X30951000Y-68310000D03*
X30951000Y-66310000D03*
X30951000Y-64310000D03*
D17*
X25471000Y-61760000D03*
X25471000Y-72860000D03*
%TD*%
D14*
%TO.C,R35*%
X76200000Y-49401000D03*
X76200000Y-51226000D03*
%TD*%
D18*
%TO.C,Ox0*%
X95578347Y-105550000D03*
X93578347Y-105550000D03*
X91578347Y-105550000D03*
X89578347Y-105550000D03*
D19*
X87028347Y-111030000D03*
X98128347Y-111030000D03*
%TD*%
D20*
%TO.C,LED1*%
X96496347Y-92197000D03*
X96496347Y-91397000D03*
X97296347Y-91397000D03*
X97296347Y-92197000D03*
%TD*%
D21*
%TO.C,C14*%
X71794000Y-94275500D03*
X71794000Y-96350500D03*
%TD*%
D22*
%TO.C,R25*%
X63664500Y-65278000D03*
X64859500Y-65278000D03*
%TD*%
D23*
%TO.C,J1*%
X34437000Y-103024000D03*
X45867000Y-103024000D03*
D24*
X35707000Y-96674000D03*
D25*
X36977000Y-94134000D03*
X38247000Y-96674000D03*
X39517000Y-94134000D03*
X40787000Y-96674000D03*
X42057000Y-94134000D03*
X43327000Y-96674000D03*
X44597000Y-94134000D03*
D26*
X33827000Y-108104000D03*
X36367000Y-106404000D03*
X43937000Y-108104000D03*
X46477000Y-106404000D03*
D27*
X32277000Y-99974000D03*
X48027000Y-99974000D03*
%TD*%
D28*
%TO.C,H0*%
X21464000Y-37084000D03*
X21947274Y-35917274D03*
X21947274Y-38250726D03*
X23114000Y-35434000D03*
D29*
X23114000Y-37084000D03*
D28*
X23114000Y-38734000D03*
X24280726Y-35917274D03*
X24280726Y-38250726D03*
X24764000Y-37084000D03*
%TD*%
D30*
%TO.C,C36*%
X73660000Y-51351000D03*
X73660000Y-49276000D03*
%TD*%
D12*
%TO.C,R23*%
X53340000Y-45362500D03*
X53340000Y-43537500D03*
%TD*%
D31*
%TO.C,C22*%
X59160500Y-45212000D03*
X61235500Y-45212000D03*
%TD*%
D32*
%TO.C,MUX0*%
X86879000Y-51452000D03*
X87529000Y-51452000D03*
X88179000Y-51452000D03*
X88829000Y-51452000D03*
X89479000Y-51452000D03*
X90129000Y-51452000D03*
X90779000Y-51452000D03*
X91429000Y-51452000D03*
X91429000Y-45576000D03*
X90779000Y-45576000D03*
X90129000Y-45576000D03*
X89479000Y-45576000D03*
X88829000Y-45576000D03*
X88179000Y-45576000D03*
X87529000Y-45576000D03*
X86879000Y-45576000D03*
%TD*%
D30*
%TO.C,C9*%
X73660000Y-105685500D03*
X73660000Y-103610500D03*
%TD*%
D15*
%TO.C,C17*%
X67476000Y-94745500D03*
X67476000Y-95880500D03*
%TD*%
%TO.C,C29*%
X66294000Y-64710500D03*
X66294000Y-65845500D03*
%TD*%
D33*
%TO.C,C28*%
X58987500Y-59690000D03*
X57852500Y-59690000D03*
%TD*%
D15*
%TO.C,C38*%
X85344000Y-48200500D03*
X85344000Y-49335500D03*
%TD*%
D34*
%TO.C,C63*%
X79728000Y-58420000D03*
X78768000Y-58420000D03*
%TD*%
D35*
%TO.C,OP0*%
X54483000Y-90341000D03*
X55753000Y-90341000D03*
X57023000Y-90341000D03*
X58293000Y-90341000D03*
X58293000Y-84919000D03*
X57023000Y-84919000D03*
X55753000Y-84919000D03*
X54483000Y-84919000D03*
%TD*%
D36*
%TO.C,R30*%
X42521500Y-72517000D03*
X44346500Y-72517000D03*
%TD*%
%TO.C,R36*%
X84939500Y-40132000D03*
X86764500Y-40132000D03*
%TD*%
D16*
%TO.C,GPIO0*%
X30951000Y-53800000D03*
X30951000Y-51800000D03*
X30951000Y-49800000D03*
X30951000Y-47800000D03*
D17*
X25471000Y-45250000D03*
X25471000Y-56350000D03*
%TD*%
D14*
%TO.C,R15*%
X75858000Y-103481500D03*
X75858000Y-105306500D03*
%TD*%
D37*
%TO.C,R27*%
X66698500Y-68072000D03*
X64873500Y-68072000D03*
%TD*%
D36*
%TO.C,R5*%
X48617500Y-58928000D03*
X50442500Y-58928000D03*
%TD*%
D38*
%TO.C,!bat0*%
X79502000Y-109728000D03*
X77602000Y-109728000D03*
%TD*%
D28*
%TO.C,H1*%
X88266000Y-37084000D03*
X88749274Y-35917274D03*
X88749274Y-38250726D03*
X89916000Y-35434000D03*
D29*
X89916000Y-37084000D03*
D28*
X89916000Y-38734000D03*
X91082726Y-35917274D03*
X91082726Y-38250726D03*
X91566000Y-37084000D03*
%TD*%
D12*
%TO.C,R18*%
X35306000Y-66190500D03*
X35306000Y-64365500D03*
%TD*%
D37*
%TO.C,R38*%
X83716500Y-53340000D03*
X81891500Y-53340000D03*
%TD*%
D39*
%TO.C,C24*%
X62484000Y-71433500D03*
X62484000Y-70298500D03*
%TD*%
D36*
%TO.C,R10*%
X58523500Y-82550000D03*
X60348500Y-82550000D03*
%TD*%
D35*
%TO.C,OP1*%
X78867000Y-45637000D03*
X80137000Y-45637000D03*
X81407000Y-45637000D03*
X82677000Y-45637000D03*
X82677000Y-40215000D03*
X81407000Y-40215000D03*
X80137000Y-40215000D03*
X78867000Y-40215000D03*
%TD*%
D37*
%TO.C,R8*%
X59078500Y-92964000D03*
X57253500Y-92964000D03*
%TD*%
D40*
%TO.C,BUCK0*%
X73560000Y-99301000D03*
X73060000Y-99301000D03*
X72560000Y-99301000D03*
X72060000Y-99301000D03*
X72060000Y-100977000D03*
X72560000Y-100977000D03*
X73060000Y-100977000D03*
X73560000Y-100977000D03*
%TD*%
D33*
%TO.C,C19*%
X27999500Y-42418000D03*
X26864500Y-42418000D03*
%TD*%
D41*
%TO.C,TPGND0*%
X22352000Y-96520000D03*
%TD*%
D12*
%TO.C,R49*%
X91948000Y-80160500D03*
X91948000Y-78335500D03*
%TD*%
D39*
%TO.C,C20*%
X35306000Y-62543500D03*
X35306000Y-61408500D03*
%TD*%
D16*
%TO.C,RS-0*%
X95795000Y-74216000D03*
X95795000Y-76216000D03*
X95795000Y-78216000D03*
X95795000Y-80216000D03*
D17*
X101275000Y-82766000D03*
X101275000Y-71666000D03*
%TD*%
D42*
%TO.C,C67*%
X81308000Y-58420000D03*
X82268000Y-58420000D03*
%TD*%
D43*
%TO.C,JPVOX0*%
X57858000Y-69844000D03*
D44*
X56558000Y-69844000D03*
D45*
X55258000Y-69844000D03*
%TD*%
D15*
%TO.C,C10*%
X70612000Y-100778500D03*
X70612000Y-101913500D03*
%TD*%
D21*
%TO.C,C15*%
X69508000Y-94275500D03*
X69508000Y-96350500D03*
%TD*%
D36*
%TO.C,R17*%
X35663500Y-51054000D03*
X37488500Y-51054000D03*
%TD*%
D37*
%TO.C,R78*%
X89558500Y-60198000D03*
X87733500Y-60198000D03*
%TD*%
D28*
%TO.C,H2*%
X101728000Y-113538000D03*
X102211274Y-112371274D03*
X102211274Y-114704726D03*
X103378000Y-111888000D03*
D29*
X103378000Y-113538000D03*
D28*
X103378000Y-115188000D03*
X104544726Y-112371274D03*
X104544726Y-114704726D03*
X105028000Y-113538000D03*
%TD*%
D46*
%TO.C,C31*%
X71568500Y-55118000D03*
X72703500Y-55118000D03*
%TD*%
D47*
%TO.C,F0*%
X84074000Y-106818000D03*
X84074000Y-105018000D03*
%TD*%
D48*
%TO.C,C40*%
X87143500Y-42164000D03*
X85068500Y-42164000D03*
%TD*%
D49*
%TO.C,Vref0*%
X75320676Y-53152000D03*
X75320676Y-55052000D03*
X77420676Y-54102000D03*
%TD*%
D50*
%TO.C,JP6*%
X79106000Y-75184000D03*
D51*
X80406000Y-75184000D03*
%TD*%
D52*
%TO.C,USB_C0*%
X70200000Y-39145000D03*
X64420000Y-39145000D03*
D53*
X70510000Y-40220000D03*
X69710000Y-40220000D03*
D54*
X68560000Y-40220000D03*
X67560000Y-40220000D03*
X67060000Y-40220000D03*
X66060000Y-40220000D03*
D53*
X64910000Y-40220000D03*
X64110000Y-40220000D03*
D54*
X65560000Y-40220000D03*
X66560000Y-40220000D03*
X68060000Y-40220000D03*
X69060000Y-40220000D03*
D55*
X72430000Y-39645000D03*
X62190000Y-39645000D03*
X72430000Y-35715000D03*
X62190000Y-35715000D03*
%TD*%
D39*
%TO.C,C21*%
X35560000Y-78291500D03*
X35560000Y-77156500D03*
%TD*%
D56*
%TO.C,S_RES0*%
X74356500Y-73725250D03*
X72756500Y-73725250D03*
X72756500Y-69625250D03*
X74356500Y-69625250D03*
D57*
X74981500Y-71675250D03*
%TD*%
D39*
%TO.C,C32*%
X65278000Y-52129500D03*
X65278000Y-50994500D03*
%TD*%
D12*
%TO.C,R42*%
X94864347Y-96773500D03*
X94864347Y-94948500D03*
%TD*%
D41*
%TO.C,TPGND1*%
X22352000Y-100760000D03*
%TD*%
D37*
%TO.C,R84*%
X89558500Y-66294000D03*
X87733500Y-66294000D03*
%TD*%
D36*
%TO.C,R46*%
X93575500Y-101854000D03*
X95400500Y-101854000D03*
%TD*%
D12*
%TO.C,R87*%
X91948000Y-42822500D03*
X91948000Y-40997500D03*
%TD*%
D58*
%TO.C,JPVOX1*%
X82266000Y-101346000D03*
D44*
X83566000Y-101346000D03*
D59*
X84866000Y-101346000D03*
%TD*%
D37*
%TO.C,R39*%
X83716500Y-55118000D03*
X81891500Y-55118000D03*
%TD*%
%TO.C,R9*%
X60348500Y-80264000D03*
X58523500Y-80264000D03*
%TD*%
D12*
%TO.C,R40*%
X96896347Y-96773500D03*
X96896347Y-94948500D03*
%TD*%
D28*
%TO.C,H3*%
X21464000Y-113538000D03*
X21947274Y-112371274D03*
X21947274Y-114704726D03*
X23114000Y-111888000D03*
D29*
X23114000Y-113538000D03*
D28*
X23114000Y-115188000D03*
X24280726Y-112371274D03*
X24280726Y-114704726D03*
X24764000Y-113538000D03*
%TD*%
D60*
%TO.C,RS0*%
X83700805Y-74676000D03*
X83700805Y-75946000D03*
X83700805Y-77216000D03*
X83700805Y-78486000D03*
X89122805Y-78486000D03*
X89122805Y-77216000D03*
X89122805Y-75946000D03*
X89122805Y-74676000D03*
%TD*%
D21*
%TO.C,C34*%
X68580000Y-50270500D03*
X68580000Y-52345500D03*
%TD*%
D61*
%TO.C,D0*%
X62316000Y-90424000D03*
X66716000Y-90424000D03*
%TD*%
D46*
%TO.C,C30*%
X73092500Y-60198000D03*
X74227500Y-60198000D03*
%TD*%
D14*
%TO.C,R34*%
X68580000Y-44807500D03*
X68580000Y-46632500D03*
%TD*%
%TO.C,R20*%
X35306000Y-53189500D03*
X35306000Y-55014500D03*
%TD*%
D62*
%TO.C,H11*%
X88594000Y-89676000D03*
X88594000Y-87376000D03*
X88594000Y-85076000D03*
D63*
X82094000Y-87376000D03*
%TD*%
D36*
%TO.C,R13*%
X53443500Y-92964000D03*
X55268500Y-92964000D03*
%TD*%
D13*
%TO.C,TP1*%
X72390000Y-76200000D03*
%TD*%
D39*
%TO.C,C23*%
X63500000Y-45779500D03*
X63500000Y-44644500D03*
%TD*%
D36*
%TO.C,R32*%
X62587500Y-42672000D03*
X64412500Y-42672000D03*
%TD*%
D37*
%TO.C,R83*%
X89558500Y-64770000D03*
X87733500Y-64770000D03*
%TD*%
%TO.C,R12*%
X55268500Y-94996000D03*
X53443500Y-94996000D03*
%TD*%
D12*
%TO.C,R37*%
X83820000Y-49680500D03*
X83820000Y-47855500D03*
%TD*%
D20*
%TO.C,LED0*%
X38970000Y-73044000D03*
X38970000Y-72244000D03*
X39770000Y-72244000D03*
X39770000Y-73044000D03*
%TD*%
D50*
%TO.C,JP7*%
X79106000Y-77724000D03*
D51*
X80406000Y-77724000D03*
%TD*%
D14*
%TO.C,R50*%
X91948000Y-74017500D03*
X91948000Y-75842500D03*
%TD*%
%TO.C,R21*%
X35306000Y-68429500D03*
X35306000Y-70254500D03*
%TD*%
D37*
%TO.C,R79*%
X89558500Y-61722000D03*
X87733500Y-61722000D03*
%TD*%
D18*
%TO.C,V_BAT0*%
X55388000Y-105516000D03*
X57388000Y-105516000D03*
D19*
X52838000Y-110996000D03*
X59938000Y-110996000D03*
%TD*%
D64*
%TO.C,uC0*%
X44770000Y-58928000D03*
X46670000Y-58928000D03*
%TD*%
D65*
%TO.C,FLA0*%
X55582000Y-47625000D03*
X55582000Y-48895000D03*
X55582000Y-50165000D03*
X55582000Y-51435000D03*
X62782000Y-51435000D03*
X62782000Y-50165000D03*
X62782000Y-48895000D03*
X62782000Y-47625000D03*
%TD*%
D33*
%TO.C,C42*%
X88959500Y-73152000D03*
X87824500Y-73152000D03*
%TD*%
D64*
%TO.C,5sys0*%
X44770000Y-56388000D03*
X46670000Y-56388000D03*
%TD*%
D66*
%TO.C,R_shunt0*%
X55396000Y-102108000D03*
X58396000Y-102108000D03*
%TD*%
D14*
%TO.C,R16*%
X75604000Y-99163500D03*
X75604000Y-100988500D03*
%TD*%
D15*
%TO.C,C25*%
X68834000Y-70298500D03*
X68834000Y-71433500D03*
%TD*%
D64*
%TO.C,bat0*%
X77602000Y-112014000D03*
X79502000Y-112014000D03*
%TD*%
D67*
%TO.C,Y0*%
X66632000Y-70270000D03*
X64432000Y-70270000D03*
X64432000Y-71970000D03*
X66632000Y-71970000D03*
%TD*%
D36*
%TO.C,R86*%
X79351500Y-67564000D03*
X81176500Y-67564000D03*
%TD*%
D68*
%TO.C,JP8*%
X83820000Y-82184000D03*
D69*
X83820000Y-80884000D03*
%TD*%
D30*
%TO.C,C8*%
X60198000Y-86889500D03*
X60198000Y-84814500D03*
%TD*%
D33*
%TO.C,C26*%
X60511500Y-54864000D03*
X59376500Y-54864000D03*
%TD*%
D30*
%TO.C,C16*%
X66802000Y-111527500D03*
X66802000Y-109452500D03*
%TD*%
D46*
%TO.C,C39*%
X78934500Y-53340000D03*
X80069500Y-53340000D03*
%TD*%
D12*
%TO.C,R85*%
X77216000Y-73810500D03*
X77216000Y-71985500D03*
%TD*%
%TO.C,R14*%
X70612000Y-105306500D03*
X70612000Y-103481500D03*
%TD*%
D70*
%TO.C,JB_or_U0*%
X69581000Y-84328000D03*
D71*
X67041000Y-84328000D03*
X64501000Y-84328000D03*
%TD*%
D72*
%TO.C,JP4*%
X86868000Y-80884000D03*
D73*
X86868000Y-82184000D03*
%TD*%
D74*
%TO.C,BAR0*%
X56642000Y-75809000D03*
X56642000Y-74559000D03*
X56642000Y-73309000D03*
X56642000Y-72059000D03*
X54442000Y-72059000D03*
X54442000Y-73309000D03*
X54442000Y-74559000D03*
X54442000Y-75809000D03*
%TD*%
D75*
%TO.C,uC1*%
X62590000Y-55820000D03*
X62590000Y-56220000D03*
X62590000Y-56620000D03*
X62590000Y-57020000D03*
X62590000Y-57420000D03*
X62590000Y-57820000D03*
X62590000Y-58220000D03*
X62590000Y-58620000D03*
X62590000Y-59020000D03*
X62590000Y-59420000D03*
X62590000Y-59820000D03*
X62590000Y-60220000D03*
X62590000Y-60620000D03*
X62590000Y-61020000D03*
D76*
X63440000Y-61870000D03*
X63840000Y-61870000D03*
X64240000Y-61870000D03*
X64640000Y-61870000D03*
X65040000Y-61870000D03*
X65440000Y-61870000D03*
X65840000Y-61870000D03*
X66240000Y-61870000D03*
X66640000Y-61870000D03*
X67040000Y-61870000D03*
X67440000Y-61870000D03*
X67840000Y-61870000D03*
X68240000Y-61870000D03*
X68640000Y-61870000D03*
D75*
X69490000Y-61020000D03*
X69490000Y-60620000D03*
X69490000Y-60220000D03*
X69490000Y-59820000D03*
X69490000Y-59420000D03*
X69490000Y-59020000D03*
X69490000Y-58620000D03*
X69490000Y-58220000D03*
X69490000Y-57820000D03*
X69490000Y-57420000D03*
X69490000Y-57020000D03*
X69490000Y-56620000D03*
X69490000Y-56220000D03*
X69490000Y-55820000D03*
D76*
X68640000Y-54970000D03*
X68240000Y-54970000D03*
X67840000Y-54970000D03*
X67440000Y-54970000D03*
X67040000Y-54970000D03*
X66640000Y-54970000D03*
X66240000Y-54970000D03*
X65840000Y-54970000D03*
X65440000Y-54970000D03*
X65040000Y-54970000D03*
X64640000Y-54970000D03*
X64240000Y-54970000D03*
X63840000Y-54970000D03*
X63440000Y-54970000D03*
D77*
X66040000Y-58420000D03*
%TD*%
D39*
%TO.C,C27*%
X66294000Y-52129500D03*
X66294000Y-50994500D03*
%TD*%
D78*
%TO.C,JP3*%
X80406000Y-70104000D03*
D79*
X79106000Y-70104000D03*
%TD*%
D14*
%TO.C,R24*%
X55372000Y-43537500D03*
X55372000Y-45362500D03*
%TD*%
D80*
%TO.C,JP0*%
X38100000Y-85060000D03*
D81*
X38100000Y-86360000D03*
D82*
X38100000Y-87660000D03*
%TD*%
D14*
%TO.C,R22*%
X35560000Y-83923500D03*
X35560000Y-85748500D03*
%TD*%
D36*
%TO.C,R6*%
X48617500Y-56388000D03*
X50442500Y-56388000D03*
%TD*%
D37*
%TO.C,R80*%
X89558500Y-63246000D03*
X87733500Y-63246000D03*
%TD*%
D14*
%TO.C,R41*%
X98928347Y-94948500D03*
X98928347Y-96773500D03*
%TD*%
D83*
%TO.C,SD0*%
X46380000Y-42578000D03*
X45280000Y-42578000D03*
X44180000Y-42578000D03*
X43080000Y-42578000D03*
X41980000Y-42578000D03*
X40880000Y-42578000D03*
X39780000Y-42578000D03*
X38680000Y-42578000D03*
D84*
X50055000Y-45178000D03*
X36305000Y-45178000D03*
X50055000Y-36878000D03*
X36305000Y-36878000D03*
%TD*%
D14*
%TO.C,R44*%
X81788000Y-47855500D03*
X81788000Y-49680500D03*
%TD*%
D30*
%TO.C,C18*%
X68834000Y-111527500D03*
X68834000Y-109452500D03*
%TD*%
D36*
%TO.C,R7*%
X57253500Y-94996000D03*
X59078500Y-94996000D03*
%TD*%
D37*
%TO.C,R31*%
X44346500Y-70739000D03*
X42521500Y-70739000D03*
%TD*%
D85*
%TO.C,S_BOOT0*%
X58184000Y-38062000D03*
X58184000Y-39662000D03*
X54084000Y-39662000D03*
X54084000Y-38062000D03*
D86*
X56134000Y-37437000D03*
%TD*%
D37*
%TO.C,R29*%
X44346500Y-74422000D03*
X42521500Y-74422000D03*
%TD*%
D30*
%TO.C,C13*%
X64262000Y-111527500D03*
X64262000Y-109452500D03*
%TD*%
D37*
%TO.C,R48*%
X91336500Y-101854000D03*
X89511500Y-101854000D03*
%TD*%
D16*
%TO.C,GPIO2*%
X30734000Y-85820000D03*
X30734000Y-83820000D03*
X30734000Y-81820000D03*
X30734000Y-79820000D03*
D17*
X25254000Y-77270000D03*
X25254000Y-88370000D03*
%TD*%
D87*
%TO.C,C68*%
X80264000Y-85824000D03*
X80264000Y-84864000D03*
%TD*%
D12*
%TO.C,R11*%
X73914000Y-96416500D03*
X73914000Y-94591500D03*
%TD*%
D49*
%TO.C,Vref1*%
X84616000Y-38288000D03*
X84616000Y-36388000D03*
X82516000Y-37338000D03*
%TD*%
D13*
%TO.C,TP2*%
X74676000Y-76200000D03*
%TD*%
D70*
%TO.C,JHEAT0*%
X72903000Y-89916000D03*
D71*
X70363000Y-89916000D03*
%TD*%
D12*
%TO.C,R19*%
X35560000Y-81684500D03*
X35560000Y-79859500D03*
%TD*%
D36*
%TO.C,R45*%
X78081500Y-51562000D03*
X79906500Y-51562000D03*
%TD*%
D33*
%TO.C,C41*%
X80069500Y-37449805D03*
X78934500Y-37449805D03*
%TD*%
D16*
%TO.C,NTCs0*%
X95784000Y-62054000D03*
X95784000Y-60054000D03*
X95784000Y-58054000D03*
X95784000Y-56054000D03*
X95784000Y-54054000D03*
X95784000Y-52054000D03*
X95784000Y-50054000D03*
X95784000Y-48054000D03*
X95784000Y-46054000D03*
X95784000Y-44054000D03*
X95784000Y-42054000D03*
X95784000Y-40054000D03*
D17*
X101264000Y-64604000D03*
X101264000Y-37504000D03*
%TD*%
D88*
%TO.C,L0*%
X65532000Y-101124000D03*
X65532000Y-105124000D03*
%TD*%
D50*
%TO.C,JP5*%
X79106000Y-72644000D03*
D51*
X80406000Y-72644000D03*
%TD*%
D58*
%TO.C,JP9*%
X94712000Y-68072000D03*
D44*
X96012000Y-68072000D03*
D59*
X97312000Y-68072000D03*
%TD*%
D46*
%TO.C,C37*%
X55482500Y-77470000D03*
X56617500Y-77470000D03*
%TD*%
D30*
%TO.C,C33*%
X70612000Y-52345500D03*
X70612000Y-50270500D03*
%TD*%
D36*
%TO.C,R0*%
X81703500Y-109728000D03*
X83528500Y-109728000D03*
%TD*%
D37*
%TO.C,R73*%
X89558500Y-69596000D03*
X87733500Y-69596000D03*
%TD*%
D39*
%TO.C,C12*%
X52578000Y-85911500D03*
X52578000Y-84776500D03*
%TD*%
%TO.C,C11*%
X77724000Y-104707500D03*
X77724000Y-103572500D03*
%TD*%
D37*
%TO.C,R74*%
X89558500Y-58674000D03*
X87733500Y-58674000D03*
%TD*%
D89*
%TO.C,Vshi0*%
X78342000Y-59813000D03*
X78342000Y-60463000D03*
X78342000Y-61113000D03*
X78342000Y-61763000D03*
X78342000Y-62413000D03*
X78342000Y-63063000D03*
X78342000Y-63713000D03*
X78342000Y-64363000D03*
X78342000Y-65013000D03*
X78342000Y-65663000D03*
X84218000Y-65663000D03*
X84218000Y-65013000D03*
X84218000Y-64363000D03*
X84218000Y-63713000D03*
X84218000Y-63063000D03*
X84218000Y-62413000D03*
X84218000Y-61763000D03*
X84218000Y-61113000D03*
X84218000Y-60463000D03*
X84218000Y-59813000D03*
%TD*%
D37*
%TO.C,R26*%
X74469000Y-67103250D03*
X72644000Y-67103250D03*
%TD*%
%TO.C,R28*%
X71016500Y-42672000D03*
X69191500Y-42672000D03*
%TD*%
D36*
%TO.C,R1*%
X81703500Y-112014000D03*
X83528500Y-112014000D03*
%TD*%
D37*
%TO.C,R72*%
X89558500Y-68072000D03*
X87733500Y-68072000D03*
%TD*%
D70*
%TO.C,BuckJmp0*%
X72390000Y-113523000D03*
D71*
X72390000Y-110983000D03*
X72390000Y-108443000D03*
%TD*%
M02*
