%TF.GenerationSoftware,KiCad,Pcbnew,8.0.0*%
%TF.CreationDate,2024-04-11T21:11:57+02:00*%
%TF.ProjectId,BalloonMotherboardV4,42616c6c-6f6f-46e4-9d6f-74686572626f,rev?*%
%TF.SameCoordinates,Original*%
%TF.FileFunction,Paste,Bot*%
%TF.FilePolarity,Positive*%
%FSLAX46Y46*%
G04 Gerber Fmt 4.6, Leading zero omitted, Abs format (unit mm)*
G04 Created by KiCad (PCBNEW 8.0.0) date 2024-04-11 21:11:57*
%MOMM*%
%LPD*%
G01*
G04 APERTURE LIST*
G04 Aperture macros list*
%AMRoundRect*
0 Rectangle with rounded corners*
0 $1 Rounding radius*
0 $2 $3 $4 $5 $6 $7 $8 $9 X,Y pos of 4 corners*
0 Add a 4 corners polygon primitive as box body*
4,1,4,$2,$3,$4,$5,$6,$7,$8,$9,$2,$3,0*
0 Add four circle primitives for the rounded corners*
1,1,$1+$1,$2,$3*
1,1,$1+$1,$4,$5*
1,1,$1+$1,$6,$7*
1,1,$1+$1,$8,$9*
0 Add four rect primitives between the rounded corners*
20,1,$1+$1,$2,$3,$4,$5,0*
20,1,$1+$1,$4,$5,$6,$7,0*
20,1,$1+$1,$6,$7,$8,$9,0*
20,1,$1+$1,$8,$9,$2,$3,0*%
G04 Aperture macros list end*
%ADD10RoundRect,0.250000X0.337500X0.475000X-0.337500X0.475000X-0.337500X-0.475000X0.337500X-0.475000X0*%
%ADD11RoundRect,0.140000X-0.170000X0.140000X-0.170000X-0.140000X0.170000X-0.140000X0.170000X0.140000X0*%
%ADD12RoundRect,0.237500X0.237500X-0.250000X0.237500X0.250000X-0.237500X0.250000X-0.237500X-0.250000X0*%
%ADD13RoundRect,0.155000X0.155000X-0.212500X0.155000X0.212500X-0.155000X0.212500X-0.155000X-0.212500X0*%
%ADD14R,2.250000X2.050000*%
%ADD15RoundRect,0.250000X-0.337500X-0.475000X0.337500X-0.475000X0.337500X0.475000X-0.337500X0.475000X0*%
%ADD16RoundRect,0.250000X-0.475000X0.337500X-0.475000X-0.337500X0.475000X-0.337500X0.475000X0.337500X0*%
%ADD17R,0.950000X1.250000*%
%ADD18R,3.200000X1.250000*%
%ADD19RoundRect,0.155000X-0.155000X0.212500X-0.155000X-0.212500X0.155000X-0.212500X0.155000X0.212500X0*%
%ADD20RoundRect,0.140000X0.170000X-0.140000X0.170000X0.140000X-0.170000X0.140000X-0.170000X-0.140000X0*%
%ADD21RoundRect,0.155000X0.212500X0.155000X-0.212500X0.155000X-0.212500X-0.155000X0.212500X-0.155000X0*%
%ADD22R,1.500000X0.900000*%
%ADD23R,1.500000X3.200000*%
%ADD24R,0.770000X1.070000*%
%ADD25RoundRect,0.237500X0.250000X0.237500X-0.250000X0.237500X-0.250000X-0.237500X0.250000X-0.237500X0*%
%ADD26RoundRect,0.237500X-0.237500X0.250000X-0.237500X-0.250000X0.237500X-0.250000X0.237500X0.250000X0*%
%ADD27RoundRect,0.155000X-0.212500X-0.155000X0.212500X-0.155000X0.212500X0.155000X-0.212500X0.155000X0*%
%ADD28R,0.300000X1.475000*%
%ADD29R,1.475000X0.300000*%
%ADD30RoundRect,0.250000X0.475000X-0.337500X0.475000X0.337500X-0.475000X0.337500X-0.475000X-0.337500X0*%
%ADD31R,2.050000X2.250000*%
%ADD32R,0.650000X0.700000*%
%ADD33R,1.750000X0.950000*%
%ADD34R,1.750000X3.200000*%
%ADD35R,3.200000X1.200000*%
%ADD36R,5.300000X1.700000*%
%ADD37R,1.250000X0.950000*%
%ADD38R,1.250000X3.200000*%
%ADD39R,0.900000X1.500000*%
%ADD40R,3.200000X1.500000*%
%ADD41R,1.070000X0.770000*%
%ADD42RoundRect,0.237500X-0.250000X-0.237500X0.250000X-0.237500X0.250000X0.237500X-0.250000X0.237500X0*%
%ADD43R,1.300000X1.100000*%
%ADD44RoundRect,0.140000X-0.140000X-0.170000X0.140000X-0.170000X0.140000X0.170000X-0.140000X0.170000X0*%
G04 APERTURE END LIST*
D10*
%TO.C,C72*%
X74697500Y-100330000D03*
X72622500Y-100330000D03*
%TD*%
D11*
%TO.C,C71*%
X70358000Y-94516000D03*
X70358000Y-95476000D03*
%TD*%
D12*
%TO.C,R64*%
X42164000Y-43330500D03*
X42164000Y-41505500D03*
%TD*%
D13*
%TO.C,C47*%
X38882000Y-72703500D03*
X38882000Y-71568500D03*
%TD*%
D14*
%TO.C,D2*%
X54696000Y-110744000D03*
X59096000Y-110744000D03*
%TD*%
D10*
%TO.C,C0*%
X65045500Y-71882000D03*
X62970500Y-71882000D03*
%TD*%
D11*
%TO.C,C74*%
X74930000Y-79022000D03*
X74930000Y-79982000D03*
%TD*%
D15*
%TO.C,C2*%
X53318500Y-76962000D03*
X55393500Y-76962000D03*
%TD*%
%TO.C,C56*%
X33018500Y-76200000D03*
X35093500Y-76200000D03*
%TD*%
D16*
%TO.C,C44*%
X32532000Y-54080500D03*
X32532000Y-56155500D03*
%TD*%
D17*
%TO.C,LRuC0*%
X55132000Y-45564000D03*
X52832000Y-45564000D03*
X50532000Y-45564000D03*
D18*
X52832000Y-38764000D03*
%TD*%
D12*
%TO.C,R56*%
X43708000Y-73556500D03*
X43708000Y-71731500D03*
%TD*%
D19*
%TO.C,C58*%
X34564000Y-49536500D03*
X34564000Y-50671500D03*
%TD*%
D15*
%TO.C,C57*%
X28954500Y-89662000D03*
X31029500Y-89662000D03*
%TD*%
D20*
%TO.C,C73*%
X74676000Y-86586000D03*
X74676000Y-85626000D03*
%TD*%
%TO.C,C66*%
X74930000Y-71092000D03*
X74930000Y-70132000D03*
%TD*%
D21*
%TO.C,C60*%
X40953500Y-39370000D03*
X39818500Y-39370000D03*
%TD*%
D22*
%TO.C,H5*%
X88676000Y-104126000D03*
X88676000Y-106426000D03*
X88676000Y-108726000D03*
D23*
X82176000Y-106426000D03*
%TD*%
D24*
%TO.C,F6*%
X91048000Y-77216000D03*
X92848000Y-77216000D03*
%TD*%
D25*
%TO.C,R2*%
X66444500Y-82296000D03*
X64619500Y-82296000D03*
%TD*%
D19*
%TO.C,C62*%
X42184000Y-51502500D03*
X42184000Y-52637500D03*
%TD*%
D10*
%TO.C,C55*%
X39665500Y-76200000D03*
X37590500Y-76200000D03*
%TD*%
D26*
%TO.C,R61*%
X34564000Y-53509500D03*
X34564000Y-55334500D03*
%TD*%
D27*
%TO.C,C50*%
X26376500Y-66548000D03*
X27511500Y-66548000D03*
%TD*%
D15*
%TO.C,C4*%
X67288500Y-70358000D03*
X69363500Y-70358000D03*
%TD*%
%TO.C,C45*%
X25144500Y-60960000D03*
X27219500Y-60960000D03*
%TD*%
%TO.C,C59*%
X38840500Y-37592000D03*
X40915500Y-37592000D03*
%TD*%
D13*
%TO.C,C48*%
X33548000Y-72703500D03*
X33548000Y-71568500D03*
%TD*%
D15*
%TO.C,C1*%
X48238500Y-48260000D03*
X50313500Y-48260000D03*
%TD*%
D27*
%TO.C,C52*%
X26376500Y-67818000D03*
X27511500Y-67818000D03*
%TD*%
D12*
%TO.C,R51*%
X31770000Y-73556500D03*
X31770000Y-71731500D03*
%TD*%
D22*
%TO.C,H10*%
X78942000Y-92188000D03*
X78942000Y-94488000D03*
X78942000Y-96788000D03*
D23*
X72442000Y-94488000D03*
%TD*%
D10*
%TO.C,C54*%
X37379500Y-83058000D03*
X35304500Y-83058000D03*
%TD*%
D24*
%TO.C,F8*%
X90794000Y-85090000D03*
X92594000Y-85090000D03*
%TD*%
D12*
%TO.C,R66*%
X46990000Y-43330500D03*
X46990000Y-41505500D03*
%TD*%
%TO.C,R63*%
X39878000Y-43330500D03*
X39878000Y-41505500D03*
%TD*%
D25*
%TO.C,R58*%
X47648500Y-76962000D03*
X45823500Y-76962000D03*
%TD*%
D27*
%TO.C,C51*%
X26376500Y-62738000D03*
X27511500Y-62738000D03*
%TD*%
D15*
%TO.C,C46*%
X25144500Y-64770000D03*
X27219500Y-64770000D03*
%TD*%
D28*
%TO.C,LAN1*%
X37822000Y-68500000D03*
X37322000Y-68500000D03*
X36822000Y-68500000D03*
X36322000Y-68500000D03*
X35822000Y-68500000D03*
X35322000Y-68500000D03*
X34822000Y-68500000D03*
X34322000Y-68500000D03*
X33822000Y-68500000D03*
X33322000Y-68500000D03*
X32822000Y-68500000D03*
X32322000Y-68500000D03*
D29*
X30834000Y-67012000D03*
X30834000Y-66512000D03*
X30834000Y-66012000D03*
X30834000Y-65512000D03*
X30834000Y-65012000D03*
X30834000Y-64512000D03*
X30834000Y-64012000D03*
X30834000Y-63512000D03*
X30834000Y-63012000D03*
X30834000Y-62512000D03*
X30834000Y-62012000D03*
X30834000Y-61512000D03*
D28*
X32322000Y-60024000D03*
X32822000Y-60024000D03*
X33322000Y-60024000D03*
X33822000Y-60024000D03*
X34322000Y-60024000D03*
X34822000Y-60024000D03*
X35322000Y-60024000D03*
X35822000Y-60024000D03*
X36322000Y-60024000D03*
X36822000Y-60024000D03*
X37322000Y-60024000D03*
X37822000Y-60024000D03*
D29*
X39310000Y-61512000D03*
X39310000Y-62012000D03*
X39310000Y-62512000D03*
X39310000Y-63012000D03*
X39310000Y-63512000D03*
X39310000Y-64012000D03*
X39310000Y-64512000D03*
X39310000Y-65012000D03*
X39310000Y-65512000D03*
X39310000Y-66012000D03*
X39310000Y-66512000D03*
X39310000Y-67012000D03*
%TD*%
D12*
%TO.C,R54*%
X35326000Y-73556500D03*
X35326000Y-71731500D03*
%TD*%
D30*
%TO.C,C53*%
X27198000Y-73935500D03*
X27198000Y-71860500D03*
%TD*%
D12*
%TO.C,R65*%
X44704000Y-43330500D03*
X44704000Y-41505500D03*
%TD*%
D13*
%TO.C,C49*%
X29992000Y-72703500D03*
X29992000Y-71568500D03*
%TD*%
D24*
%TO.C,F4*%
X90794000Y-69088000D03*
X92594000Y-69088000D03*
%TD*%
D12*
%TO.C,R57*%
X37612000Y-80668500D03*
X37612000Y-78843500D03*
%TD*%
D22*
%TO.C,H9*%
X83260000Y-84314000D03*
X83260000Y-86614000D03*
X83260000Y-88914000D03*
D23*
X76760000Y-86614000D03*
%TD*%
D19*
%TO.C,C43*%
X30754000Y-54834250D03*
X30754000Y-55969250D03*
%TD*%
D31*
%TO.C,D1*%
X54610000Y-102702000D03*
X54610000Y-107102000D03*
%TD*%
D32*
%TO.C,FB0*%
X44811000Y-79756000D03*
X46161000Y-79756000D03*
%TD*%
D12*
%TO.C,R55*%
X35326000Y-80668500D03*
X35326000Y-78843500D03*
%TD*%
D33*
%TO.C,LR5V0*%
X62840000Y-86854000D03*
X62840000Y-89154000D03*
X62840000Y-91454000D03*
D34*
X56540000Y-89154000D03*
%TD*%
D35*
%TO.C,H1-0*%
X96303000Y-102314000D03*
X96303000Y-100314000D03*
X96303000Y-98314000D03*
X96303000Y-96314000D03*
D36*
X101783000Y-93764000D03*
X101783000Y-104864000D03*
%TD*%
D15*
%TO.C,C69*%
X69574500Y-87630000D03*
X71649500Y-87630000D03*
%TD*%
D11*
%TO.C,C65*%
X79756000Y-106454000D03*
X79756000Y-107414000D03*
%TD*%
D12*
%TO.C,R68*%
X28722000Y-56538500D03*
X28722000Y-54713500D03*
%TD*%
D37*
%TO.C,LRlan0*%
X57756000Y-69836000D03*
X57756000Y-72136000D03*
X57756000Y-74436000D03*
D38*
X50956000Y-72136000D03*
%TD*%
D27*
%TO.C,C7*%
X61662500Y-94234000D03*
X62797500Y-94234000D03*
%TD*%
D30*
%TO.C,C61*%
X28214000Y-102129500D03*
X28214000Y-100054500D03*
%TD*%
D12*
%TO.C,R52*%
X37358000Y-73556500D03*
X37358000Y-71731500D03*
%TD*%
D39*
%TO.C,H6*%
X97042000Y-58876000D03*
X94742000Y-58876000D03*
X92442000Y-58876000D03*
D40*
X94742000Y-52376000D03*
%TD*%
D22*
%TO.C,H8*%
X83514000Y-76694000D03*
X83514000Y-78994000D03*
X83514000Y-81294000D03*
D23*
X77014000Y-78994000D03*
%TD*%
D12*
%TO.C,R53*%
X41676000Y-73556500D03*
X41676000Y-71731500D03*
%TD*%
D22*
%TO.C,H4*%
X88676000Y-96760000D03*
X88676000Y-99060000D03*
X88676000Y-101360000D03*
D23*
X82176000Y-99060000D03*
%TD*%
D10*
%TO.C,C6*%
X53107500Y-67056000D03*
X51032500Y-67056000D03*
%TD*%
D22*
%TO.C,H7*%
X83514000Y-68566000D03*
X83514000Y-70866000D03*
X83514000Y-73166000D03*
D23*
X77014000Y-70866000D03*
%TD*%
D41*
%TO.C,F2*%
X92456000Y-102246000D03*
X92456000Y-100446000D03*
%TD*%
D42*
%TO.C,R62*%
X36445500Y-55372000D03*
X38270500Y-55372000D03*
%TD*%
D12*
%TO.C,R60*%
X44216000Y-83208500D03*
X44216000Y-81383500D03*
%TD*%
D43*
%TO.C,Y1*%
X37224000Y-50678000D03*
X39524000Y-50678000D03*
X39524000Y-52578000D03*
X37224000Y-52578000D03*
%TD*%
D12*
%TO.C,R67*%
X26436000Y-56538500D03*
X26436000Y-54713500D03*
%TD*%
D42*
%TO.C,R59*%
X41759500Y-76962000D03*
X43584500Y-76962000D03*
%TD*%
D41*
%TO.C,F3*%
X92456000Y-63108000D03*
X92456000Y-64908000D03*
%TD*%
D44*
%TO.C,C70*%
X94770000Y-50292000D03*
X95730000Y-50292000D03*
%TD*%
D11*
%TO.C,C64*%
X79756000Y-99596000D03*
X79756000Y-100556000D03*
%TD*%
D24*
%TO.C,F7*%
X91048000Y-81280000D03*
X92848000Y-81280000D03*
%TD*%
D35*
%TO.C,H3-0*%
X96374000Y-65200000D03*
X96374000Y-67200000D03*
X96374000Y-69200000D03*
X96374000Y-71200000D03*
X96374000Y-73200000D03*
X96374000Y-75200000D03*
X96374000Y-77200000D03*
X96374000Y-79200000D03*
X96374000Y-81200000D03*
X96374000Y-83200000D03*
X96374000Y-85200000D03*
X96374000Y-87200000D03*
D36*
X101854000Y-62650000D03*
X101854000Y-89750000D03*
%TD*%
D24*
%TO.C,F1*%
X90794000Y-96520000D03*
X92594000Y-96520000D03*
%TD*%
D37*
%TO.C,LRre0*%
X62640000Y-78796746D03*
X62640000Y-76496746D03*
X62640000Y-74196746D03*
D38*
X69440000Y-76496746D03*
%TD*%
D10*
%TO.C,C5*%
X56917500Y-48514000D03*
X54842500Y-48514000D03*
%TD*%
D16*
%TO.C,C3*%
X65786000Y-86846500D03*
X65786000Y-88921500D03*
%TD*%
D24*
%TO.C,F5*%
X91048000Y-73152000D03*
X92848000Y-73152000D03*
%TD*%
M02*
